/* XPM */
static char * boxplot_xpm[] = {
"32 32 3 1",
" 	c None",
".	c #FFFFFF",
"+	c #522AD6",
"................................",
"....++..........................",
".....+............+++...........",
".....+.............+............",
".....+.............+............",
".....+.............+............",
".....+.............+............",
".....+.............+............",
".....+.............+............",
".....+.......+++++++++++++......",
".....+.......+...........+......",
".....+.......+...........+......",
".....+.......+...........+......",
".....+.......+++++++++++++......",
".....+.......+...........+......",
"....++.......+...........+......",
".....+.......+...........+......",
".....+.......+...........+......",
".....+.......+...........+......",
".....+.......+...........+......",
".....+.......+...........+......",
".....+.......+++++++++++++......",
".....+.............+............",
".....+.............+............",
".....+.............+............",
".....+.............+............",
".....+.............+............",
".....+.............+............",
".....+.............+............",
".....+............+++...........",
"....++..........................",
"................................"};
