/* XPM */
static char *mini_edit_xpm[] = {
/* width height num_colors chars_per_pixel */
"    16    16       5            1",
/* colors */
"  c None s None",
". c #000000",
"# c #808080",
"i c #ffffff",
"o c #0000ff",
/* pixels */
"                ",
"#########       ",
"#iiiiiii#.      ",
"#i#####i#i.    o",
"#iiiiiii#...  oo",
"#i#####iiii. oo.",
"#iiiiiiiiii.oo. ",
"#i########ioo.  ",
"#iiiiiiiiioo.   ",
"#i#######.o.    ",
"#iiiiiii....    ",
"#i#####...i.    ",
"#iiiii.iiii.    ",
"#iiiiiiiiii.    ",
"............    ",
"                "
};
