/* XPM */
static char *mini_netscape_xpm[] = {
/* width height num_colors chars_per_pixel */
"    17    16       5            1",
/* colors */
". c #ffffff",
"# c #000000",
"b c Gray50",
"i c #00008b",
"  c None",
/* pixels */
"                 ",
" iiiiiiiiiiiiii  ",
" iiibiibiibiiii  ",
" ibi.biibiib.ii  ",
" iii..biiibb.ii  ",
" bib...bbiii.ii  ",
" ibi.i..bibi.ii  ",
" iib.ib..bib.bi  ",
" ibb.ibb..bb.ib  ",
" bib.ibib..b.ib  ",
" bib.bibib...bb  ",
" bbb.bbibbb..bb  ",
" bb#bb#########  ",
" ##############  ",
" ##############  ",
"                 "};
