/* XPM */
static char * mini_plot_xpm[] = {
"17 16 4 1",
" 	c None",
".	c #FFFFFF",
"+	c #000000",
"@	c #FF0000",
"                 ",
"++++++++++++++++ ",
"+.......+.....@+ ",
"+.........@...@+ ",
"+.......+.@@..@+ ",
"+........@..@@.+ ",
"+.......+@...@.+ ",
"+........@.....+ ",
"++..@.+.@+.+.+.+ ",
"+...@@..@......+ ",
"+..@..@@.......+ ",
"+.@.....+......+ ",
"+.@............+ ",
"+@......+......+ ",
"++++++++++++++++ ",
"                 "};
