/* XPM */
static char * mini_chart_xpm[] = {
"14 14 3 1 0 0",
" 	c black",
".	c white",
"X	c blue",
" ...........XX",
" ...........XX",
" ..........XX.",
" ..........XX.",
" ..........XX.",
" ....X....XX..",
" ...XXX...XX..",
" ..XX.XX..XX..",
" .XX..XX.XX...",
" XX....XXXX...",
" X......XXX...",
" .......XX....",
" ........X....",
"              "};
