/* XPM */
static char * model_xpm[] = {
"32 32 69 1",
" 	c None",
".	c #9B9A9A",
"+	c #3B3A3A",
"@	c #000000",
"#	c #393939",
"$	c #939191",
"%	c #DDDDDD",
"&	c #BCBBBB",
"*	c #C7C6C6",
"=	c #AAAAAA",
"-	c #878787",
";	c #2C2C2C",
">	c #676666",
",	c #FFFFFF",
"'	c #F4F3F3",
")	c #B1AFAF",
"!	c #D2D1D1",
"~	c #D9D8D8",
"{	c #939393",
"]	c #9B9999",
"^	c #151515",
"/	c #9D9B9B",
"(	c #C4C4C4",
"_	c #E3E3E3",
":	c #3E3E3E",
"<	c #171717",
"[	c #8E8E8E",
"}	c #454444",
"|	c #727272",
"1	c #7D7C7C",
"2	c #222222",
"3	c #7B7B7B",
"4	c #1D1D1D",
"5	c #A7A6A6",
"6	c #555555",
"7	c #898888",
"8	c #313131",
"9	c #545353",
"0	c #767474",
"a	c #E9E8E8",
"b	c #626262",
"c	c #626161",
"d	c #424242",
"e	c #515151",
"f	c #A2A2A2",
"g	c #343333",
"h	c #494949",
"i	c #C7C7C7",
"j	c #1A1A1A",
"k	c #363636",
"l	c #373636",
"m	c #6E6E6E",
"n	c #464545",
"o	c #191919",
"p	c #8A8888",
"q	c #4D4D4D",
"r	c #585858",
"s	c #686868",
"t	c #ACACAC",
"u	c #6D6C6C",
"v	c #A6A4A4",
"w	c #929191",
"x	c #3A3A3A",
"y	c #333333",
"z	c #BEBDBD",
"A	c #111111",
"B	c #848484",
"C	c #8C8B8B",
"D	c #2A2929",
".+@@#.$%&*=-;>=,')!!)~={>%,,'*],",
",&^@@/%,,]'#(],,!&,_:<[=}@|,,%],",
",&1@@2%,,]3[%],,&&,4^5,,]3@6,%],",
",&&6@@3,,78,%],,&&=@9&,,]%4@_%],",
",&&_@@<_'2~,%],,!)6@0!,,]%6@=%],",
"a))a[@@bc3,'*]%,,&d@1,,%]*e@f*]%",
"a%%a,#@@g,,'%%%,,,h@=,,%%%@4'%%%",
"a%a,,i@@j,,'%%,,,,h@=,={{k4_'%%,",
"a)&,,al@@m,'*],,')n@0'@@@o=,'*],",
",&&,,ph4@@~,%],,!&6@1!i=>344=%],",
",&&,,2(=@@8,%],,&&6@1&,,]%_@@(],",
",&&,|>%,6@@=%],,&&6@1&,,]%,#@b],",
",&&i6)!,~@@4(],,!)6@0!,,]%,6@h],",
"a))q_,]%)3@@r]%,,&d@s,,%]*'#@d]%",
"a%3.,,'%a,#@@t%,,,h@4_,%%%f@@t%%",
"a(q,,,'%a,i@@o,,,,h@#@|{{u@@e%%,",
"q+:6[av%wx6edy66')n@0z6@@@6i'*],",
",&&,,)%,6>',%],,!&6@1!,,]%,,,%],",
",&&,,]%,6>%,%],,&&6@1&,,]%,,,%],",
",&&,,]%,6>%,%],,&&6@1&,,]%,,,%],",
",&&,,)!,e>',%],,!)6@0!,,]%,,,%],",
"a))a,,]%+{,'*]%,,&**&,=hA@@@'*]%",
"a%%a,,'%q=,'%%%,,,%%_#@ob{f='%%%",
",,6666664#666666,,,,6@4_,,,,,,,,",
"a%.===f{g|=f{{==,,%(@@[%%',,'%%,",
"a)&,,av%:B,'*],,')!C@@@@@@@6'*],",
",&&,,)%,6>',%],,!&,=@@#6yh6[,%],",
",&&,,]%,6>%,%],,&&,_@@=,]%,,,%],",
",&&,,]%,6>%,%],,&&,,D@#,]%,,,%],",
",&&,,)!,e>',%],,!),,p@@6]%,,,%],",
"a))a,,]%+{,'*]%,,&**&i4@@de6e*]%",
"a%%a,,'%a,,'%%%,,,%%,,,{hhe6-%%%"};
