/* XPM */
static char * summary_xpm[] = {
"32 32 55 1",
" 	c None",
".	c #E9E8E8",
"+	c #B1AFAF",
"@	c #BCBBBB",
"#	c #FFFFFF",
"$	c #A6A4A4",
"%	c #DDDDDD",
"&	c #C7C6C6",
"*	c #F4F3F3",
"=	c #9B9999",
"-	c #D2D1D1",
";	c #C7C7C7",
">	c #555555",
",	c #333333",
"'	c #7B7B7B",
")	c #AAAAAA",
"!	c #000000",
"~	c #494949",
"{	c #464545",
"]	c #9B9A9A",
"^	c #424242",
"/	c #515151",
"(	c #373636",
"_	c #2C2C2C",
":	c #6E6E6E",
"<	c #3E3E3E",
"[	c #A2A2A2",
"}	c #393939",
"|	c #313131",
"1	c #727272",
"2	c #323232",
"3	c #1A1A1A",
"4	c #1D1D1D",
"5	c #060606",
"6	c #676767",
"7	c #D9D8D8",
"8	c #191919",
"9	c #676666",
"0	c #767474",
"a	c #626262",
"b	c #454444",
"c	c #504F4F",
"d	c #0A0A0A",
"e	c #949393",
"f	c #939393",
"g	c #686868",
"h	c #E3E3E3",
"i	c #A7A6A6",
"j	c #898888",
"k	c #8E8E8E",
"l	c #C4C4C4",
"m	c #626161",
"n	c #222222",
"o	c #7D7C7C",
"p	c #929191",
".+@##.$%@&#*&=##*+--+*#%=%##*&=#",
"#@@##+%##=*#%=##-@##@-##=%###%=#",
"#@@;>,'##=%#',>;@@##@@##=%###%=#",
"#@@)!!~##=%#~!!)@@##@@##=%###%=#",
"#@@)!!{#*=*#~!!)-+##+-##=%###%=#",
".++]!!,%+%#*^!!)#@&&@##%=&*#*&=%",
".%%]!!/%.##*~!!)##%%###%%%*#*%%%",
".%.)!!/%.##*~!!)##%%###%%*##*%%#",
".+@)!!(%@&#*^!!)*+--+*#%=%##*&=#",
"#@@)!!~##=*#~!!)-@##@-##=%###%=#",
"#@@)!!~##=%#~!!)@@##@@##=%###%=#",
"#@@)!!~##=%#~!!)@@##@@##=%###%=#",
"#@@)!!{#*=*#~!!)-+##+-##=%###%=#",
".++]!!,%+%#*_!!)#@]:<>>~,^/>/:=%",
".%%]!!!%.##[!!!);}!!!!!!!!!!!~%%",
".%.)!!!|])1!'!!2!!!!!!!!!!!!!~%#",
".+@)!3!!!!4[&!!!!56-+7}89%##*&=#",
"#@@)!0a}>b7#%c!!de##@-#4!f###%=#",
"#@@)!9%##=%#%,!!g@##@@#h!!)##%=#",
"#@@>!,%##=%#%!!!i@##@@##b!!h#%=#",
"#@@4!!-#*=*#%!!!-+##+-##9!!>#%=#",
".++!!!=%+%#*&!!!#@&&@##%j!!!*&=%",
".%%!!!*%.##*%|!!h#%%###%%!!!*%%%",
"###1!)#######k!!k#######h!!4####",
".%.###*%.##*%l!!}#%%###%f!!1*%%#",
".+@##.$%@&#*&=k!!m--+*#%n!!h*&=#",
"#@@##+%##=*#%=#>!!)#@-#)!!)##%=#",
"#@@##=%##=%#%=##<!!1oo1!!f###%=#",
"#@@##=%##=%#%=##@p>!!!>1j%###%=#",
"#@@##+-#*=*#%=##-+##+-##=%###%=#",
".++.##=%+%#*&=%##@&&@##%=&*#*&=%",
".%%.##*%.##*%%%###%%###%%%*#*%%%"};
