/* XPM */
static char * dot_sc_xpm[] = {
"32 32 4 1 0 0",
" 	m #ffffff c #ffffff",
".	m #000000 c #000000",
"X	c #dddddd",
"o	m #ffffff c #ff0000",
"      .                         ",
"      .   ..   .  ...   .   ..  ",
"      .  .  .      . .     .  . ",
"      .  ....  .   ..   .  .    ",
"      .  .  .      . .     .  . ",
"      .  .  .  .  ...   .   ..  ",
"      .                         ",
"................................",
"      .XXXXXXXXXXXXXXXXXXXXXXXXX",
"  ..  .XXXXXXXX.XXXXXXXX.XXXXXXX",
" .  . .XXXXXXXXXXXXXXXXXXXXXXXXX",
" .  . .XXXXXXXX.XXXXXXXX.XXXXXXX",
" .  . .XXXXXXXXXXXXXXXXXXXXXXXXX",
"  ..  .XXXXXXXX.XXXXXXXX.XXXXXXX",
"      .XXXXXXXXXXXXXXXXXXXXXXXXX",
" . . ...X.X.X.X.X.X.X.X.X.X.X.X.",
"      .XXXXXXXXXXXXXXXXXXXXXXXXX",
"   .  .XXXXXXXX.XXXXXXXX.XXXXXXo",
"  ..  .XXXXXXXXXXXXXXXXXXXXXXXoo",
"   .  .XXXXXXXX.XXXXXXXX.XXXXooo",
"   .  .XXXXXXXXXXXXXXXXXXXXXXXoo",
"  ... .XXXXXXXX.XXXXXXXX.XXXXXXo",
"      .XXXXXXXXXXXXXXXXXXXXXXXXX",
" . . ...X.X.X.X.X.X.X.X.X.X.X.X.",
"      .XXXXXXXXXXXXXXXXXXXXXXXXX",
"  ..  .XXXXXXXX.XXXXXXXX.XXXXXXX",
" .  . .XXXXXXXXXXXXXXXXXXXXXXXXX",
"   .  .XXXXXXXX.XXXXXXXX.XXXXXXX",
"  .   .XXXXXXXXXXXXXXXXXXXXXXXXX",
" .... .XXXXXXXX.XXXXXXXX.XXXXXXX",
"      .XXXXXXXXXXXXXXXXXXXXXXXXX",
" . . ...X.X.X.X.X.X.X.X.X.X.X.X."};
