/* XPM */
static char *text_xpm[] = {
/* columns rows colors chars-per-pixel */
"32 32 177 2 ",
"   c None",
".  c black",
"X  c #71746F",
"o  c #777772",
"O  c #797A77",
"+  c #7A7D79",
"@  c #7C7D78",
"#  c #7C7E79",
"$  c #7D7F7A",
"%  c #8B7873",
"&  c #7F817C",
"*  c #80827C",
"=  c #81837E",
"-  c #828580",
";  c #838680",
":  c #858782",
">  c #858783",
",  c #878A84",
"<  c #8A8B87",
"1  c #8A8C87",
"2  c #8B8D89",
"3  c #8C8E89",
"4  c #8D908A",
"5  c #8E918B",
"6  c #90928D",
"7  c #91938E",
"8  c #92958F",
"9  c #939690",
"0  c #959691",
"q  c #959892",
"w  c #969893",
"e  c #979A95",
"r  c #989B95",
"t  c #999B96",
"y  c #9A9D97",
"u  c #9DA099",
"i  c #9EA09A",
"p  c #A0A39C",
"a  c #A1A39C",
"s  c #A2A49E",
"d  c #A4A7A0",
"f  c #A5A7A2",
"g  c #A5A9A3",
"h  c #A6A9A3",
"j  c #A9AAA5",
"k  c #A9ACA5",
"l  c #A9ADA6",
"z  c #ABAEA7",
"x  c #ABAFA8",
"c  c #ADAFAB",
"v  c #ADB0AA",
"b  c #AEB1AA",
"n  c #B0B3AC",
"m  c #B0B3AE",
"M  c #B0B4AD",
"N  c #B1B4AD",
"B  c #B2B5AE",
"V  c #B2B5AF",
"C  c #B2B6AF",
"Z  c #B3B6AF",
"A  c #B3B6B0",
"S  c #B4B7B0",
"D  c #B5B8B1",
"F  c #B6B9B1",
"G  c #B7BAB3",
"H  c #B9BBB7",
"J  c #BABCB8",
"K  c #BDBEBC",
"L  c #BDBFBC",
"P  c #C2C4C0",
"I  c #C6C9C4",
"U  c #C8CBC7",
"Y  c #CDCFCB",
"T  c #CED0CB",
"R  c #CFD1CE",
"E  c #D0D3CE",
"W  c LightGray",
"Q  c #D2D5D0",
"!  c #D4D6D1",
"~  c #D8DBD5",
"^  c #D9DBD6",
"/  c #DADDD8",
"(  c #DBDDD8",
")  c #DCDFD9",
"_  c #E0E2DE",
"`  c #E0E3DE",
"'  c #E1E4DE",
"]  c #E2E4E0",
"[  c #E3E5E0",
"{  c #E3E6E1",
"}  c #E4E7E2",
"|  c #E5E7E3",
" . c #E5E8E3",
".. c #E6E8E3",
"X. c #E5E8E4",
"o. c #E6E8E4",
"O. c #E6E9E4",
"+. c #E7E9E4",
"@. c #E7E9E5",
"#. c #E7EAE6",
"$. c #E8EAE5",
"%. c #E8EAE6",
"&. c #E8EBE6",
"*. c #E9EBE6",
"=. c #E8EAE7",
"-. c #E8EBE7",
";. c #E9EBE7",
":. c #EAECE7",
">. c #E9EBE8",
",. c #EAEBE8",
"<. c #E9ECE8",
"1. c #EAECE8",
"2. c #EAEDE8",
"3. c #EBEDE8",
"4. c #EAECE9",
"5. c #EBECE9",
"6. c #EAEDE9",
"7. c #EBEDE9",
"8. c #EBEDEA",
"9. c #EBEEEA",
"0. c #ECEDE9",
"q. c #ECEDEA",
"w. c #ECEEEA",
"e. c #ECEEEB",
"r. c #EDEEEB",
"t. c #EDEFEB",
"y. c #EDEFEC",
"u. c #EEEFEC",
"i. c #EEF0EC",
"p. c #EEF0ED",
"a. c #EFF0ED",
"s. c #EFF0EE",
"d. c #EFF1EE",
"f. c #F0F1EE",
"g. c #F0F0EF",
"h. c #F0F1EF",
"j. c #F0F2EF",
"k. c #F1F2EF",
"l. c #F0F1F0",
"z. c #F1F1F0",
"x. c #F1F2F0",
"c. c #F1F3F0",
"v. c #F2F3F1",
"b. c #F2F4F1",
"n. c #F3F4F1",
"m. c #F3F4F2",
"M. c #F3F5F2",
"N. c #F4F5F2",
"B. c #F4F5F3",
"V. c #F5F5F4",
"C. c #F5F6F4",
"Z. c #F6F6F5",
"A. c #F6F7F5",
"S. c #F6F7F6",
"D. c #F7F8F6",
"F. c #F7F8F7",
"G. c #F8F8F7",
"H. c #F8F9F7",
"J. c #F8F9F8",
"K. c #F9F9F8",
"L. c #F9FAF9",
"P. c #FAFAF9",
"I. c #FAFBFA",
"U. c #FBFBFA",
"Y. c #FBFBFB",
"T. c #FBFCFB",
"R. c #FCFCFB",
"E. c gray99",
"W. c #FCFDFC",
"Q. c #FDFDFC",
"!. c #FDFDFD",
"~. c #FDFEFD",
"^. c #FEFEFD",
"/. c #FEFEFE",
"(. c #FEFFFE",
"). c #FFFFFE",
"_. c white",
/* pixels */
"                                                                ",
"                                                                ",
"          D D D S S A B B B B B B n B B B                       ",
"        D F././././././././././././.A.` I v                     ",
"        B /.A.B.v.v.v.d.d.e.7.:.;.X.7.d.;.^ n z                 ",
"        n /.B.v.v.k.d.d.e.e.7.;.X.X.| ] A.7./ B j               ",
"        v /.v.k.. . . . . . . . . . . . W R.X.) v h             ",
"        z /.k.d.d.d.y.e.7.7.7.;.;.X...] ! /.A.' ^ d             ",
"        z /.d.d.. . . . . . . . . . . . . /./.7.] E p           ",
"        h /.d.e.e.e.e.7.7.7.>.;.;.X.X.| ^ T P J U X.x           ",
"        d /.e.e.. . . . . . . . . . . . . . L H c R Q u         ",
"        s /.e.7.e.7.7.7.7.>.7.;.;.;.X.X...] ` / Y L A.r         ",
"        p /.7.7.. . . . . . . . . . . . . . . . X.X./.r         ",
"        u /.7.7.7.7.7.7.7.7.7.>.;.;.;.;.;.;.;.;.;.;./.e         ",
"        y /.7.7.. . . . . . . . . . 7.7.7.7.7.7.7.7./.q         ",
"        r /.7.7.7.7.7.e.e.e.e.e.e.y.y.y.y.y.y.e.e.e./.0         ",
"        q /.e.e.e.e.e.y.y.d.d.d.d.d.d.d.d.d.d.d.d.d./.8         ",
"        9 /.y.e.y.d.d.d.k.k.k.k.v.v.v.v.v.v.v.k.k.k./.7         ",
"        7 /.d.d.. . . . . . . . . . . . . . k.m.v.v./.5         ",
"        5 /.k.k.k.v.v.m.m.m.B.B.A.A.A.A.A.A.A.B.B.B./.2         ",
"        3 /.v.v.. . . . . . . . . . . . . . . k.A.A./.<         ",
"        1 /.v.v.m.B.B.A.A.A.F.G.G.J.J.J.J.J.J.G.F.F./.,         ",
"        , /.m.m.. . . . . . . . . . . . . . . . J.J./.>         ",
"        > /.m.m.B.A.A.F.G.J.J.J.J./././././.R.J.J.J./.;         ",
"        ; /.B.B.. . . . . . . . . . . . . . . R.J.J./.=         ",
"        = /.B.m.B.A.A.F.G.J.J.J.R././././././.T.J.J./.@         ",
"        & /.m.m.. . . . . . . . . . . . R.T.J.J.J.J./.+         ",
"        @ /.m.m.m.B.A.A.A.F.G.J.J.J.J.J.J.J.J.J.G.F./.O         ",
"        @ /.m.m.m.m.m.m.m.m.m.m.m.m.m.m.m.m.m.m.B.m./.X         ",
"        % v./././././././././././././././././././././.%         ",
"          o o o o o o o o o o o o o o o o o o o o o o           ",
"                                                                "
};
