/* XPM */
static char *bundle_xpm[] = {
/* columns rows colors chars-per-pixel */
"32 32 253 2",
"   c #7D5419",
".  c #7D561C",
"X  c #7F581C",
"o  c #895B12",
"O  c #825A1D",
"+  c #865C1D",
"@  c #9F680D",
"#  c #9F680F",
"$  c #966313",
"%  c #9C6510",
"&  c #9D6610",
"*  c #9D6710",
"=  c #9E6810",
"-  c #94651C",
";  c #A1670B",
":  c #A1660C",
">  c #A0670C",
",  c #A1670C",
"<  c #A2680B",
"1  c #A0680C",
"2  c #A0680D",
"3  c #A1680D",
"4  c #A2680C",
"5  c #A2680D",
"6  c #A3680D",
"7  c #A2690D",
"8  c #A0680E",
"9  c #A1680E",
"0  c #A1690F",
"q  c #A2680E",
"w  c #A2690E",
"e  c #A2690F",
"r  c #A36A0E",
"t  c #A36A0F",
"y  c #A16910",
"u  c #A36A10",
"i  c #A26A11",
"p  c #A36A12",
"a  c #A26B12",
"s  c #A36B13",
"d  c #A66B11",
"f  c #A36C13",
"g  c #A66E13",
"h  c #A76E13",
"j  c #A26A15",
"k  c #A36C14",
"l  c #A36C15",
"z  c #A56F17",
"x  c #AC7117",
"c  c #AD7319",
"v  c #AC741A",
"b  c #AA731D",
"n  c #B0781D",
"m  c #B6781C",
"M  c #8E6525",
"N  c #926520",
"B  c #9E6C20",
"V  c #9F6E23",
"C  c #A47124",
"Z  c #A97321",
"A  c #AB7522",
"S  c #AB7523",
"D  c #AC7624",
"F  c #AD7A28",
"G  c #B07720",
"H  c #B57B20",
"J  c #B07924",
"K  c #B27A26",
"L  c #B47B25",
"P  c #B37C26",
"I  c #B47D27",
"U  c #B77E26",
"Y  c #BD7F22",
"T  c #B87D25",
"R  c #B97F24",
"E  c #B97F27",
"W  c #B07B2B",
"Q  c #B57D28",
"!  c #A17837",
"~  c #BE8329",
"^  c #BC842E",
"/  c #B68539",
"(  c #C08327",
")  c #C18529",
"_  c #C0862C",
"`  c #C3872C",
"'  c #C3872D",
"]  c #C2882D",
"[  c #C3882D",
"{  c #C4882E",
"}  c #C4892E",
"|  c #C4892F",
" . c #C5892F",
".. c #C48930",
"X. c #C58930",
"o. c #C58A30",
"O. c #C68B31",
"+. c #C68B32",
"@. c #C68C32",
"#. c #C78C33",
"$. c #C78D33",
"%. c #C78D34",
"&. c #C58C36",
"*. c #C78F37",
"=. c #C88D34",
"-. c #C88E35",
";. c #C88E36",
":. c #C98F36",
">. c #C98F37",
",. c #C99037",
"<. c #CA9038",
"1. c #CA9139",
"2. c #CB913A",
"3. c #CB923A",
"4. c #CB923B",
"5. c #CC933B",
"6. c #CC933C",
"7. c #CC943D",
"8. c #CD943D",
"9. c #CD943E",
"0. c #CD953E",
"q. c #CE953F",
"w. c #CE963F",
"e. c #B08545",
"r. c #BB8E46",
"t. c #BE9149",
"y. c #BF9149",
"u. c #BF924B",
"i. c #BD9453",
"p. c #CE9640",
"a. c #CF9640",
"s. c #CF9741",
"d. c #CF9742",
"f. c #C89444",
"g. c #CA9646",
"h. c #CF9842",
"j. c #C8964A",
"k. c #D09842",
"l. c #D09843",
"z. c #D09943",
"x. c #D09944",
"c. c #D19944",
"v. c #D19A45",
"b. c #D29A45",
"n. c #D29B46",
"m. c #D29B47",
"M. c #D39C47",
"N. c #D39C48",
"B. c #D39D48",
"V. c #D39D49",
"C. c #D49D49",
"Z. c #D49E4A",
"A. c #D59E4B",
"S. c #D59F4B",
"D. c #D59F4C",
"F. c #C59956",
"G. c #CE9F57",
"H. c #C59B5B",
"J. c #C79D5C",
"K. c #CC9F5C",
"L. c #D6A04C",
"P. c #D6A04D",
"I. c #D6A14E",
"U. c #D7A14E",
"Y. c #D7A14F",
"T. c #D7A24F",
"R. c #CDA05C",
"E. c #CEA05C",
"W. c #CFA15C",
"Q. c #CFA25D",
"!. c #D8A250",
"~. c #D8A350",
"^. c #D8A351",
"/. c #D9A454",
"(. c #D9A556",
"). c #D2A25A",
"_. c #D3A35C",
"`. c #CBA263",
"'. c #CBA466",
"]. c #CEA567",
"[. c #C9A36A",
"{. c #D4A662",
"}. c #D1A764",
"|. c #DCB068",
" X c #DEB06B",
".X c #DEB26B",
"XX c #DDB06C",
"oX c #DCB16D",
"OX c #DCB16F",
"+X c #DFB36F",
"@X c #D1AA71",
"#X c #D1AC72",
"$X c #D5AF77",
"%X c #D5B076",
"&X c #DBB273",
"*X c #DCB170",
"=X c #DCB171",
"-X c #DBB375",
";X c #DBB476",
":X c #D6B27B",
">X c #D7B27B",
",X c #D7B47E",
"<X c #DBB478",
"1X c #DBB57A",
"2X c #DCB579",
"3X c #DBB57C",
"4X c #DBB67D",
"5X c #D9B67F",
"6X c #E0B673",
"7X c #E1B675",
"8X c #E1B879",
"9X c #E2BA7D",
"0X c #E3BC7F",
"qX c #D7B480",
"wX c #DCB780",
"eX c #D9B885",
"rX c #DAB985",
"tX c #D9B886",
"yX c #DABA89",
"uX c #DCBC8D",
"iX c #DCBD8D",
"pX c #DCBD8E",
"aX c #DDBE8F",
"sX c #DCBE90",
"dX c #DDBF90",
"fX c #E4BE84",
"gX c #E4BF86",
"hX c #E5C28A",
"jX c #E6C38E",
"kX c #E7C591",
"lX c #E1C497",
"zX c #E7C694",
"xX c #E2C598",
"cX c #E3C699",
"vX c #E3C79A",
"bX c #E4C79C",
"nX c #E5C89D",
"mX c #E5C99E",
"MX c #E6CA9F",
"NX c #E8C998",
"BX c #E9CA9B",
"VX c #E9CC9F",
"CX c #E7CBA0",
"ZX c #E7CCA2",
"AX c #E9CEA1",
"SX c #E8CDA3",
"DX c #EACEA2",
"FX c #EACEA3",
"GX c #E9CEA4",
"HX c #EACFA5",
"JX c #EAD0A5",
"KX c #EAD0A6",
"LX c None",
/* pixels */
"LXLXLXLXLXLXLXLXLXLXLXLXLXLXLXLXLXLXLXLXLXLXLXLXLXLXLXLXLXLXLXLX",
"LXLXLXLXLXLXLXLXLXLXLXLXLXLXLXLXLX, LXLXLXLXLXLXLXLXLXLXLXLXLXLX",
"LXLXLXLXLXLXLXLXLXLXLXLXLXLXLXLXLXf u., LXLXLXLXLXLXLXLXLXLXLXLX",
"LXLXLXLXLXLXLXLXLXLXLXLXLXLXLXLXLXj 2Xj.b 7 LXLXLXLXLXLXLXLXLXLX",
"LXLXLXLXLXLXLXLXLXLXLXLXLXLXLXLXLX7 {.O.*.U 7 @ LXLXLXLXLXLXLXLX",
"LXLXLXLXLXLXLXLXLXLXLXLX7 7 7 , @ , ).O.O.O.` c 7 LXLXLXLXLXLXLX",
"LXLXLXLXLXLX7 p F / u.F.`.@XqXtX@ 7 _.O.O.O.O.O.~ d p LXLXLXLXLX",
"LXLXLXLXLXLXu.iXiXiXiXsXiXiXiXsXiXz A ^ O.O.O.O.O.O.h , LXLXLXLX",
"LXLXLXLXLXp yXiXiXiXsXuXiXsXiXqXG Y m f p H O.O.O.O.T 7 LXLXLXLX",
"LXLXLXLXLXF iXiXsXiXsXiXiXsXiX:XC J U J Z j , n ` O.O., LXLXLXLX",
"LXLXLXLXLX].iXiXsXiXuXiXiXiXpX$XU ~ ~ T S B - $ @ v ^ c : LXLXLX",
"LXLXLXLX, tXsXiXiXiXrXqX:X%X@X[.U ) ) E S V - +   o 7 @ < LXLXLX",
"LXLXLXLX7 sX].H.i.e.! M O O X . I +.j.K.W.W.W.K.K.K.J.r.7 LXLXLX",
"LXLXLXLX@ xX` ` { { ` { ` ` ] ..` X.` | | | | | O.{ O.4X@ LXLXLX",
"LXLXLXLX@ xX| | { X.{ O.O.O.O...| | | | O.O.O.O.O.O.O.3X, LXLXLX",
"LXLXLXLX: xXO.O.O.O.O.O.O.+.O.O.=.#.=.=.#.#.#.O.*.O.*.1X@ LXLXLX",
"LXLXLXLX: vX$.$.$.=.*.$.-.-.=.*.=.=.-.-.*.$.*.-.-.,.-.4X, LXLXLX",
"LXLXLXLX: vX*.*.-.-.-.-.-.-.-.*.,.,.,.,.2.2.,.,.-.5.<.<X, LXLXLX",
"LXLXLXLX@ bX2.2.2.2.2.2.5.2.2.2.2.2.5.5.2.2.2.4.5.5.5.-X, LXLXLX",
"LXLXLXLX: MX4.4.2.2.5.2.8.5.7.7.5.8.5.5.7.8.8.8.8.8.8.-X@ LXLXLX",
"LXLXLXLX: MX8.8.8.8.a.7.8.a.7.8.8.a.8.a.a.8.8.a.k.8.k.-X: LXLXLX",
"LXLXLXLX@ CX8.a.h.8.a.a.a.h.h.a.h.a.k.k.a.k.k.k.k.k.k.=X@ LXLXLX",
"LXLXLXLX: CXk.x.x.h.h.h.h.h.h.h.x.x.x.x.x.x.x.x.x.x.x.=X, LXLXLX",
"LXLXLXLX@ HXx.x.x.x.N.x.M.x.N.h.x.M.M.x.N.x.C.N.M.N.x.OX@ LXLXLX",
"LXLXLXLX7 FXx.N.M.M.M.M.M.N.M.N.N.N.N.N.N.N.N.C.C.C.C.OX< LXLXLX",
"LXLXLXLX@ HXC.N.C.C.C.C.L.C.L.N.N.D.D.D.L.L.U.C.D.D.C. X, LXLXLX",
"LXLXLXLX@ KXD.D.C.U.D.D.L.U.U.U.U.U.T.D.U.L.U.U.U.U.U.OX, LXLXLX",
"LXLXLXLX, FX/.U.Y.Y.Y.Y.U.U.U.U.T.T.T.T.T.T.~.^.~.~./.|., LXLXLX",
"LXLXLXLX= }.HXFXHXHXFXVXNXNXzXkXjXhXhXfX0X9X8X7X6XOX|.f.* LXLXLX",
"LXLXLXLXLX* 7 k k k j f h k a p p a p 7 p p 7 = 7 p , * LXLXLXLX",
"LXLXLXLXLXLXLXLXLXLXLXLXLXLXLXLXLXLXLXLXLXLXLXLXLXLXLXLXLXLXLXLX",
"LXLXLXLXLXLXLXLXLXLXLXLXLXLXLXLXLXLXLXLXLXLXLXLXLXLXLXLXLXLXLXLX"
};
