/* XPM */
static char *close_16_xpm[] = {
/* columns rows colors chars-per-pixel */
"16 16 9 1 ",
"  c gray1",
". c gray17",
"X c #2C2C2C2C2C2C",
"o c #323232323232",
"O c #959595959595",
"+ c gray59",
"@ c #9B9B9B9B9B9B",
"# c gray61",
"$ c none",
/* pixels */
"$$$$$$$$$$$$$$$$",
"$$$$$$$$$$$$$$$$",
"$$.#$$$$$$$$@o$$",
"$$# @$$$$$$@ @$$",
"$$$# +$$$$@ +$$$",
"$$$$# +$$@ +$$$$",
"$$$$$# ++ @$$$$$",
"$$$$$$+  +$$$$$$",
"$$$$$$+  +$$$$$$",
"$$$$$@ ++ @$$$$$",
"$$$$# +$$@ +$$$$",
"$$$# +$$$$@ +$$$",
"$$# #$$$$$$# #$$",
"$$o#$$$$$$$$@X$$",
"$$$$$$$$$$$$$$$$",
"$$$$$$$$$$$$$$$$"
};
