/* XPM */
static char * downsize_xpm[] = {
"16 16 49 1",
" 	c None",
".	c #6587ED",
"+	c #5E80E5",
"@	c #5476DA",
"#	c #7E98E3",
"$	c #486ACE",
"%	c #BBCAED",
"&	c #EAF1F9",
"*	c #E9F0F8",
"=	c #3C5EC2",
"-	c #E9F1F8",
";	c #E0EAF5",
">	c #3254B7",
",	c #E5EEF7",
"'	c #DCE8F4",
")	c #294BAF",
"!	c #E0EBF5",
"~	c #D6E4F2",
"{	c #D1E0F0",
"]	c #C5D9EC",
"^	c #BAD1E8",
"/	c #B3CDE6",
"(	c #AFCAE4",
"_	c #C5D8EC",
":	c #2345AB",
"<	c #5A74C0",
"[	c #CBDDEE",
"}	c #BAD1E9",
"|	c #AEC9E5",
"1	c #ACC8E4",
"2	c #C3D7EC",
"3	c #2244AC",
"4	c #CEDFEF",
"5	c #ACC8E3",
"6	c #C2D7EB",
"7	c #2446B2",
"8	c #C4D8EB",
"9	c #AEC9E4",
"0	c #294BBC",
"a	c #C8DBED",
"b	c #B0CBE5",
"c	c #2F51C8",
"d	c #9FB4E5",
"e	c #C9DBED",
"f	c #C6D9EC",
"g	c #3658D4",
"h	c #6881DE",
"i	c #3D5FE0",
"j	c #4163E9",
"      ...       ",
"       +        ",
"   @@@@#@@@@    ",
"  $%&*****&%$   ",
"  =-;;;;;;;-=   ",
"  >,''''''',>   ",
") )!~~{]^/(_) ) ",
"::<'[}|11112<:: ",
"3 34(55555563 3 ",
"  78999999987   ",
"  0abbbbbbba0   ",
"  cdefffffedc   ",
"   gggghgggg    ",
"       i        ",
"      jjj       ",
"                "};
