/* XPM */
static char *edit_24_xpm[] = {
/* columns rows colors chars-per-pixel */
"24 24 190 2",
"   c black",
".  c gray2",
"X  c #0E0E0E",
"o  c gray12",
"O  c #282828",
"+  c gray22",
"@  c #4F4115",
"#  c #5D502B",
"$  c #5B5230",
"%  c #5D5232",
"&  c #61562F",
"*  c #615738",
"=  c #655930",
"-  c #665A32",
";  c #6C5F34",
":  c #585858",
">  c #676359",
",  c gray38",
"<  c #6F6B63",
"1  c #7C786F",
"2  c #757473",
"3  c #767673",
"4  c #EDA43E",
"5  c #F0A93F",
"6  c #D7AE74",
"7  c #EFB44D",
"8  c #F3AF42",
"9  c #F4B244",
"0  c #F7B544",
"q  c #F7B545",
"w  c #F2B64D",
"e  c #F6D236",
"r  c #F8D837",
"t  c #F9DC38",
"y  c #F9DF39",
"u  c #FAE43A",
"i  c #FBE73B",
"p  c #FCE93B",
"a  c #FCEB3D",
"s  c #828280",
"d  c #908A81",
"f  c #9B958A",
"g  c #9B968A",
"h  c #9D978B",
"j  c #9D978C",
"k  c #9E988D",
"l  c #9F998D",
"z  c #9E998E",
"x  c #9F9A8E",
"c  c #999891",
"v  c #9B9997",
"b  c #9A9A97",
"n  c #9B9A98",
"m  c gray62",
"M  c #A19B8F",
"N  c #A19B90",
"B  c #A19C90",
"V  c #A29C90",
"C  c #A39D91",
"Z  c #A39D92",
"A  c #A39E92",
"S  c #A49E93",
"D  c #A1A1A0",
"F  c #A4A4A3",
"G  c #A8A7A5",
"H  c gray67",
"J  c #ADABA9",
"K  c #ADACA9",
"L  c #ADACAA",
"P  c #AEADAC",
"I  c #AFAEAC",
"U  c #AFAFAE",
"Y  c #B0AFAD",
"T  c #B0AFAE",
"R  c #B1B0AE",
"E  c #B3B2B1",
"W  c gray70",
"Q  c #B4B3B2",
"!  c #B4B4B3",
"~  c #B5B4B2",
"^  c #B5B4B3",
"/  c #B5B5B3",
"(  c #B5B5B4",
")  c gray71",
"_  c #B6B5B4",
"`  c #B6B6B5",
"'  c #B7B6B5",
"]  c #B9B7B6",
"[  c #B9B8B5",
"{  c #B8B8B6",
"}  c #B8B8B7",
"|  c #B9B8B8",
" . c #B9B9B9",
".. c #BAB9B8",
"X. c #BBBBB9",
"o. c #BBBBBA",
"O. c #BCBBBB",
"+. c #BCBCBB",
"@. c #BDBDBC",
"#. c #BEBEBD",
"$. c gray",
"%. c #BFBFBE",
"&. c #C1C0BD",
"*. c #C2C2BE",
"=. c #C0C0C0",
"-. c #C1C1C1",
";. c gray76",
":. c #C6C4C2",
">. c #CECDC9",
",. c #CDCDCD",
"<. c #D1D0CD",
"1. c #D2D1CE",
"2. c #D5D3CE",
"3. c gray82",
"4. c LightGray",
"5. c #D5D4D1",
"6. c #D7D5D1",
"7. c #D7D6D1",
"8. c #D8D6D1",
"9. c #D8D6D2",
"0. c #D8D7D3",
"q. c #D9D7D3",
"w. c #D9D8D4",
"e. c #DAD9D5",
"r. c #DBD9D5",
"t. c #DBD9D7",
"y. c #DBDAD6",
"u. c #DCDAD6",
"i. c #DCDBD7",
"p. c #DDDBD7",
"a. c #DDDBD9",
"s. c #DDDCD8",
"d. c #DEDCD8",
"f. c #DEDDD9",
"g. c #DFDDD9",
"h. c #DFDEDA",
"j. c #E0DEDA",
"k. c #E0DFDB",
"l. c #E1DFDB",
"z. c #E1DFDC",
"x. c #E1E0DC",
"c. c #E1E0DD",
"v. c #E0E0DF",
"b. c #E2E1DD",
"n. c #E3E2DE",
"m. c #E3E2DF",
"M. c #E4E2DF",
"N. c #E4E3DF",
"B. c #E4E3E0",
"V. c #E5E4E1",
"C. c #E6E5E2",
"Z. c #E7E6E3",
"A. c #E4E4E4",
"S. c #E7E7E7",
"D. c #E9E9E9",
"F. c #EBEAE8",
"G. c #ECEBE9",
"H. c #EDECEA",
"J. c #EDEDEB",
"K. c gray93",
"L. c #EFEFED",
"P. c #EFEFEE",
"I. c #F0EFED",
"U. c #F0F0EE",
"Y. c #F1F0EE",
"T. c #F1F1EF",
"R. c gray94",
"E. c #F2F2F0",
"W. c #F3F2F1",
"Q. c #F3F3F1",
"!. c gray95",
"~. c #F4F3F2",
"^. c #F5F4F3",
"/. c #F5F5F3",
"(. c #F4F4F4",
"). c #F6F5F4",
"_. c #F6F6F4",
"`. c #F7F6F5",
"'. c #F6F6F6",
"]. c #F8F7F6",
"[. c #F8F8F7",
"{. c #F9F9F8",
"}. c #F9F9F9",
"|. c #FAFAF9",
" X c #FBFBFB",
".X c #FCFCFB",
"XX c #FDFDFD",
"oX c #FEFEFE",
"OX c gray100",
"+X c None",
/* pixels */
"+X+X+X+X+X+X+X+X+X+X+X+X+X+X+X+X+X: +X+X+X+X+X+X",
"+X+X                            X O ,     +X+X+X",
"+X+X  4.'.OXOXOXOXOXOXOXOX|.|.|.S.A.,.o     +X+X",
"+X+X  '.OXOXOXOXOXOXOXOXOXOX|.K.P F.OXE +     +X",
"+X+X  OXOX;.;.;.;.;.;.;.;.;.o.) F !.OX'.P .     ",
"+X+X  OXOXOXOXOXOXOX|.OX|.|.|.!.m               ",
"+X+X  OXOX;.;.;.o.o.o.=.o.o.o. .D ] s   u w     ",
"+X+X  OXOXOX|.|. X X|.|.|.].|.Q.v.y.  a q #     ",
"+X+X  OXXX#.#.O.o.o.o.O.o.o. .' Q   p q ;       ",
"+X+X  OX|.[.].].].]./._./.Q.Q.Q.  u 9 *         ",
"+X+X  OX].O. .O. .] ] ]  .] Q   u 8 %   <       ",
"+X+X  OX_._././.Q.!.T.!.T.I.  t 7 -   n 1       ",
"+X+X  OXQ.] ] Q Q _ ) ) Q   r 5 =   2 J d       ",
"+X+X  OX/./.!.T.T.T.T.I.  e 4 $   n J :.l       ",
"+X+X  OXT.Q _ Q Q Q Q P   6 &   2 s b y.l       ",
"+X+X  OXH.H.G.G.F.F.C.  @     J ] <.5.y.C       ",
"+X+X  OXF.R R R U J G     &.&.>.<.7.y.y.C       ",
"+X+X  OXC.C.C.C.C.m.m.g.g.5.y.y.y.y.u.8.l       ",
"+X+X  |.B.M.m.M.m.k.g.y.5.y.y.y.y.u.0.8.l       ",
"+X+X  K.m.h.m.h.v.g.g.y.g.g.g.y.y.0.8.8.h       ",
"+X+X  4.h.h.h.g.g.g.g.y.g.u.g.u.u.5.5.2.f       ",
"+X+X  c C A A A C C C C C M M l M l l f >       ",
"+X+X                                            ",
"+X+X                                            "
};
