/* XPM */
static char *exec_xpm[] = {
"24 24 108 2",
"  	c None",
". 	c #000000",
"+ 	c #181611",
"@ 	c #625D45",
"# 	c #28261C",
"$ 	c #655F47",
"% 	c #1B1913",
"& 	c #80795A",
"* 	c #B0A77C",
"= 	c #A59D75",
"- 	c #B3AA7E",
"; 	c #99926C",
"> 	c #363326",
", 	c #B5AC80",
"' 	c #9F9770",
") 	c #4F4B38",
"! 	c #050403",
"~ 	c #605B44",
"{ 	c #ADA57A",
"] 	c #A09770",
"^ 	c #BFB586",
"/ 	c #908966",
"( 	c #14130E",
"_ 	c #13120D",
": 	c #3A3729",
"< 	c #8B8462",
"[ 	c #7C7657",
"} 	c #ACA479",
"| 	c #343124",
"1 	c #4D4936",
"2 	c #3C392A",
"3 	c #B4AB7F",
"4 	c #B5AD80",
"5 	c #1E1C15",
"6 	c #0F0E0A",
"7 	c #3C392B",
"8 	c #211F17",
"9 	c #333024",
"0 	c #615C45",
"a 	c #847D5D",
"b 	c #99916C",
"c 	c #C3BA8A",
"d 	c #8F8965",
"e 	c #8C8663",
"f 	c #A79E76",
"g 	c #3D3A2B",
"h 	c #15140E",
"i 	c #ABA379",
"j 	c #CCC290",
"k 	c #CEC492",
"l 	c #D0C693",
"m 	c #D1C793",
"n 	c #CFC593",
"o 	c #CAC18F",
"p 	c #8E8865",
"q 	c #C8BF8E",
"r 	c #D1C794",
"s 	c #D4CA96",
"t 	c #CDC491",
"u 	c #D5CB97",
"v 	c #D2C894",
"w 	c #948D68",
"x 	c #201F16",
"y 	c #5C5841",
"z 	c #BFB687",
"A 	c #C9BF8E",
"B 	c #C7BD8D",
"C 	c #A29A72",
"D 	c #A8A076",
"E 	c #D3C995",
"F 	c #C3B989",
"G 	c #3F3C2C",
"H 	c #5D5942",
"I 	c #C0B788",
"J 	c #C5BC8B",
"K 	c #A19971",
"L 	c #CCC390",
"M 	c #CAC08E",
"N 	c #C0B787",
"O 	c #3E3B2C",
"P 	c #1F1D16",
"Q 	c #403D2D",
"R 	c #B2A97D",
"S 	c #CEC592",
"T 	c #C2B989",
"U 	c #C5BB8B",
"V 	c #9C946E",
"W 	c #3F3C2D",
"X 	c #A49C74",
"Y 	c #CBC18F",
"Z 	c #CFC693",
"` 	c #CFC592",
" .	c #CDC390",
"..	c #C7BE8C",
"+.	c #817B5B",
"@.	c #69634A",
"#.	c #BCB385",
"$.	c #A59D74",
"%.	c #B1A97D",
"&.	c #C7BE8D",
"*.	c #C6BD8C",
"=.	c #A9A177",
"-.	c #ADA47A",
";.	c #4A4634",
">.	c #69644A",
",.	c #BDB485",
"'.	c #5D5841",
").	c #5C5740",
"                                                ",
"                                                ",
"                                                ",
"                                                ",
"              . . .                             ",
"            + @ # $ %                           ",
"          + & * = - ; >                         ",
"          . + , = ' ) !                         ",
"          . ~ { ] ^ / (   _ : :                 ",
"            . < [ } | 1 . 2 3 4 5 6 7           ",
"              8 ( 9 0 4 a b c c d e f g         ",
"                    h i j k l m n o p 6         ",
"                  6 < q r s t l u v w x         ",
"                  y z A r B C D l E j F G       ",
"                  H I q m J K C L v M N O       ",
"                  P Q R S v T U m S V W (       ",
"                    . X Y S Z `  ...+..         ",
"                    @.#.$.%.&.*.=.X -.;.        ",
"                      >.. W z ,.P _ )           ",
"                          P '.).6               ",
"                                                ",
"                                                ",
"                                                ",
"                                                "};
