/* XPM */
static char *eye_off_xpm[] = {
/* columns rows colors chars-per-pixel */
"16 16 54 1 ",
"  c black",
". c #020202",
"X c gray1",
"o c #060606",
"O c #070707",
"+ c #080808",
"@ c #0B0B0B",
"# c gray8",
"$ c #151515",
"% c #191919",
"& c #1F1F1F",
"* c #202020",
"= c gray13",
"- c #222222",
"; c #333333",
": c gray22",
"> c #393939",
", c #414141",
"< c #464646",
"1 c gray28",
"2 c #4E4E4E",
"3 c #525252",
"4 c gray37",
"5 c #5F5F5F",
"6 c #6D6D6D",
"7 c #6E6E6E",
"8 c #777777",
"9 c gray47",
"0 c #808080",
"q c #838383",
"w c #848484",
"e c #858585",
"r c #868686",
"t c #878787",
"y c #888888",
"u c #8A8A8A",
"i c #8B8B8B",
"p c #8C8C8C",
"a c #8E8E8E",
"s c #929292",
"d c #939393",
"f c #969696",
"g c #9F9F9F",
"h c #A9A9A9",
"j c #AEAEAE",
"k c #B1B1B1",
"l c #C7C7C7",
"z c #C8C8C8",
"x c #D3D3D3",
"c c #D4D4D4",
"v c #E1E1E1",
"b c #E6E6E6",
"n c #FEFEFE",
"m c white",
/* pixels */
":pmmmmmmmmmmmmmm",
"a ymmmmmmmmmmmmm",
"mp tmn,@O;ibmmmm",
"mmi 9mhjk6$Ogmmm",
"mm0 #tmmmmn6 0mm",
"ma du rmmmmmf am",
"l wmm4 0mmmmmw l",
"=1mmm3X tmmmmm1=",
"=1mmm2*y 0mmmm<-",
"l wmmxX&. emmy z",
"ma fmmc235 tm9sm",
"mm0 7nmmmmy 8mmm",
"mmmg+$7kj7%o tmm",
"mmmmbp;O+>qvp tm",
"mmmmmmmmmmmmmi u",
"mmmmmmmmmmmmmmp:"
};
