/* XPM */
static char *eye_xpm[] = {
/* columns rows colors chars-per-pixel */
"16 16 28 1 ",
"  c black",
". c #070707",
"X c #080808",
"o c #0A0A0A",
"O c #121212",
"+ c #151515",
"@ c gray13",
"# c #333333",
"$ c #474747",
"% c #626262",
"& c #636363",
"* c #6D6D6D",
"= c #6E6E6E",
"- c #808080",
"; c #848484",
": c #8B8B8B",
"> c #8C8C8C",
", c #8E8E8E",
"< c #969696",
"1 c #9F9F9F",
"2 c #B1B1B1",
"3 c #C7C7C7",
"4 c #E6E6E6",
"5 c #E9E9E9",
"6 c #EAEAEA",
"7 c #F1F1F1",
"8 c #FEFEFE",
"9 c white",
/* pixels */
"9999999999999999",
"9999999999999999",
"99994:#..#:49999",
"9991.+=22*+.1999",
"99- =899998* -99",
"9, <996%&699< ,9",
"3 ;995oOOo699; 3",
"@$999&O77O&999$@",
"@$999&O77O&999$@",
"3 ;996oOOo699; 3",
"9, <996&&699< ,9",
"99- =899998= -99",
"9991X+=22*+.1999",
"99994>#..#:49999",
"9999999999999999",
"9999999999999999"
};
