/* XPM */
static char * fcast_16_xpm[] = {
"16 16 3 1",
" 	c None",
".	c #94D8E6",
"+	c #000000",
"                ",
"      ++++      ",
"    ++....++    ",
"   ++  ....++   ",
"  ++  ......++  ",
"  +  ........+  ",
"  +  ........+  ",
"  +..........+  ",
"  +..........+  ",
"  +..........+  ",
"  ++........++  ",
"   +........+   ",
"   +........+   ",
"   ++++++++++   ",
"   ++++++++++   ",
"  ++++++++++++  "};
