/* XPM */
static char *fcast_16_xpm[] = {
/* columns rows colors chars-per-pixel */
"16 16 79 1 ",
"  c black",
". c #010101",
"X c #020202",
"o c #040404",
"O c #060606",
"+ c gray3",
"@ c gray4",
"# c gray5",
"$ c gray6",
"% c #111111",
"& c #151515",
"* c gray20",
"= c #39393A",
"- c #3A3A3A",
"; c #3E3E3E",
": c gray25",
"> c #414141",
", c #434342",
"< c #444443",
"1 c #444444",
"2 c gray27",
"3 c #464645",
"4 c #42424A",
"5 c #45454D",
"6 c #45454F",
"7 c #494948",
"8 c gray31",
"9 c #484850",
"0 c #484852",
"q c #4F4F50",
"w c #4F4F53",
"e c #4B4B55",
"r c #525251",
"t c #515155",
"y c #525256",
"u c gray33",
"i c #555555",
"p c #565656",
"a c #585856",
"s c #535358",
"d c #53535B",
"f c #56565A",
"g c #57575C",
"h c #5A5A59",
"j c #5B5B59",
"k c gray36",
"l c #5D5D5C",
"z c #5E5E5C",
"x c #5F5F5E",
"c c #60605F",
"v c #606060",
"b c #616160",
"n c #636362",
"m c gray39",
"M c #646464",
"N c #676767",
"B c #646468",
"V c #686868",
"C c #6A6A6A",
"Z c #6C6C6C",
"A c #6D6D6D",
"S c gray43",
"D c #6F6F6E",
"F c #6F6F6F",
"G c #6E6E70",
"H c #6F6F73",
"J c gray44",
"K c #717171",
"L c #727272",
"P c gray45",
"I c #747474",
"U c gray46",
"Y c #777776",
"T c #777777",
"R c gray48",
"E c #7C7C7C",
"W c gray50",
"Q c gray52",
"! c None",
/* pixels */
"!!!...!!!!...!!!",
"!!!.U$!!!!$R.!!!",
"!!.&1&&!!&&1&.!!",
"!!.QPK&&&&QUG.!!",
"!!.Exd*GK*Wmy.!!",
"!!.Ej-****1vq.!!",
"!.%1**qCCq*1*%.!",
"!.RDu-$$$$uDMB.!",
"!.Kx1e$!!$Un79.!",
"!.Kj,9+!!+Kx16.!",
"!.Du;6+!!+Gk,4.!",
"!.DnudO!!ODnuj.!",
"!.,,**o!!O,1**.!",
"!.Bjqs.!!.Mxry.!",
"!......!!......!",
"!!!!!!!!!!!!!!!!"
};
