/* XPM */
static char *fcast_16_xpm[] = {
/* columns rows colors chars-per-pixel */
"16 16 14 1 ",
"  c black",
". c #2A2A2A2A2A2A",
"X c #2C2C2C2C2C2C",
"o c gray22",
"O c #444444444444",
"+ c gray44",
"@ c #777777777777",
"# c gray47",
"$ c gray50",
"% c gray52",
"& c #888888888888",
"* c #A7A7A7A7A7A7",
"= c #A9A9A9A9A9A9",
"- c white",
/* pixels */
"----------------",
"X*--------------",
" $--------------",
" $------------@o",
" $-----------+ @",
" $----%%--------",
" $---@  +--# +--",
" $--+ ++ ++ +---",
" $-@ +--+  +----",
" $-o@----%%-----",
" $--------------",
" $--------------",
" $--------------",
" O&&&&&&&&&&&&&=",
".              X",
"----------------"
};
