/* XPM */
static char * graph_page_xpm[] = {
"32 32 5 1",
" 	c None",
".	c #000000",
"+	c #FFFFFF",
"@	c #BEBEBE",
"#	c #F43918",
"    ..................          ",
"    .++++++++++++++++..         ",
"    .++++++++++++++++.@.        ",
"    .++++++++++++++++.@@.       ",
"    .+.........++.....@@@.      ",
"    .+.+++++++.++.+.+.@@@@.     ",
"    .+..++#++..++.++..@@@@@.    ",
"    .+.+.+++.+.++.+#+........   ",
"    .+.#+.+.+#.++.+++@@@..@..   ",
"    .+.++..+++.++.++..@@@.@..   ",
"    .+.+++++#+.++..++++.+.+..   ",
"    .+.+++++++.++.+++++++.+..   ",
"    .+.........++.........+..   ",
"    .++++++++++++++++++++++..   ",
"    .++++++++++++++++++++++..   ",
"    .++++++++++++++++++++++..   ",
"    .+.........++.........+..   ",
"    .+.+++++++.++.++++++#.+..   ",
"    .+.#++++++.++.++..+#+.+..   ",
"    .+.+#..++..++.+.++#+..+..   ",
"    .+.+.#+..+.++..+##+.+.+..   ",
"    .+..++#++#.++.+#+++++.+..   ",
"    .+.++++##+.++.#++++++.+..   ",
"    .+.+++++++.++.+++++++.+..   ",
"    .+.........++.........+..   ",
"    .++++++++++++++++++++++..   ",
"    .++++++++++++++++++++++..   ",
"    .++++++++++++++++++++++..   ",
"    .++++++++++++++++++++++..   ",
"    .++++++++++++++++++++++..   ",
"    .........................   ",
"     ........................   "};
