/* XPM */
static const char * gretl_xpm[] = {
"43 48 49 1",
" 	c None",
".	c #1D181B",
"+	c #E4DEDB",
"@	c #A19D9C",
"#	c #707175",
"$	c #72201E",
"%	c #445362",
"&	c #5D2D24",
"*	c #354658",
"=	c #C77561",
"-	c #48241D",
";	c #C8A08D",
">	c #313740",
",	c #A96D5F",
"'	c #7B4E3E",
")	c #32140F",
"!	c #D8B29D",
"~	c #8F8E90",
"{	c #EDEBEA",
"]	c #A35F4B",
"^	c #61504E",
"/	c #603A30",
"(	c #86716D",
"_	c #342B2C",
":	c #4A3531",
"<	c #866458",
"[	c #F5CAB0",
"}	c #CFC6C0",
"|	c #222C38",
"1	c #AB7D6D",
"2	c #B1B1B2",
"3	c #31201D",
"4	c #F8F8F6",
"5	c #878182",
"6	c #915843",
"7	c #1F2125",
"8	c #605E61",
"9	c #63463F",
"0	c #EDCEBB",
"a	c #81594B",
"b	c #3E1F17",
"c	c #D68C74",
"d	c #47464D",
"e	c #79402F",
"f	c #AD8F82",
"g	c #EAA47B",
"h	c #D6D4D2",
"i	c #9A7367",
"j	c #496174",
"7.|33:66'e-.3777..77..3_-3_^<9-..>%d89:,6/-",
".7|33&<6e/b37|7777.333_:_3-:9b).3>>*d3b6'-)",
"..|73-66ee-37777777._:d^d__-_b)3>**d>_&66&)",
".7|3)-'6ea/7.||777_9^^9(999:::_7_%8%d_b''-)",
"..773-e6ea:3.||777d((^<_<##d_3.7>*>*/7/6<&b",
"7777)b/'e':7|7|.7^8^^a<:((#^^^:3**|%%_b/ebb",
"7777)b&'e'/)|7|.>ff&98<^####~#8>d%|>d_be'&-",
"777_)bee/6:7.|.>^;f'ia<ia8d#@#(%%j||d_b/e-)",
"7777)b/6e6/3..._<}}0}<^(d#%~@#5#>j*%^_-6,:)",
"|...)be6'':.37/9^c00<a'<#~82~##j|**%d>b'e-b",
"|.77.-e]'6-))df!cc0!$a#a58*~j8#%*>**>:-,a-b",
"|.77)_9'/'/)3-!!ggg]e9:55%j58(5jj*%>>:b,,&b",
"|.7|.-/'//a3)/;gcgc61;:~^>85#@#%j*%>d-.'9-)",
"77|_.ba6<]^)3-1gcggc;f9^^d#558:**>*>d_-6'&b",
"77|>7_<<ai/)_-!ggggc'9d^89##8<__**%*%)&(6eb",
"|.773&/'&9&33d0[gggc1!fa:a(ai#8>|*%%83-<a&)",
"|7|773/6'':)3^}[g![[[0i:a<9^(:^|*j>%#_-<<&-",
"77|_.3'9]i-.._9'e,g[}0i&//&-/-:7jj*j8_-<6-b",
"7.77)3&/ei--77|)-$]00[</,]a,1/_.%jj##7-1i/-",
"7..73_/e/'-7.._b-),!1e'c]&61c9)7j%jj%_/a'&b",
"777|33:'e'/3.|73&b6]6f;<'=]e$&.7j*j%*_:<<&b",
".7|7.3'<///..||.--/]1c]e]c=,$-).%*jj%_be6&b",
"777733'6'9'_|.>_b';f'e&e]e]=]$3.jjj%j_:'</b",
".7|733&a'a'..7>7d;1/6,ee=$ee,'b|*j%%j3)/a&)",
"..7|3b9aa9<).7.>^93:<99a9/'e'<&7%*j#8>-i'&)",
"|773b)^e''<).|73>:d_8h4{@d9&/<<3^*%8d7&i<&b",
"7777b-'9^'^333737_d(}44{42:^^9(d8>*8d__<(:-",
"|77)3-/eaa9....333:+h#55+{(9<9^dd>*d8:)a</-",
"77))3-//^9b337.7.38@}#}h2++d98ad_%j**>39</b",
"|::b)b//&d__3.7_37(~}#}+>~{5d^88*%j%8_3&</)",
"^(8'/)-^'<:7...3__8}4{4{~4+}98#d>**j5>-9a/)",
"di@!fe:<5f(:3.:.7774444{442}d##d%j>%8:_9'/b",
"_(}+[1e912}f^_3:_:#4444444~5:^58>j>%%d39':b",
"7<!00!'<ii(@2:3|.>}444444{58^d5#|j*d89)9'/)",
"._<;00f&'2!!+{fdd}4444444{#*ddd82h#*%^)^'/)",
"_.391!}1<::9f0@^~{4444444453_:*5{4@>d:)'^/)",
"_.33-a[0[<^(d(88@{44444444585(55h42|:_)9'/)",
"773_--1+{<@f}(2~#2+4444{4h5}#~h#2{}_:)$e':_",
"7.|__)/1;<+}}2{552~{44444@@{#2{@24h8,&)e':_",
".777-)-'/a44@h+822#+4444h#}+84{~j{+(i]$$a93",
"7.73_b&/b({4~h}j{2}84{{2~2}#}4{~8{{51c6$ed)",
"..773)-&&f445}2#4+{@4{2#5h#@{{}@j{4@'1=$e/.",
"7.773)-//;{4#}~@h44{42j}}j244+5@5+4}61c]e:.",
"7773>3&9-i445h#2244@8*@4@}+{{8@@~44+a6c]e:)",
".77733b//i{4~@jh2{2*82444444}~{~@{4{f$c=6)3",
"..7.73b::'@@#dd#5~%5+4444{{2#}{~}{4{+ecc]-)",
".77.7.&/--:385}@5~}{4444444j#2}#h444{e=c]/)",
")777_):9:b9^2h444{{44444442|5{2#+444+e=c=9)"};
