/* XPM */
static char * gretl_edit_xpm[] = {
"43 48 170 2",
"  	c #1F2125",
". 	c #1D181B",
"+ 	c #222C38",
"@ 	c #31201D",
"# 	c #4A3531",
"$ 	c #915843",
"% 	c #7B4E3E",
"& 	c #79402F",
"* 	c #48241D",
"= 	c #342B2C",
"- 	c #61504E",
"; 	c #866458",
"> 	c #63463F",
", 	c #313740",
"' 	c #445362",
") 	c #47464D",
"! 	c #605E61",
"~ 	c #A96D5F",
"{ 	c #603A30",
"] 	c #5D2D24",
"^ 	c #3E1F17",
"/ 	c #32140F",
"( 	c #354658",
"_ 	c #81594B",
": 	c #86716D",
"< 	c #707175",
"[ 	c #AD8F82",
"} 	c #8F8E90",
"| 	c #C8A08D",
"1 	c #9A7367",
"2 	c #A19D9C",
"3 	c #496174",
"4 	c #CFC6C0",
"5 	c #EDCEBB",
"6 	c #878182",
"7 	c #D68C74",
"8 	c #B1B1B2",
"9 	c #A35F4B",
"0 	c #D8B29D",
"a 	c #72201E",
"b 	c #9B8986",
"c 	c #B56343",
"d 	c #D0640C",
"e 	c #CB6523",
"f 	c #A95D41",
"g 	c #EAA47B",
"h 	c #68616D",
"i 	c #BE6E4B",
"j 	c #E18730",
"k 	c #F1AA54",
"l 	c #EDA24C",
"m 	c #DA771C",
"n 	c #AB7D6D",
"o 	c #4D3C3E",
"p 	c #B76237",
"q 	c #E08730",
"r 	c #ED9D3E",
"s 	c #DF7F21",
"t 	c #9A5641",
"u 	c #68514D",
"v 	c #B45C2C",
"w 	c #DF842D",
"x 	c #F8AD46",
"y 	c #E7943D",
"z 	c #BB5C20",
"A 	c #DE822B",
"B 	c #D36A12",
"C 	c #8B5347",
"D 	c #F5CAB0",
"E 	c #BD612B",
"F 	c #DD8029",
"G 	c #EEA34C",
"H 	c #D46D15",
"I 	c #A55225",
"J 	c #C1693C",
"K 	c #DC7E27",
"L 	c #A75324",
"M 	c #DA906F",
"N 	c #DC7D25",
"O 	c #F1A953",
"P 	c #D56E16",
"Q 	c #AB5520",
"R 	c #DA9270",
"S 	c #DB7B24",
"T 	c #D56F17",
"U 	c #AE561F",
"V 	c #D3845E",
"W 	c #DA7922",
"X 	c #F0A852",
"Y 	c #EEA34D",
"Z 	c #D2764C",
"` 	c #BE6028",
" .	c #D97820",
"..	c #D57018",
"+.	c #B5581E",
"@.	c #B15513",
"#.	c #D9761F",
"$.	c #F0A851",
"%.	c #EEA44E",
"&.	c #CD6B3E",
"*.	c #AF5410",
"=.	c #D8741D",
"-.	c #D67019",
";.	c #B6581E",
">.	c #C77561",
",.	c #AC5318",
"'.	c #D7731B",
").	c #EFA751",
"!.	c #CD6B3D",
"~.	c #AA5213",
"{.	c #D7721A",
"].	c #EFA650",
"^.	c #B7602F",
"/.	c #A95423",
"(.	c #EFA54F",
"_.	c #E0B0A0",
":.	c #EDEBEA",
"<.	c #A95214",
"[.	c #E1B2A2",
"}.	c #F8F8F6",
"|.	c #926D4B",
"1.	c #C99552",
"2.	c #D87923",
"3.	c #D29C8A",
"4.	c #E4DEDB",
"5.	c #C79858",
"6.	c #EDC488",
"7.	c #E8B66F",
"8.	c #ECAE5D",
"9.	c #BF7F67",
"0.	c #D6D4D2",
"a.	c #8C7155",
"b.	c #E9B872",
"c.	c #F2D7AB",
"d.	c #F5DFBD",
"e.	c #EABD7D",
"f.	c #ECAE5E",
"g.	c #B76947",
"h.	c #CC9D62",
"i.	c #ECC386",
"j.	c #F4DEB9",
"k.	c #F9EDD9",
"l.	c #FAF1E2",
"m.	c #ECC287",
"n.	c #EAA756",
"o.	c #A7521D",
"p.	c #8A8282",
"q.	c #E7B268",
"r.	c #F1D3A3",
"s.	c #F7E5C9",
"t.	c #FAF2E4",
"u.	c #F4DDBB",
"v.	c #AD6023",
"w.	c #C3936B",
"x.	c #EABA76",
"y.	c #F8EAD2",
"z.	c #F3DAB4",
"A.	c #EBBF80",
"B.	c #DCA962",
"C.	c #B58B54",
"D.	c #78634E",
"E.	c #454542",
"F.	c #EDC48A",
"G.	c #E8B46B",
"H.	c #D9B283",
"I.	c #957148",
"J.	c #4F493F",
"K.	c #877B6C",
"L.	c #DFB287",
"M.	c #D9B29B",
"  . + @ @ # $ $ % & * . @       . .     . . @ = * @ = - ; > * . . , ' ) ! > # ~ $ { * ",
".   + @ @ ] ; $ & { ^ @   +         . @ @ @ = # = @ * # > ^ / . @ , , ( ) @ ^ $ % * / ",
". . +   @ * $ $ & & * @               . = # ) - ) = = * = ^ / @ , ( ( ) , = ] $ $ ] / ",
".   + @ / * % $ & _ {   . + +       = > - - > : > > > # # # =   = ' ! ' ) = ^ % % * / ",
". .     @ * & $ & _ # @ . + +       ) : : - ; = ; < < ) = @ .   , ( , ( {   { $ ; ] ^ ",
"        / ^ { % & % #   +   + .   - ! - - _ ; # : : < - - - # @ ( ( + ' ' = ^ { & ^ ^ ",
"        / ^ ] % & % { / +   + . , [ [ ] > ! ; - < < < < } < ! , ) ' + , ) = ^ & % ] * ",
"      = / ^ & & { $ #   . + . , - | [ % 1 _ ; 1 _ ! ) < 2 < : ' ' 3 + + ) = ^ { & * / ",
"        / ^ { $ & $ { @ . . . = ; 4 4 5 4 ; - : ) < ' } 2 < 6 < , 3 ( ' - = * $ ~ # / ",
"+ . . . / ^ & $ % % # . @   { > - 7 5 5 ; _ % ; < } ! 8 } < < 3 + ( ( ' ) , ^ % & * ^ ",
"+ .     . * & 9 % $ * / / ) [ 0 7 7 5 0 a _ < _ 6 ! ( b c d e f ( , ( ( , # * ~ _ * ^ ",
"+ .     / = > % { % { / @ * 0 0 g g g 9 & > # 6 6 ' h i j k l m c ( ' , , # ^ ~ ~ ] ^ ",
"+ .   + . * { % { { _ @ / { | g 7 g 7 $ n | # } - o p q k k r k s t ' , ) * . % > * / ",
"    + = . ^ _ $ ; 9 - / @ * n g 7 g g 7 | [ > - u v w k k r k x y z ( , ) = * $ % ] ^ ",
"    + ,   = ; ; _ 1 { / = * 0 g g g g 7 % > ) - p A k k r k x l B C ' ( ' / ] : $ & ^ ",
"+ .     @ ] { % ] > ] @ @ ) 5 D g g g 7 n 0 [ E F k k r k x G H I ( ' ' ! @ * ; _ ] / ",
"+   +     @ { $ % % # / @ - 4 D g 0 D D D 5 J K k k r k x G H L ( 3 , ' < = * ; ; ] * ",
"    + = . @ % > 9 1 * . . = > % & ~ g D 4 M N O k r k x G P Q   3 3 ( 3 ! = * ; $ * ^ ",
"  .     / @ ] { & 1 * *     + / * a 9 5 R S O k r k x G T U = . ' 3 3 < <   * n 1 { * ",
"  . .   @ = { & { % *   . . = ^ * / ~ V W X k r k x Y T Z > /   3 ' 3 3 ' = { _ % ] ^ ",
"      + @ @ # % & % { @ . +   @ ] ^ `  .X k r k x Y ..+.a ] .   3 ( 3 ' ( = # ; ; ] ^ ",
".   +   . @ % ; { { { . . + + . * @.#.$.k r k x %...&.~ a * / . ' ( 3 3 ' = ^ & $ ] ^ ",
"        @ @ % $ % > % = + . , = *.=.$.k r k x %.-.;.9 >.9 a @ . 3 3 3 ' 3 = # % ; { ^ ",
".   +   @ @ ] _ % _ % . .   , ,.'.).k r k x %.-.!.a & & ~ % ^ + ( 3 ' ' 3 @ / { _ ] / ",
". .   + @ ^ > _ _ > ; / .   ~.{.].k r k x %.-.^.> { % & % ; ]   ' ( 3 < ! , * 1 % ] / ",
"+     @ ^ / - & % % ; / . /.-.(.k r k x Y .._.:.2 ) > ] { ; ; @ - ( ' ! )   ] 1 ; ] ^ ",
"        ^ * % > - % - @ <...%.k r k x Y ..[.}.:.}.8 # - - > : ) ! , ( ! ) = = ; : # * ",
"+     / @ * { & _ _ |.1.2.Y k r k x G T 3.< 6 6 4.:.: > ; > - ) ) , ( ) ! # / _ ; { * ",
"    / / @ * { { - > 5.6.7.8.r k x G P 9.4 < 4 0.8 4.4.) > ! _ ) = ' 3 ( ( , @ > ; { ^ ",
"+ # # ^ / ^ { { ] a.b.c.d.e.f.x l H g.} 4 < 4 4., } :.6 ) - ! ! ( ' 3 ' ! = @ ] ; { / ",
"- : ! % { / * - % h.i.j.k.l.m.n.H o.! 4 }.:.}.:.} }.4.4 > ! < ) , ( ( 3 6 , * > _ { / ",
") 1 2 0 [ & # ; p.q.r.s.t.t.u.b.v.    }.}.}.}.:.}.}.8 4 ) < < ) ' 3 , ' ! # = > % { ^ ",
"= : 4 4.D n & > w.x.j.y.z.A.B.C.= # < }.}.}.}.}.}.}.} 6 # - 6 ! , 3 , ' ' ) @ > % # ^ ",
"  ; 0 5 5 0 % ; D.E.F.G.H.I.@ + . , 4 }.}.}.}.}.}.:.6 ! - ) 6 < + 3 ( ) ! > / > % { / ",
". = ; | 5 5 [ ] J.K.L.M.4.:.[ ) ) 4 }.}.}.}.}.}.}.:.< ( ) ) ) ! 8 0.< ( ' - / - % { / ",
"= . @ > n 0 4 n ; # # > [ 5 2 - } :.}.}.}.}.}.}.}.}.6 @ = # ( 6 :.}.2 , ) # / % - { / ",
"= . @ @ * _ D 5 D ; - : ) : ! ! 2 :.}.}.}.}.}.}.}.}.6 ! 6 : 6 6 0.}.8 + # = / > % { / ",
"    @ = * * n 4.:.; 2 [ 4 : 8 } < 8 4.}.}.}.}.:.}.0.6 4 < } 0.< 8 :.4 = # / a & % # = ",
"  . + = = / { n | ; 4.4 4 8 :.6 6 8 } :.}.}.}.}.}.2 2 :.< 8 :.2 8 }.0.! ~ ] / & % # = ",
".       * / * % { _ }.}.2 0.4.! 8 8 < 4.}.}.}.}.0.< 4 4.! }.:.} 3 :.4.: 1 9 a a _ > @ ",
"  .   @ = ^ ] { ^ : :.}.} 0.4 3 :.8 4 ! }.:.:.8 } 8 4 < 4 }.:.} ! :.:.6 n 7 $ a & ) / ",
". .     @ / * ] ] [ }.}.6 4 8 < }.4.:.2 }.:.8 < 6 0.< 2 :.:.4 2 3 :.}.2 % n >.a & { . ",
"  .     @ / * { { | :.}.< 4 } 2 0.}.}.:.}.8 3 4 4 3 8 }.}.4.6 2 6 4.}.4 $ n 7 9 & # . ",
"      @ , @ ] > * 1 }.}.6 0.< 8 8 }.}.2 ! ( 2 }.2 4 4.:.:.! 2 2 } }.}.4._ $ 7 9 & # / ",
".       @ @ ^ { { 1 :.}.} 2 3 0.8 :.8 ( ! 8 }.}.}.}.}.}.4 } :.} 2 :.}.:.[ a 7 >.$ / @ ",
". .   .   @ ^ # # % 2 2 < ) ) < 6 } ' 6 4.}.}.}.}.:.:.8 < 4 :.} 4 :.}.:.4.& 7 7 9 * / ",
".     .   . ] { * * # @ ! 6 4 2 6 } 4 :.}.}.}.}.}.}.}.3 < 8 4 < 0.}.}.}.:.& >.7 9 { / ",
"/       = / # > # ^ > - 8 0.}.}.}.:.:.}.}.}.}.}.}.}.8 + 6 :.8 < 4.}.}.}.4.& >.7 >.> / "};
