/* XPM */
static char *info_16_xpm[] = {
/* columns rows colors chars-per-pixel */
"16 16 27 1",
"  c black",
". c #0C131A",
"X c #141B23",
"o c #151B23",
"O c #1C232B",
"+ c #32465C",
"@ c #44586C",
"# c #4A5A6D",
"$ c #657689",
"% c #607891",
"& c #778696",
"* c #7D8A98",
"= c #6E87A1",
"- c #7590AE",
"; c #8196AD",
": c #879BAE",
"> c #8098B3",
", c #96A8BD",
"< c #98AABD",
"1 c #9CACBD",
"2 c #99ACC0",
"3 c #A2B2C3",
"4 c #A5B4C6",
"5 c #A6B5C8",
"6 c #B0BDCE",
"7 c gray100",
"8 c None",
/* pixels */
"8888888888888888",
"8888        8888",
"888  &<2,;@  888",
"88 O5>------o 88",
"8  6>--77----  8",
"8 $>---77----+ 8",
"8 <----------- 8",
"8 4---777----- 8",
"8 3----77----- 8",
"8 1----77----- 8",
"8 *=---77----# 8",
"8  :--7777---  8",
"88 o%-------. 88",
"888  #----#  888",
"8888        8888",
"8888888888888888"
};
