/* XPM */
static char *info_24_xpm[] = {
/* columns rows colors chars-per-pixel */
"24 24 124 2",
"   c black",
".  c #020203",
"X  c #020304",
"o  c #030405",
"O  c #060708",
"+  c #080A0C",
"@  c #0B0E11",
"#  c #0D0F11",
"$  c #0C0F13",
"%  c #0F0F10",
"&  c #0D1014",
"*  c #0E1015",
"=  c #0F1215",
"-  c #0F1217",
";  c #0F1418",
":  c #151617",
">  c #12161C",
",  c #141518",
"<  c #17191B",
"1  c #181C1F",
"2  c #1C1D1F",
"3  c #181C20",
"4  c #1B1E22",
"5  c #191E25",
"6  c #191F26",
"7  c #1C1F21",
"8  c #1E2126",
"9  c #1D232B",
"0  c #1F232A",
"q  c #202325",
"w  c #222427",
"e  c #212428",
"r  c #23272D",
"t  c #23282C",
"y  c #27292B",
"u  c #27292D",
"i  c #202932",
"p  c #212933",
"a  c #222B34",
"s  c #292D30",
"d  c #282D33",
"f  c #2A3139",
"g  c #30363C",
"h  c #2E3945",
"j  c #323940",
"k  c #333B43",
"l  c #353D45",
"z  c #393E44",
"x  c #393F44",
"c  c #3A3E44",
"v  c #3C4046",
"b  c #394048",
"n  c #41464C",
"m  c #434A51",
"M  c #415061",
"N  c #445466",
"B  c #475769",
"V  c #4C5D71",
"C  c #4D5F73",
"Z  c #555B61",
"A  c #506378",
"S  c #5E6772",
"D  c #626971",
"F  c #606B77",
"G  c #6B747C",
"H  c #60768F",
"J  c #6A7683",
"K  c #6B7A8B",
"L  c #6E7C8B",
"P  c #637A94",
"I  c #647B95",
"U  c #677F9A",
"Y  c #717D89",
"T  c #68809B",
"R  c #68819B",
"E  c #69829D",
"W  c #6A839E",
"Q  c #788A9E",
"!  c #6C85A1",
"~  c #6D86A3",
"^  c #6F89A6",
"/  c #708AA7",
"(  c #728CA9",
")  c #748FAD",
"_  c #7590AE",
"`  c #7691AF",
"'  c #7791AF",
"]  c #7792AF",
"[  c #7C93AD",
"{  c #7892B0",
"}  c #7C96B2",
"|  c #7D96B2",
" . c #7F98B4",
".. c #87919D",
"X. c #86929F",
"o. c #8896A4",
"O. c #8A97A6",
"+. c #8097B1",
"@. c #8198B3",
"#. c #8199B2",
"$. c #829AB3",
"%. c #839AB3",
"&. c #819AB5",
"*. c #859AB2",
"=. c #8F9FB0",
"-. c #889FB8",
";. c #909EAC",
":. c #89A0B8",
">. c #8AA1BA",
",. c #8BA2BA",
"<. c #8CA2BB",
"1. c #8EA2B9",
"2. c #8EA3BC",
"3. c #8EA4BB",
"4. c #92A0AD",
"5. c #90A5BB",
"6. c #91A5BB",
"7. c #91A6BD",
"8. c #92A6BD",
"9. c #93A8BF",
"0. c #9AA7B6",
"q. c #93A8C0",
"w. c gray100",
"e. c None",
/* pixels */
"e.e.e.e.e.e.e.e.e.e.e.e.e.e.e.e.e.e.e.e.e.e.e.e.",
"e.e.e.e.e.e.e.e.                  e.e.e.e.e.e.e.",
"e.e.e.e.e.e.  : w 7 3 3 3 3 < O       e.e.e.e.e.",
"e.e.e.e.e.  s Z ;.1.1.<.:.*.K b ,       e.e.e.e.",
"e.e.e.e.  g X.8.&._ _ _ ` _ _ &.F e       e.e.e.",
"e.e.e.  n 4.2._ _ _ _ _ ` _ _ _ +.L y       e.e.",
"e.e.  8 ..-._ _ _ _ w.w.w._ _ _ ` &.J 7       e.",
"e.  % D :._ _ _ _ _ w.w.w._ _ _ _ _ +.k X     e.",
"e.  q Y &._ _ _ _ _ w.w.w._ _ _ _ _ _ A $       ",
"e.  y 3._ _ _ _ _ _ _ _ _ _ _ _ _ _ _ U *       ",
"e.  x 9._ _ _ _ _ w.w.w.w._ _ _ _ _ ) U *       ",
"e.  v 9._ _ _ _ _ w.w.w.w._ _ _ _ _ ) E ;       ",
"e.  c q._ _ _ _ _ _ w.w.w._ _ _ ` ) ` ~ ;       ",
"e.  v 3._ _ _ _ _ _ w.w.w._ _ _ ) ` ) H %       ",
"e.  y 4.| _ _ _ _ _ w.w.w._ _ _ ` ) / N +       ",
"e.  7 G 2._ _ _ _ _ w.w.w._ _ _ ) ) I a X       ",
"e.    r O.&.) _ _ _ w.w.w._ _ _ _ / B *         ",
"e.e.    m 0. .{ _ _ _ _ _ _ _ ) E V 6         e.",
"e.e.      l O.8.| _ ) ` _ _ ( E M 6           e.",
"e.e.e.      9 S Q &.[ / ~ P C h *           e.e.",
"e.e.e.e.      % s j f a i 9 > o           e.e.e.",
"e.e.e.e.e.                              e.e.e.e.",
"e.e.e.e.e.e.                          e.e.e.e.e.",
"e.e.e.e.e.e.e.e.                  e.e.e.e.e.e.e."
};
