/* XPM */
static char *mail_send_xpm[] = {
/* columns rows colors chars-per-pixel */
"24 24 65 1",
"  c #FF00DE",
". c #907413",
"X c #D1A81C",
"o c #CBA41C",
"O c #AF8D18",
"+ c #7C6411",
"@ c #755F10",
"# c #735D10",
"$ c #E4BF3D",
"% c #EDD580",
"& c #EDD582",
"* c #EDD684",
"= c #EED889",
"- c #EFD98C",
"; c #EED88B",
": c #F0DB93",
"> c #EFDA92",
", c #F0DC97",
"< c #F4E6B5",
"1 c #4F3F0A",
"2 c #EDD37C",
"3 c #EED685",
"4 c #F4E5B3",
"5 c gray100",
"6 c #FDFDFD",
"7 c #FBFBFB",
"8 c #F8F8F8",
"9 c #F6F6F6",
"0 c gray96",
"q c #F4F4F4",
"w c #F3F3F3",
"e c gray94",
"r c #EFEFEF",
"t c #EEEEEE",
"y c gray93",
"u c #ECECEC",
"i c #E4E4E4",
"p c gray89",
"a c gray83",
"s c #C8C8C8",
"d c #C6C6C6",
"f c #BCBCBC",
"g c #B9B9B9",
"h c #AEAEAE",
"j c #ACACAC",
"k c #A0A0A0",
"l c #959595",
"z c #818181",
"x c #7C7C7C",
"c c gray45",
"v c #6A6A6A",
"b c gray39",
"n c #535353",
"m c gray31",
"M c gray30",
"N c #434343",
"B c #3E3E3E",
"V c black",
"C c black",
"Z c black",
"A c black",
"S c black",
"D c black",
"F c black",
"G c None",
/* pixels */
"GGGGGGGGGGGGGGGGGGGGGGGG",
"GGGGGGGGGGG1GGGGGGGGGGGG",
"GGGGGGGGGGV<VGGGGGGGGGGG",
"GGGGGGGGGV4*@VGGGGGGGGGG",
"GGGGGGGGV4%3O@VGGGGGGGGG",
"GGGGGGGV4-;&OO@VGGGGGGGG",
"GGGGGGV4=>=&OOO@VGGGGGGG",
"GGGVVVVVV:*%O#VVVVVVGGGG",
"GGVn5555V,**O#V90qpnVGGG",
"GGVtm50qV=2*O#VtypmhVGGG",
"GGV5iN6wV$oX.+VypmjsVGGG",
"GGV50im7VVVVVVVpNkasVGGG",
"GGV570iN8ertyupmlaisVGGG",
"GGV5000iB0tyupMzdiisVGGG",
"GGV5700ivNwupmvdd0isVGGG",
"GGV500ib5gmemldcd0isVGGG",
"GGV57ib50iamjdiixiisVGGG",
"GGV5ic50000ii000ixisVGGG",
"GGV5x5iiiiiiiiiiiixsVGGG",
"GGVcfffffffffffffffbVGGG",
"GGGVVVVVVVVVVVVVVVVVVGGG",
"GGGGGGGGGGGGGGGGGGGGGGGG",
"GGGGGGGGGGGGGGGGGGGGGGGG",
"GGGGGGGGGGGGGGGGGGGGGGGG"
};
