/* XPM */
static char *mini_mail_xpm[] = {
/* width height num_colors chars_per_pixel */
"    16    16       51            1",
/* colors */
". c #010101",
"# c #020202",
"a c #696867",
"b c #706f6e",
"c c #797978",
"d c #7e7d7c",
"e c #807f7e",
"f c #848482",
"g c #858585",
"h c #878785",
"i c #878786",
"j c #8b8b8a",
"k c #969594",
"l c #babab6",
"m c #bcb9b4",
"n c #bfbfbb",
"o c #c1c0bc",
"p c #c4c2bd",
"q c #c4c3c0",
"r c #c6c6c3",
"s c #c7c5c1",
"t c #c7c6c2",
"u c #c8c8c8",
"v c #cecdca",
"w c #d6d3cd",
"x c #d7d4ce",
"y c #d8d5cf",
"z c #d9d6d0",
"A c #dad7d1",
"B c #dcdbd7",
"C c #ddd9d2",
"D c #dddad4",
"E c #dddcd9",
"F c #dedcda",
"G c #dfdfdd",
"H c #e0dcd5",
"I c #e0e0e0",
"J c #e1e1e1",
"K c #e2dfd8",
"L c #e3e0d9",
"M c #e5e2db",
"N c #f0eee8",
"O c #f7f5f1",
"P c #f7f5f2",
"Q c #f8f6f2",
"R c #f9f8f5",
"S c #faf9f6",
"T c #fbfbf8",
"U c #fbfbf9",
"V c #fcfcfc",
"W c #ffffff",
/* pixels */
"uuuuuuuuuuuuuuuu",
"uuuuuuuuuuuuuuuu",
"uuuuuuuuuuuuuuuu",
"uug.#.........gu",
"uu.kVVVVVVVVIh.u",
"uu.WiWWWWWWJfM.u",
"uu.WTdWWWWJcBD.u",
"uu.WTUeWWJbrOD.u",
"uu.WTRseGjpqNC.u",
"uu.WRoTTaEvnLC.u",
"uu.WtTOSQFPMlK.u",
"uu.mxyyywzzAHq.u",
"uug...........gu",
"uuuuuuuuuuuuuuuu",
"uuuuuuuuuuuuuuuu",
"uuuuuuuuuuuuuuuu"
};
