/* XPM */
static char * mail_16_xpm[] = {
"16 16 6 1",
" 	c None",
".	c #000000",
"+	c #E0D97D",
"@	c #D9D9D9",
"#	c #FFFFFF",
"$	c #999999",
"      .++.      ",
"     .++++.     ",
"    .++++++.    ",
"   .++++++++.   ",
" .....++++....  ",
".@###.++++.##@. ",
".#$##.++++.#$#. ",
".##$#......$##. ",
".###$#####$###. ",
".###@$###$@###. ",
".###$@$#$@$###. ",
".##$###$###$##. ",
".#$#########$#. ",
".@###########@. ",
" .............  ",
"                "};
