/* XPM */
static char * markdown_xpm[] = {
"16 16 12 1",
" 	c None",
".	c #293040",
"+	c #29303F",
"@	c #2A303F",
"#	c #282F3F",
"$	c #293140",
"%	c #292F41",
"&	c #292F40",
"*	c #293041",
"=	c #2A3140",
"-	c #28303F",
";	c #5170FF",
"                ",
"...+      @...# ",
"....      ....# ",
".....    +....# ",
".....    ..$..# ",
"......  %.&$..# ",
"...*..  +. $..# ",
"... ...=.. $..# ",
"...  ....  $..# ",
"...  ....  $..# ",
"...   ..+  $..# ",
"...   =.   .... ",
"          +....-",
";;;        .... ",
";;;         +-  ",
"                "};
