/* XPM */
static char * markdown_xpm[] = {
"16 16 51 1",
" 	c #FFFFFF",
".	c #000000",
"+	c #D7D7D7",
"@	c #757575",
"#	c #C4C4C4",
"$	c #838383",
"%	c #666666",
"&	c #FAFAFA",
"*	c #585858",
"=	c #A0A0A0",
"-	c #EDEDED",
";	c #494949",
">	c #323232",
",	c #5D5D5D",
"'	c #F9F9F9",
")	c #AEAEAE",
"!	c #404040",
"~	c #FBFBFB",
"{	c #BCBCBC",
"]	c #A7A7A7",
"^	c #474747",
"/	c #D9D9D9",
"(	c #737373",
"_	c #DCDCDC",
":	c #2A2A2A",
"<	c #DFDFDF",
"[	c #CBCBCB",
"}	c #C7C7C7",
"|	c #D6D6D6",
"1	c #DADADA",
"2	c #A6A6A6",
"3	c #808080",
"4	c #4B4B4B",
"5	c #FDFDFD",
"6	c #1C1C1C",
"7	c #F3F3F3",
"8	c #6C6C6C",
"9	c #4D4D4D",
"0	c #E9E9E9",
"a	c #D8D8D8",
"b	c #DDDDDD",
"c	c #0D0D0D",
"d	c #F5F5F5",
"e	c #717171",
"f	c #E7E7E7",
"g	c #B6B6B6",
"h	c #EBEBEB",
"i	c #B7B7B7",
"j	c #E8E8E8",
"k	c #E2E2E2",
"l	c #EAEAEA",
"                ",
"                ",
"                ",
"                ",
"                ",
" ..+  @.#  $%&  ",
" .*= -;>#  ,.'  ",
" .)!~{]>#  ,.'  ",
" .+^/(_:#<[;.}| ",
" .123456#78..90 ",
" .ab.] c# de;f  ",
" gh5ij gk  7l   ",
"                ",
"                ",
"                ",
"                "};
