/* XPM */
static char * matrix_xpm[] = {
"32 32 88 1",
" 	c #E9E8E8",
".	c #B1AFAF",
"+	c #BCBBBB",
"@	c #FFFFFF",
"#	c #A6A4A4",
"$	c #DDDDDD",
"%	c #C7C6C6",
"&	c #F4F3F3",
"*	c #9B9999",
"=	c #D2D1D1",
"-	c #000000",
";	c #020202",
">	c #3F3F3F",
",	c #C3C3C3",
"'	c #292929",
")	c #3B3B3B",
"!	c #787878",
"~	c #545454",
"{	c #676767",
"]	c #383838",
"^	c #A9A9A9",
"/	c #B2B1B1",
"(	c #232323",
"_	c #161616",
":	c #D9D9D9",
"<	c #AAAAAA",
"[	c #0D0D0D",
"}	c #1C1C1C",
"|	c #979797",
"1	c #3C3B3B",
"2	c #616161",
"3	c #737272",
"4	c #3E3D3D",
"5	c #D3D3D3",
"6	c #070707",
"7	c #BEBEBE",
"8	c #AFAFAF",
"9	c #030303",
"0	c #E6E6E6",
"a	c #888888",
"b	c #1D1D1D",
"c	c #FEFEFE",
"d	c #252525",
"e	c #878787",
"f	c #323232",
"g	c #797979",
"h	c #6A6A6A",
"i	c #D7D7D7",
"j	c #D6D6D6",
"k	c #A2A0A0",
"l	c #040404",
"m	c #878585",
"n	c #706F6F",
"o	c #1F1F1F",
"p	c #3A3939",
"q	c #474646",
"r	c #FBFBFB",
"s	c #7D7D7D",
"t	c #919191",
"u	c #0B0B0B",
"v	c #F2F2F2",
"w	c #B0B0B0",
"x	c #CACACA",
"y	c #D5D5D5",
"z	c #0C0C0C",
"A	c #9B9B9B",
"B	c #4D4D4D",
"C	c #373636",
"D	c #8C8B8B",
"E	c #101010",
"F	c #0E0E0E",
"G	c #171717",
"H	c #131313",
"I	c #111111",
"J	c #535252",
"K	c #1B1B1B",
"L	c #747474",
"M	c #6B6B6B",
"N	c #636262",
"O	c #BBBABA",
"P	c #CDCDCD",
"Q	c #9F9D9D",
"R	c #434242",
"S	c #2F2F2F",
"T	c #4A4A4A",
"U	c #434343",
"V	c #2D2D2D",
"W	c #6C6C6C",
" .+@@ #$+%@&%*@@&.==.&@$*$@@&%*@",
"@++@@.$@@*&@$*@@=+@@+=@@*$@@@$*@",
"@++@@*$@@*$@$*@@++@@++@@*$@@@$*@",
"@++@@*$@@*$@$*@@++@@++@@*$@@@$*@",
"@----;=@&*&@$*@@=.@@.=@@*$>----,",
" --')>*$.$@&%*!--~%%+@@$*%{)]--^",
" --/@@&$ @@&$$(--_:$@@@$$$&@&--^",
" --,@@&$ @@&$<-[}-|$@@@$$&@@&--,",
" --,@ #$+%@&%1-23-4=.&@$*$@@&--,",
"@--,@.$@@*&@56-78-90+=@@*$@@@--,",
"@--,@*$@@*$@a-bc+d-e++@@*$@@@--,",
"@--,@*$@@*$@f-g@+h-d++@@*$@@@--,",
"@--,@.=@&*&i--j@=kl-m=@@*$@@@--,",
" --/@@*$.$@n-o$@@+p-q@@$*%&@&--^",
" --/@@&$ @r_-s$@@@t-uv@$$$&@&--^",
" --,@@&$ @w-9x@@@@yz-A@$$&@@&--,",
" --,@ #$+%B----------C@$*$@@&--,",
"@--,@.$@@Dl-EFGGHIG_--j@*$@@@--,",
"@--,@*$@@J-Ii*@@++@@K-L@*$@@@--,",
"@--,@*$@@G-M$*@@++@@N-Gr*$@@@--,",
"@--,@.=@O--P$*@@=.@@Q;-8*$@@@--,",
" --/@@*$R-S&%*$@@+%%+T-U*%&@&--^",
" --/@@&$ @@&$$$@@@$$@@@$$$&@&--^",
"@--V)>@@@@@@@@@@@@@@@@@@@@W))--,",
" ----9&$ @@&$$@@@@$$@@@$$&>----,",
" .+@@ #$+%@&%*@@&.==.&@$*$@@&%*@",
"@++@@.$@@*&@$*@@=+@@+=@@*$@@@$*@",
"@++@@*$@@*$@$*@@++@@++@@*$@@@$*@",
"@++@@*$@@*$@$*@@++@@++@@*$@@@$*@",
"@++@@.=@&*&@$*@@=.@@.=@@*$@@@$*@",
" .. @@*$.$@&%*$@@+%%+@@$*%&@&%*$",
" $$ @@&$ @@&$$$@@@$$@@@$$$&@&$$$"};
