/* XPM */
static char *mini_alpha_xpm[] = {
/* columns rows colors chars-per-pixel */
"16 16 16 1",
"  c none",
". c gray80",
"X c #555555555555",
"o c black",
"O c #111111111111",
"+ c gray60",
"@ c #222222222222",
"# c #DDDDDDDDDDDD",
"$ c #AAAAAAAAAAAA",
"% c #BBBBBBBBBBBB",
"& c gray40",
"* c #EEEEEEEEEEEE",
"= c gray20",
"- c #444444444444",
"; c #777777777777",
": c #888888888888",
/* pixels */
"                ",
"                ",
"      .XoO+   o ",
"     +@#.Oo. #o ",
"    $o%  +o& +o ",
"   *O=   *OO -O ",
"   ;o:    &o:o+ ",
"   @o%    %ooX  ",
"  *oo      @o.  ",
"  %oo      =o;  ",
"  %oo     &&oO* ",
"  #oo.   &+ @o; ",
"   -o-%+-%  +oO ",
"   .@o@;*    -o ",
"                ",
"                "
};
