/* XPM */
static char *mini_split_xpm[] = {
"16 16 93 2",
"  	c None",
". 	c #FBFBFB",
"+ 	c #FAFAFA",
"@ 	c #F8F8F8",
"# 	c #F7F7F7",
"$ 	c #F5F5F5",
"% 	c #F4F4F4",
"& 	c #F2F2F2",
"* 	c #F0F0F0",
"= 	c #EFEFEF",
"- 	c #EDEDED",
"; 	c #EBEBEB",
"> 	c #E9E9E9",
", 	c #E7E7E7",
"' 	c #E5E5E5",
") 	c #E3E3E3",
"! 	c #E1E1E1",
"~ 	c #909090",
"{ 	c #8F8F8F",
"] 	c #DFDFDF",
"^ 	c #969696",
"/ 	c #050505",
"( 	c #939393",
"_ 	c #DDDDDD",
": 	c #F3F3F3",
"< 	c #070707",
"[ 	c #000000",
"} 	c #8E8E8E",
"| 	c #DBDBDB",
"1 	c #ABABAB",
"2 	c #181818",
"3 	c #121212",
"4 	c #171717",
"5 	c #A1A1A1",
"6 	c #D9D9D9",
"7 	c #EEEEEE",
"8 	c #ECECEC",
"9 	c #EAEAEA",
"0 	c #D7D7D7",
"a 	c #E8E8E8",
"b 	c #D5D5D5",
"c 	c #B6B6B6",
"d 	c #B5B5B5",
"e 	c #B4B4B4",
"f 	c #B3B3B3",
"g 	c #B2B2B2",
"h 	c #B0B0B0",
"i 	c #AFAFAF",
"j 	c #ADADAD",
"k 	c #ACACAC",
"l 	c #AAAAAA",
"m 	c #A9A9A9",
"n 	c #A7A7A7",
"o 	c #A6A6A6",
"p 	c #A5A5A5",
"q 	c #999999",
"r 	c #989898",
"s 	c #979797",
"t 	c #959595",
"u 	c #949494",
"v 	c #929292",
"w 	c #919191",
"x 	c #8D8D8D",
"y 	c #E6E6E6",
"z 	c #E4E4E4",
"A 	c #E2E2E2",
"B 	c #E0E0E0",
"C 	c #DEDEDE",
"D 	c #DCDCDC",
"E 	c #DADADA",
"F 	c #D3D3D3",
"G 	c #D1D1D1",
"H 	c #CFCFCF",
"I 	c #D8D8D8",
"J 	c #CDCDCD",
"K 	c #111111",
"L 	c #151515",
"M 	c #161616",
"N 	c #CCCCCC",
"O 	c #888888",
"P 	c #838383",
"Q 	c #CACACA",
"R 	c #040404",
"S 	c #858585",
"T 	c #C8C8C8",
"U 	c #D6D6D6",
"V 	c #808080",
"W 	c #7F7F7F",
"X 	c #CBCBCB",
"Y 	c #C7C7C7",
"Z 	c #D4D4D4",
"` 	c #D2D2D2",
" .	c #C5C5C5",
". + @ # $ % & * = - ; > , ' ) ! ",
"+ @ # $ % & * ~ { ; > , ' ) ! ] ",
"@ # $ % & * ^ / / ( , ' ) ! ] _ ",
"# $ : & * ( < [ [ < } ) ! ] _ | ",
"$ : & * 1 2 3 4 4 3 4 5 ] _ | 6 ",
": & * 7 8 9 > , ' ) ! ] _ | 6 0 ",
"& * 7 8 9 a , ' ) ! ] _ | 6 0 b ",
"c d e f g h h i j k 1 l m n o p ",
"q r s ^ ^ t u ( ( v w ~ ~ { } x ",
"8 9 a y z A B C D E 6 0 b F G H ",
"9 a y z A B C D E I 0 b F G H J ",
"a y z A 5 4 K L L K M s G H J N ",
"y z A B C O < [ [ < P G H J N Q ",
"z A B C D E O R R S G H J N Q T ",
"A B C D E I U V W G H J X Q T Y ",
"B C D E I U Z ` G H J X Q T Y  ."};
