/* XPM */
static char * mini_dbnomics_xpm[] = {
"16 16 152 2",
"  	c #0F2A34",
". 	c #142F37",
"+ 	c #1D373C",
"@ 	c #2E4747",
"# 	c #36504C",
"$ 	c #2D4746",
"% 	c #193339",
"& 	c #132D36",
"* 	c #304947",
"= 	c #38514D",
"- 	c #344E4A",
"; 	c #233D3F",
"> 	c #112C35",
", 	c #2D4949",
"' 	c #4B6960",
") 	c #7CA08F",
"! 	c #95BBA5",
"~ 	c #8BAF9C",
"{ 	c #68897D",
"] 	c #2D4749",
"^ 	c #102B35",
"/ 	c #284342",
"( 	c #4D6B60",
"_ 	c #82A693",
": 	c #97BDA7",
"< 	c #93B9A3",
"[ 	c #47645F",
"} 	c #132E36",
"| 	c #4F6E63",
"1 	c #628479",
"2 	c #729587",
"3 	c #8AAF9C",
"4 	c #9FC7B1",
"5 	c #729385",
"6 	c #1F393D",
"7 	c #2D4845",
"8 	c #507063",
"9 	c #66887B",
"0 	c #719385",
"a 	c #7EA291",
"b 	c #9EC6AF",
"c 	c #89AE9C",
"d 	c #334D4D",
"e 	c #254143",
"f 	c #47665D",
"g 	c #314D4C",
"h 	c #1A353B",
"i 	c #37524F",
"j 	c #87AB99",
"k 	c #95BBA6",
"l 	c #395452",
"m 	c #2C4745",
"n 	c #4A695E",
"o 	c #264042",
"p 	c #7A9E8E",
"q 	c #9DC4AE",
"r 	c #49655F",
"s 	c #254142",
"t 	c #46655C",
"u 	c #2E4A4A",
"v 	c #102A34",
"w 	c #152F37",
"x 	c #729485",
"y 	c #9DC4AD",
"z 	c #4B6760",
"A 	c #4A6A5F",
"B 	c #3D5954",
"C 	c #344D4A",
"D 	c #415C57",
"E 	c #86AA99",
"F 	c #405B55",
"G 	c #2C4747",
"H 	c #102A33",
"I 	c #122C34",
"J 	c #6F9184",
"K 	c #9EC7B0",
"L 	c #506D65",
"M 	c #4F6F63",
"N 	c #7FA391",
"O 	c #99C0AA",
"P 	c #A2CAB3",
"Q 	c #6D8E81",
"R 	c #1E373C",
"S 	c #45655C",
"T 	c #2B4646",
"U 	c #102A32",
"V 	c #709283",
"W 	c #4F6C65",
"X 	c #4C6D61",
"Y 	c #63857A",
"Z 	c #709385",
"` 	c #7B9E8E",
" .	c #99C1AB",
"..	c #83A897",
"+.	c #324C4B",
"@.	c #183238",
"#.	c #769788",
"$.	c #9BC3AD",
"%.	c #47645E",
"&.	c #304C4C",
"*.	c #233C3F",
"=.	c #6C8E80",
"-.	c #9DC5AE",
";.	c #516F67",
">.	c #324E4D",
",.	c #253E40",
"'.	c #445F59",
").	c #8EB4A0",
"!.	c #91B7A3",
"~.	c #334E4C",
"{.	c #2C4644",
"].	c #345050",
"^.	c #2C4646",
"/.	c #739586",
"(.	c #537169",
"_.	c #2F4B4B",
":.	c #517165",
"<.	c #729486",
"[.	c #89AE9A",
"}.	c #9CC4AE",
"|.	c #67877A",
"1.	c #1A3339",
"2.	c #2D4745",
"3.	c #527265",
"4.	c #779A89",
"5.	c #86AB99",
"6.	c #8DB39E",
"7.	c #9FC7B0",
"8.	c #8AAF9B",
"9.	c #36504D",
"0.	c #2C4848",
"a.	c #4D6C62",
"b.	c #6F9284",
"c.	c #80A594",
"d.	c #799C8D",
"e.	c #5A796D",
"f.	c #223B3D",
"g.	c #0F2931",
"h.	c #2B4543",
"i.	c #739688",
"j.	c #83A696",
"k.	c #7FA493",
"l.	c #709285",
"m.	c #415D57",
"n.	c #132C33",
"o.	c #1C363C",
"p.	c #233D41",
"q.	c #243E42",
"r.	c #1D373D",
"s.	c #0F2933",
"t.	c #243F42",
"u.	c #18333A",
"                                ",
"                                ",
". + @ # $ %     & + * = - ; >   ",
", ' ) ! ~ { ] ^ / ( _ : < ) [ } ",
", | 1 2 3 4 5 6 7 8 9 0 a b c d ",
"e f g h i j k l m n g % o p q r ",
"s t u v w x y z m A B C D E k F ",
"s t G H I J K L m M N ! O P Q R ",
"s S T U I V K W m X Y Z `  ...+.",
"s S T U @.#.$.%.m n &.@.*.=.-.;.",
"e f >.,.'.).!.~.{.A ].; ^./.b (.",
"_.:.<.[.: }.|.1.2.3.4.5.6.7.8.9.",
"0.a.b.c.d.e.f.g.h.| i.j.k.l.m.n.",
"& o.p.q.r.> s.s.} + p.t.p.u.v s.",
"                                ",
"                                "};
