/* XPM */
static char * mini_table_xpm[] = {
"16 16 83 1",
" 	c None",
".	c #BFC7D4",
"+	c #BDC5D2",
"@	c #B9C2D0",
"#	c #C3CAD6",
"$	c #B6BECD",
"%	c #CCD2DD",
"&	c #C8CED9",
"*	c #A6B1C3",
"=	c #AEB8C9",
"-	c #94A1B7",
";	c #9AA6BB",
">	c #9BA7BC",
",	c #ABB5C6",
"'	c #99A5BA",
")	c #9DA8BC",
"!	c #9FAABE",
"~	c #A4AFC1",
"{	c #8593AC",
"]	c #8C9AB1",
"^	c #8E9CB3",
"/	c #8B99B0",
"(	c #8997B0",
"_	c #95A2B8",
":	c #919EB4",
"<	c #FCFCFD",
"[	c #EDEFF2",
"}	c #F3F4F6",
"|	c #E7E9EE",
"1	c #CBD1DC",
"2	c #ADB7C8",
"3	c #F7F8FA",
"4	c #E2E5EB",
"5	c #E8EBEF",
"6	c #DFE3EA",
"7	c #F9F9FA",
"8	c #F5F6F8",
"9	c #E3E6EC",
"0	c #E9ECF0",
"a	c #DBDFE6",
"b	c #D9DEE6",
"c	c #E1E4EA",
"d	c #8896AF",
"e	c #8291AB",
"f	c #A3AEC0",
"g	c #A7B2C4",
"h	c #B3BCCC",
"i	c #D0D5DF",
"j	c #A0ABBF",
"k	c #D5DAE2",
"l	c #DEE2E9",
"m	c #CFD4DE",
"n	c #D8DDE5",
"o	c #DDE1E8",
"p	c #E5E8EE",
"q	c #D6DBE3",
"r	c #CAD0DB",
"s	c #A5B0C2",
"t	c #D1D7E0",
"u	c #F0F2F5",
"v	c #DCE0E7",
"w	c #A1ACC0",
"x	c #D7DCE4",
"y	c #EAEDF1",
"z	c #7989A4",
"A	c #8795AE",
"B	c #929FB5",
"C	c #A8B3C5",
"D	c #B0B9C9",
"E	c #B2BBCB",
"F	c #BAC3D1",
"G	c #C9CFDA",
"H	c #B8C0CF",
"I	c #C5CCD8",
"J	c #C6CDD9",
"K	c #C4CBD7",
"L	c #70819F",
"M	c #8D9BB2",
"N	c #ACB6C7",
"O	c #8F9DB4",
"P	c #697B9A",
"Q	c #5B6C88",
"R	c #3E495B",
" ..+.@++++++++# ",
"$%&&&&&&&&&&&&%*",
"$=-;>,>'''*)'>!*",
"$~{]^!]/(]_^/(:*",
"$<[}|1}[[}1|}[<*",
"23456#5||5#6547>",
"2890a@099|@b|c8-",
"2de^:dffg=~h++i-",
"j0klm2lnno2mlk[(",
"'pkqrsnkknsrnt0e",
";uv9tw6axa>&aiyz",
";:ABBe~*CD'EFFtz",
"(k.GH]GIJG]FrKaL",
"Bpmq#MqtiqM#qm0L",
"BN'jOP!;;!POj'2L",
" QQQQQQQQQQQQQQR"};
