/* XPM */
static char * mini_split_v_xpm[] = {
"16 16 30 1",
" 	c None",
".	c #74A3F9",
"+	c #6587ED",
"@	c #6486EC",
"#	c #FFFFFF",
"$	c #5E80E5",
"%	c #5476DA",
"&	c #FCFCFC",
"*	c #F9F9F9",
"=	c #486ACE",
"-	c #F6F6F6",
";	c #3C5EC2",
">	c #F3F3F3",
",	c #3254B7",
"'	c #294BAF",
")	c #EFEFEF",
"!	c #2244AC",
"~	c #2345AB",
"{	c #EBEBEB",
"]	c #E9E9E9",
"^	c #E6E6E6",
"/	c #2446B2",
"(	c #294BBC",
"_	c #E3E3E3",
":	c #2F51C8",
"<	c #E1E1E1",
"[	c #3658D4",
"}	c #3D5FE0",
"|	c #4163E9",
"1	c #314AAF",
".......+++@@+++@",
".######$#######%",
".####&#%##*####%",
".#**&*&=*#*#**#=",
".*-**-*;***#***;",
".*>----,*-*,*-*,",
".->>>>-'***'#**'",
".>))))>!*~~~~~*~",
".>{)){)!--*!*--!",
".)]]^])/)]>/>])/",
".)^^^^)()^)>]^)(",
".]____{:]_____]:",
".]___<^[^_____][",
".]^^]^{}{^^]^^)[",
".......||||||||1",
"                "};
