/* XPM */
static char * mini_tsplot_xpm[] = {
"16 16 4 1",
" 	c None",
".	c #8C8888",
"+	c #FFFFFF",
"@	c #E52424",
"                ",
".++++++++++++++ ",
".+++++++++++++@ ",
".++++++++++++@+ ",
".++++++++++++@+ ",
".++++@@+++++@++ ",
".+++@++@+++@+++ ",
".++@++++@+@++++ ",
".++@+++++@+++++ ",
".+@++++++++++++ ",
".@+++++++++++++ ",
".++++++++++++++ ",
".++++++++++++++ ",
".++++++++++++++ ",
"............... ",
"                "};
