/* XPM */
static char * mini_heatmap_xpm[] = {
"16 16 11 1",
" 	c #FF0606",
".	c #FF9E9E",
"+	c #FFFFFF",
"@	c #FF8C8C",
"#	c #A1AEFF",
"$	c #FF7575",
"%	c #C7C4FF",
"&	c #665EFF",
"*	c #A6B2FF",
"=	c #FFF2F2",
"-	c #FFF5F5",
"  ..++++++++++++",
"  @.+++##++++..+",
".@  +++##++++..+",
"..  +++$$++++..+",
"++++  +$$++++..+",
"++++  +++%%+++++",
"++++++  +%%+++++",
"+##$$+  ++++++++",
"+##$$+++  ++&&++",
"+++++%%+  ++&&++",
"+++++%%+++  **++",
"++++++++++  **++",
"++++++=-&&**  ++",
"+....+++&&**  ++",
"+....+++++++++  ",
"++++++++++++++  "};
