/* XPM */
static char * mini_split_h_xpm[] = {
"16 16 15 1",
" 	c None",
".	c #FFFFFF",
"+	c #909090",
"@	c #8F8F8F",
"#	c #969696",
"$	c #050505",
"%	c #939393",
"&	c #070707",
"*	c #000000",
"=	c #8E8E8E",
"-	c #ABABAB",
";	c #181818",
">	c #121212",
",	c #171717",
"'	c #A1A1A1",
"................",
"................",
".......+@.......",
"......#$$%......",
".....%&**&=.....",
"....-;>,,>,'....",
"................",
"                ",
"                ",
"................",
"....-;>,,>,'....",
".....%&**&=.....",
"......#$$%......",
".......+@.......",
"................",
"................"};
