/* XPM */
static char *mini_winlist_xpm[] = {
/* columns rows colors chars-per-pixel */
"16 16 97 2",
"   c #4F5665",
".  c #59616F",
"X  c #626262",
"o  c gray39",
"O  c #696769",
"+  c gray42",
"@  c #6F6D6F",
"#  c #616571",
"$  c #666976",
"%  c #696D78",
"&  c #6B6E79",
"*  c #6B6E7B",
"=  c #6B717B",
"-  c #6C717B",
";  c #717171",
":  c #6F7381",
">  c #6F7481",
",  c #737986",
"<  c #7B828F",
"1  c #7D828F",
"2  c #7D838F",
"3  c #7D8391",
"4  c #7E8391",
"5  c #7E8491",
"6  c #868487",
"7  c #82878E",
"8  c #88888B",
"9  c #8C8C8F",
"0  c #828897",
"q  c #838B99",
"w  c #909090",
"e  c #949294",
"r  c #969697",
"t  c #989798",
"y  c #9D9D9D",
"u  c #8497BB",
"i  c #9FA6B1",
"p  c #A1A0A1",
"a  c gray66",
"s  c #ACACAC",
"d  c #AEAEAF",
"f  c #AFAFAF",
"g  c #AEAEB0",
"h  c #A9AEB6",
"j  c #AAAFB8",
"k  c #B3B1B8",
"l  c #B0B2BC",
"z  c #B3B6BF",
"x  c gray73",
"c  c #99A9C9",
"v  c #9FB0D0",
"b  c #A3B5D6",
"n  c #B1BFD6",
"m  c #C6C6C9",
"M  c #C8C8C9",
"N  c #D7D7D7",
"B  c #D7D8D7",
"V  c #D2D5D8",
"C  c #DADADA",
"Z  c #DADADB",
"A  c #DBDADB",
"S  c gray86",
"D  c #C2CFE0",
"F  c #C3CFE0",
"G  c #C5D1E1",
"H  c #E0E1E2",
"J  c #E4E4E4",
"K  c #E6E6E4",
"L  c #E7E6E4",
"P  c #E7E7E4",
"I  c #E7E6E7",
"U  c #E7E7E7",
"Y  c #E6E7E9",
"T  c #E6E7EB",
"R  c gray91",
"E  c #EBEBEC",
"W  c #ECECEC",
"Q  c #EDECEC",
"!  c #EDEDEC",
"~  c #ECECED",
"^  c #EDEDEE",
"/  c #F2F1F2",
"(  c #F3F3F2",
")  c #F3F3F3",
"_  c #F5F5F3",
"`  c #F2F3F5",
"'  c #F6F6F7",
"]  c #F6F6F8",
"[  c #F8F8F8",
"{  c #F9F9F8",
"}  c #FBFBFB",
"|  c #FCFCFB",
" . c #F9F9FC",
".. c #FDFDFD",
"X. c #FEFEFD",
"o. c #FEFEFE",
"O. c None",
/* pixels */
"O.x f f f f f f a y y s O.O.O.O.",
"w J B N N N N C M g d m + O.O.O.",
"6 k k k k k k k k k k k o O.O.O.",
"8 / I U U U U U U U R ) X O.O.O.",
"9 [ W E ~ ~ ~ ~ ~ ~ ^ ] @ O.O.O.",
"w o.( h D F F F F F G n c v b   ",
"e o.{ i u u u u u u u u u u u . ",
"r o.o.j V S Z Z Z Z Z Z Z A T # ",
"t o.o.l H P K K K K K K K L ` $ ",
"p o.o.z Y ! W W W W W W W Q  .% ",
"O.; O 7 ' _ ) ) ) ) ) ) ) ) o.& ",
"O.O.O.- o.| } } } } } } } } o.= ",
"O.O.O.> o.X.................o.* ",
"O.O.O., o.o.o.o.o.o.o.o.o.o.o.: ",
"O.O.O.O.0 < 1 1 1 2 3 3 4 5 q O.",
"O.O.O.O.O.O.O.O.O.O.O.O.O.O.O.O."
};
