/* XPM */
static char * mini_heatmap_xpm[] = {
"16 16 6 1",
" 	c #FF0606",
".	c #A1AEFF",
"+	c #C7C4FF",
"@	c #FF9E9E",
"#	c #FFFFFF",
"$	c #2117E5",
"    ....++++@@@@",
"    ....++++@@@@",
"    ....++++@@@@",
"    ....++++@@@@",
"....    ####$$$$",
"....    ####$$$$",
"....    ####$$$$",
"....    ####$$$$",
"++++####    ####",
"++++####    ####",
"++++####    ####",
"++++####    ####",
"@@@@$$$$####    ",
"@@@@$$$$####    ",
"@@@@$$$$####    ",
"@@@@$$$$####    "};
