/* XPM */
static char * mini_dbnomics_xpm[] = {
"16 16 35 1",
" 	c None",
".	c #12323D",
"+	c #567768",
"@	c #618373",
"#	c #AAD4BA",
"$	c #B1DBC1",
"%	c #97BEA8",
"&	c #537365",
"*	c #517163",
"=	c #557567",
"-	c #B3DDC2",
";	c #527264",
">	c #547566",
",	c #AED8BE",
"'	c #A9D1B8",
")	c #A5CCB4",
"!	c #95BCA6",
"~	c #B2DCC2",
"{	c #ACD5BC",
"]	c #A9D2B9",
"^	c #AFD9BF",
"/	c #B0DAC0",
"(	c #557667",
"_	c #5E7F6F",
":	c #A8D1B8",
"<	c #B2DCC1",
"[	c #547466",
"}	c #91B7A1",
"|	c #B3DDC3",
"1	c #5C7D6D",
"2	c #678979",
"3	c #ABD5BB",
"4	c #5B7C6D",
"5	c #9AC1AA",
"6	c #B2DDC3",
"................",
"................",
"................",
"+@#$%%&.*=%-$$%.",
";>..%$%.*;...%,.",
"**...$$.**....'.",
"**...$$.**...%).",
"**...$$.*&!~{]&.",
"**...$$.*;...^/.",
"**...$$.**....$.",
"**...$$.**....$.",
"(_:<$$%.*[}|$$$.",
"123$%%&.*456$$%.",
"................",
"................",
"................"};
