/* XPM */
static char * mini_split_v_xpm[] = {
"16 16 17 1",
" 	c None",
".	c #FFFFFF",
"+	c #B5B5B5",
"@	c #FAFAFA",
"#	c #ABABAB",
"$	c #939393",
"%	c #181818",
"&	c #969696",
"*	c #070707",
"=	c #121212",
"-	c #909090",
";	c #050505",
">	c #000000",
",	c #171717",
"'	c #8F8F8F",
")	c #8E8E8E",
"!	c #A1A1A1",
".......++.......",
".......++.......",
".......++.......",
".......++.......",
"....@#.++.#.....",
"....$%.++.%$....",
"...&*=.++.=*&...",
"..-;>,.++.,>;-..",
"..';>,.++.,>;'..",
"..@$*=.++.=*$...",
"....),.++.,)....",
".....!.++.!.....",
".......++.......",
".......++.......",
".......++.......",
".......++......."};
