/* XPM */
static char * mini_en_xpm[] = {
"16 16 77 1",
" 	c None",
".	c #CF142B",
"+	c #D0142B",
"@	c #B51535",
"#	c #871847",
"$	c #861848",
"%	c #BF1531",
"&	c #00227D",
"*	c #00217C",
"=	c #00217D",
"-	c #00227E",
";	c #A5173C",
">	c #861847",
",	c #294692",
"'	c #6479B0",
")	c #2C4994",
"!	c #0C2C83",
"~	c #687DB2",
"{	c #5067A5",
"]	c #00207C",
"^	c #213E8E",
"/	c #0C2F85",
"(	c #841646",
"_	c #6D81B5",
":	c #FFFFFF",
"<	c #7689B9",
"[	c #1F3D8D",
"}	c #FAFBFD",
"|	c #001474",
"1	c #586FAA",
"2	c #244492",
"3	c #98A5CA",
"4	c #223F8E",
"5	c #102F85",
"6	c #7689BA",
"7	c #536BA8",
"8	c #244392",
"9	c #8091BE",
"0	c #001274",
"a	c #001E7A",
"b	c #22408E",
"c	c #E8EBF3",
"d	c #435DA0",
"e	c #576DAA",
"f	c #D3D9E8",
"g	c #38539A",
"h	c #D3D9E9",
"i	c #A3B0D0",
"j	c #344F98",
"k	c #B2BDD8",
"l	c #B9C1DB",
"m	c #8796C1",
"n	c #001D7A",
"o	c #B0BAD7",
"p	c #A4B1D1",
"q	c #B3BDD9",
"r	c #6075AE",
"s	c #405A9E",
"t	c #203D8D",
"u	c #B9C3DC",
"v	c #1B398A",
"w	c #ADB8D5",
"x	c #1B398B",
"y	c #BBC4DD",
"z	c #FBFCFD",
"A	c #062780",
"B	c #0F3085",
"C	c #0A2B82",
"D	c #02237E",
"E	c #103186",
"F	c #0B2B83",
"G	c #092A82",
"H	c #00247F",
"I	c #00227F",
"J	c #C6152F",
"K	c #CB142D",
"L	c #CA152D",
"..++++++++++++..",
".@###########$%.",
"+#&***=&**&&*-;.",
"+>,''')!~{]^'/;.",
"+(_:::<[:}|1:2;.",
"+(_:3454::67:8;.",
"+(_:90ab::cd:8;.",
"+(_:::e4:f:g:8;.",
"+(_:hij4:k:l:8;.",
"+(_:mn]b:op::8;.",
"+(_:qrst:uv::8;.",
"+(_:::wx:y*z:2;.",
"+>ABBBCDEF&GBH;.",
"+$-----------I;.",
".%;;;;;;;;;;;;J.",
"KLLLLLLLLLLLLLLL"};
