/* XPM */
static char *mini_spreadsheet_xpm[] = {
/* columns rows colors chars-per-pixel */
"16 16 146 2",
"   c #2E3135",
".  c #2E3235",
"X  c #2F3236",
"o  c #2F3338",
"O  c #3B3E42",
"+  c #3B3F43",
"@  c #3C3F43",
"#  c #656E78",
"$  c #6E7073",
"%  c #727477",
"&  c #717880",
"*  c #777C82",
"=  c #7E8389",
"-  c #7E848A",
";  c #84878B",
":  c #878C92",
">  c #888D93",
",  c #898D93",
"<  c #8B9096",
"1  c #909396",
"2  c #909397",
"3  c #919497",
"4  c #949698",
"5  c #90969D",
"6  c #989B9E",
"7  c #969AA0",
"8  c #969BA2",
"9  c #989DA3",
"0  c #9A9EA3",
"q  c #999EA5",
"w  c #9A9EA4",
"e  c #9A9FA5",
"r  c #9BA0A6",
"t  c #9DA0A4",
"y  c #9CA0A6",
"u  c #9CA1A6",
"i  c #9DA1A6",
"p  c #9DA1A7",
"a  c #9CA1A8",
"s  c #9DA2A8",
"d  c #9DA3A9",
"f  c #9EA3A9",
"g  c #9FA3A9",
"h  c #9EA3AA",
"j  c #9FA4AA",
"k  c #A0A2A6",
"l  c #A0A5AB",
"z  c #A2A6AB",
"x  c #A4A7AB",
"c  c #A1A6AC",
"v  c #A2A7AD",
"b  c #A2A7AE",
"n  c #A7AAAE",
"m  c #A7ABAF",
"M  c #A8ABAE",
"N  c #A7ABB1",
"B  c #A9ACB0",
"V  c #AAADB1",
"C  c #ABAEB1",
"Z  c #AAAEB2",
"A  c #ACAFB2",
"S  c #ABAFB4",
"D  c #AFB2B6",
"F  c #AEB3B8",
"G  c #B0B3B6",
"H  c #B1B4B7",
"J  c #B0B3B8",
"K  c #B1B4B8",
"L  c #B0B4B9",
"P  c #B0B5BA",
"I  c #B1B5BB",
"U  c #B2B6BB",
"Y  c #B4B7BA",
"T  c #B4B7BB",
"R  c #B3B7BC",
"E  c #B6B9BC",
"W  c #B6B9BD",
"Q  c #B7BABD",
"!  c #B7BABE",
"~  c #B8BBBE",
"^  c #B9BBBE",
"/  c #B9BCC1",
"(  c #BABDC0",
")  c #BBBEC1",
"_  c #BBBEC2",
"`  c #BCBFC2",
"'  c #BCBFC3",
"]  c #BCC0C4",
"[  c #BDC0C4",
"{  c #BEC1C4",
"}  c #BFC2C6",
"|  c #BFC3C7",
" . c #C0C3C6",
".. c #C0C3C7",
"X. c #C0C3C8",
"o. c #C1C4C8",
"O. c #C3C5C8",
"+. c #C2C5C9",
"@. c #C3C6CA",
"#. c #C4C7CA",
"$. c #C4C7CB",
"%. c #C5C8CC",
"&. c #CBCBCB",
"*. c #CFCFCF",
"=. c #D1D1D1",
"-. c #D2D2D2",
";. c #D3D3D3",
":. c #D4D4D4",
">. c #D5D5D5",
",. c #D6D6D6",
"<. c #D6D7D8",
"1. c #D9D9D9",
"2. c #DADADA",
"3. c #DBDBDB",
"4. c #DADCDE",
"5. c #DCDCDC",
"6. c #DDDDDD",
"7. c #DDDEDF",
"8. c #E1E1E1",
"9. c #E3E3E3",
"0. c #E2E3E4",
"q. c #E4E4E4",
"w. c #E5E5E5",
"e. c #E7E8E8",
"r. c #E9E9E9",
"t. c #EAEAEA",
"y. c #EAEBEB",
"u. c #EBEBEB",
"i. c #ECECEC",
"p. c #EDEDED",
"a. c #EDEEEE",
"s. c #EEEEEE",
"d. c #EFEFF0",
"f. c #EFF0F1",
"g. c #F0F1F1",
"h. c #F2F2F2",
"j. c #F2F2F3",
"k. c #F3F3F3",
"l. c #F3F3F4",
"z. c #F4F4F4",
"x. c #F5F5F5",
"c. c #F6F6F6",
"v. c #F7F7F7",
"b. c #F9F9F9",
"n. c #FAFAFA",
"m. c None",
/* pixels */
"m.m.m.m.m.m.m.m.m.m.m.m.m.m.m.m.",
"m.m.b f.l.j.h.d.p.y.e.0.7.<.n m.",
"m.m.U # ~ 6 ~ f 2 U u A M u 1.@ ",
"m.m.R & | n } j Z _ u W n q >.+ ",
"m.m.U 0 n.n.x.#.h.p.^ 9.7.D =.+ ",
"m.m.U - %.#.@.j { ' r ~ Y 8 :.@ ",
"m.m.U , #.@.@.f ' ' q ~ W 9 1.@ ",
"m.m.D < x.h.p._ u.y.' u.y.' 8.@ ",
"m.m.A , } } ' u ' ' j X.@.b y.+ ",
"m.m.z 2 =.1.8._ i.k.#.x.x.#.u.+ ",
"m.m.l * Z G W u o.#.b ' N 5 O.m.",
"m.m.f , Z G ~ f @.#.z 4.h.>.% m.",
"m.m.q ; =.3.w. .x.x., k.5.4 m.m.",
"m.m.x 9 A H ~ G @.@.= 7.4 m.m.m.",
"m.m.6 &.*.>.7.q.y.u.k $ m.m.m.m.",
"m.m.m.o         X   m.m.m.m.m.m."
};
