/* XPM */
static char * mini_join_h_xpm[] = {
"16 16 20 1",
" 	c None",
".	c #74A3F9",
"+	c #FFFFFF",
"@	c #F9F9F9",
"#	c #F5F5F5",
"$	c #6486EC",
"%	c #5678DC",
"&	c #F3F3F3",
"*	c #4264C8",
"=	c #EBEBEB",
"-	c #ECECEC",
";	c #3052B5",
">	c #2446AB",
",	c #E3E3E3",
"'	c #2345AF",
")	c #E1E1E1",
"!	c #2A4CBE",
"~	c #3557D2",
"{	c #2F49AB",
"]	c #3F61E5",
"............... ",
".+++++++++++++. ",
".++++@++++++@+. ",
".+@@+@@@@@@@@+. ",
".@#@@@#@@@@@@@. ",
".@@@@#@@@#@#@@. ",
"$$$$$$$$$$$$$$$ ",
"%#&&&&&&&&&&##% ",
"*&==-====----&* ",
";-==-#&&&#-==-; ",
">-,=#>>>>>&,,-> ",
"'=))=&&&&&=),=' ",
"!=)))))))))))=! ",
"~==,=,,==,=,==~ ",
"{]]]]]]]]]]]]]{ ",
"                "};
