/* XPM */
static char *mini_dbnomics[] = {
/* columns rows colors chars-per-pixel */
"16 16 36 1 ",
"  c #517163",
". c #527264",
"X c #537365",
"o c #547466",
"O c #547566",
"+ c #557567",
"@ c #557667",
"# c #567768",
"$ c #5B7C6D",
"% c #5C7D6D",
"& c #5E7F6F",
"* c #618373",
"= c #678979",
"- c #91B7A1",
"; c #95BCA6",
": c #97BEA8",
"> c #9AC1AA",
", c #9CC1AA",
"< c #A5CCB4",
"1 c #A8D1B8",
"2 c #A9D1B8",
"3 c #A9D2B9",
"4 c #AAD4BA",
"5 c #ABD5BB",
"6 c #ACD5BB",
"7 c #ACD5BC",
"8 c #AED8BE",
"9 c #AFD9BF",
"0 c #B0DAC0",
"q c #B1DBC1",
"w c #B2DCC1",
"e c #B2DCC2",
"r c #B3DDC2",
"t c #B2DDC3",
"y c #B3DDC3",
/* "u c None",*/
"u c #12323D",
/* pixels */
"uuuuuuuuuuuuuuuu",
"uuuuuuuuuuuuuuuu",
"uuuuuuuuuuuuuuuu",
"#*4qqquuu+:rqquu",
".Ouuqquuu.uuu68u",
"  uuuqquu uuuu2u",
"  uuuqquu uuu,<u",
"  uuuqquuX;e73uu",
"  uuuqquu.uuu90u",
"  uuuqquu uuuuqu",
"  uuuqquu uuuuqu",
"@&1wqquuuo-yqqqu",
"%=5quuuuu$>tqquu",
"uuuuuuuuuuuuuuuu",
"uuuuuuuuuuuuuuuu",
"uuuuuuuuuuuuuuuu"
};
