/* XPM */
static char *mini_db_xpm[] = {
/* columns rows colors chars-per-pixel */
"16 16 141 2",
"   c #474747",
".  c #474748",
"X  c #4B4C4C",
"o  c #4B4C4D",
"O  c #4D4E4E",
"+  c #535454",
"@  c #545555",
"#  c #565858",
"$  c #575858",
"%  c #616363",
"&  c #626363",
"*  c #626464",
"=  c #636464",
"-  c #656565",
";  c #646767",
":  c #656767",
">  c #686868",
",  c #686969",
"<  c #6B6D6D",
"1  c #6E6F6F",
"2  c #6F7171",
"3  c #737575",
"4  c #757777",
"5  c #767678",
"6  c #787979",
"7  c #797979",
"8  c #787A7A",
"9  c #797A7A",
"0  c #7A7A7A",
"q  c #7D7D7F",
"w  c #7C7E7E",
"e  c #7E8080",
"r  c #808282",
"t  c #818383",
"y  c #898B8B",
"u  c #8A8A8C",
"i  c #8E8E8E",
"p  c #8E8E90",
"a  c #919191",
"s  c #919193",
"d  c #939494",
"f  c #949495",
"g  c #949496",
"h  c #949596",
"j  c #959696",
"k  c #969797",
"l  c #989797",
"z  c #969798",
"x  c #979898",
"c  c #979899",
"v  c #999898",
"b  c #999A9A",
"n  c #9A9B9B",
"m  c #9C9D9D",
"M  c #9C9C9F",
"N  c #9F9F9F",
"B  c #A0A0A0",
"V  c #A0A0A2",
"C  c #A1A2A2",
"Z  c #A0A3A3",
"A  c #A4A6A6",
"S  c #A7A8A9",
"D  c #ABADAD",
"F  c #ACADAE",
"G  c #ADAEAE",
"H  c #ADAFAF",
"J  c #AEAFAF",
"K  c #AEB0AF",
"L  c #ADAFB0",
"P  c #B0B1B1",
"I  c #B0B2B2",
"U  c #B1B2B3",
"Y  c #B1B3B3",
"T  c #B2B3B3",
"R  c #B1B3B4",
"E  c #B2B3B5",
"W  c #B2B4B5",
"Q  c #B3B5B6",
"!  c #B4B5B5",
"~  c #B5B5B5",
"^  c #B4B5B6",
"/  c #B5B6B6",
"(  c #B5B6B7",
")  c #B5B7B7",
"_  c #B7B7BA",
"`  c #B6B8B8",
"'  c #B7B8B8",
"]  c #B7BABA",
"[  c #B8B8B9",
"{  c #B9BBBB",
"}  c #BABBBB",
"|  c #BBBBBE",
" . c #BBBCBE",
".. c #BDBDBD",
"X. c #BEBFC1",
"o. c #BEBFC2",
"O. c #BFC0C0",
"+. c #C2C2C2",
"@. c #C3C3C4",
"#. c #C5C5C5",
"$. c #C5C6C6",
"%. c #C5C6C7",
"&. c #C6C6C6",
"*. c #C5C5C8",
"=. c #C6C7C9",
"-. c #C8C8C9",
";. c #C8C9CA",
":. c #CBCACA",
">. c #CBCBCB",
",. c #CACBCD",
"<. c #CBCBCD",
"1. c #CBCDCD",
"2. c #CBCCCE",
"3. c #CDCDCF",
"4. c #CFCECE",
"5. c #CECECF",
"6. c #CFCFCF",
"7. c #CFD0D2",
"8. c #D1D1D2",
"9. c #D2D2D4",
"0. c #D7D7D7",
"q. c #D6D7D8",
"w. c #DBDBDB",
"e. c #DBDCDC",
"r. c #DCDCDC",
"t. c #DCDDDD",
"y. c #DDDEDE",
"u. c #DFDFDF",
"i. c #DFE0E0",
"p. c #E7E7E7",
"a. c #F0F1F1",
"s. c #F5F5F6",
"d. c #F8F8F9",
"f. c #F9F9F9",
"g. c #FCFCFB",
"h. c #FBFCFC",
"j. c #FCFDFC",
"k. c #FDFDFD",
"l. c #FEFEFE",
"z. c #FFFFFF",
"x. c None",
/* pixels */
"x.x.x.x.x.x.x.x.x.x.x.x.x.x.x.x.",
"x.x.x.x.&.I Z W w.u.1.' x.x.x.x.",
"x.x.5.9.8.3.;.&.'  .&.>.6.>.x.x.",
"x.x.W | O.q.a.p.g 4 y A &.{ x.x.",
"x.x.( _ =.s.g.r.K e % 3 K / x.x.",
"x.x.W  .,.d.j.r.D e = 7 ( ( x.x.",
"x.x.c 5 g -.r.&.c 2 $ = 7 v x.x.",
"x.x.L M u g M i - X + 1 N Y x.x.",
"x.x.( | 1.d.h.w.F t : 0 ( / x.x.",
"x.x.E X.1.d.j.u.F e % 7 ! T x.x.",
"x.x.z 5 s @.0.+.g < $ % 0 v x.x.",
"x.x.E B p c B p , O @ 2 Z / x.x.",
"x.x.S X.1.d.j.w.I t , 4 ' F x.x.",
"x.x.d =.7.h.j.p.K e ; w O.n x.x.",
"x.x.x.. q [ 6...d , O X   x.x.x.",
"x.x.x.x.x.x.x.x.x.x.x.x.x.x.x.x."
};
