/* XPM */
static char * mini_func_xpm[] = {
"16 16 16 1",
" 	c None",
".	c None",
"+	c #999999",
"@	c #777777",
"#	c #AAAAAA",
"$	c #BBBBBB",
"%	c #DDDDDD",
"&	c #000000",
"*	c #EEEEEE",
"=	c #CCCCCC",
"-	c #222222",
";	c #333333",
">	c #888888",
",	c #444444",
"'	c #555555",
")	c #111111",
"................",
"................",
"................",
"....+@#$........",
"...%&*=.........",
"...@-...........",
"..@--@$.*@;*.@-%",
"...&>...%.,@@$..",
"..$&$.....#&=...",
"..@&......#-$...",
"..';....*+=+,.=.",
"..)@...=)#.*)@*.",
"*%&%............",
"@'#.............",
"................",
"................"};
