/* XPM */
static char *mini_table_xpm[] = {
/* columns rows colors chars-per-pixel */
"16 16 198 2 ",
"   c #504C54",
".  c #76727A",
"X  c #45C01E",
"o  c #4DC41E",
"O  c #4EC41F",
"+  c #4CCB1C",
"@  c #66CA1B",
"#  c #6CCD1B",
"$  c #6CCD1C",
"%  c #6DCD1E",
"&  c #6DCE1F",
"*  c #69D517",
"=  c #4FC325",
"-  c #4FC424",
";  c #4FC425",
":  c #50C420",
">  c #50C422",
",  c #53C62A",
"<  c #54C634",
"1  c #6CCD20",
"2  c #6CCD22",
"3  c #6DCE24",
"4  c #6DCE30",
"5  c #71D533",
"6  c #5EC668",
"7  c #73D363",
"8  c #83DE2C",
"9  c #4591BD",
"0  c #64C999",
"q  c #77D394",
"w  c #4FA9DB",
"e  c #5BAAD6",
"r  c #58B1DE",
"t  c #58B1DF",
"y  c #5FB0DE",
"u  c #61AED8",
"i  c #62AED8",
"p  c #6DB1DB",
"a  c #69B1DE",
"s  c #7BB8DC",
"d  c #4AA8E0",
"f  c #4DAEE1",
"g  c #4FADE3",
"h  c #5EB4E0",
"j  c #61B2E0",
"k  c #66BAE9",
"l  c #6FC3EE",
"z  c #79C0E4",
"x  c #79C0E8",
"c  c #8B8991",
"v  c #8C8991",
"b  c #9A8E93",
"n  c #9A989F",
"m  c #A19DA4",
"M  c #A19EA6",
"N  c #96A7B4",
"B  c #A7A4AA",
"V  c #ADA6AD",
"C  c #ABABAF",
"Z  c #BBA9A9",
"A  c #ADAAB1",
"S  c #ACABB1",
"D  c #AEADB1",
"F  c #B6AFB1",
"G  c #B0ACB4",
"H  c #B7B1B1",
"J  c #B6B0B6",
"K  c #BBBCBF",
"L  c #C1BABD",
"P  c #C1DD8F",
"I  c #C2DD8F",
"U  c #C1DD91",
"Y  c #C2DD90",
"T  c #C1DD92",
"R  c #C2E38E",
"E  c #C6E290",
"W  c #CCC6BF",
"Q  c #81BCDE",
"!  c #83BFDE",
"~  c #BDB2C6",
"^  c #BCBDC0",
"/  c #C0BDC0",
"(  c #B7C8D4",
")  c #B8CAD5",
"_  c #BED2DB",
"`  c #80C0E3",
"'  c #81C0E3",
"]  c #83C1E2",
"[  c #88C3E4",
"{  c #8EC6E4",
"}  c #8EC6E6",
"|  c #82C3E8",
" . c #8CC9EB",
".. c #8ECCEE",
"X. c #93C7E5",
"o. c #91CBE8",
"O. c #9FCFEA",
"+. c #9DD1E7",
"@. c #9FD0EB",
"#. c #9BD3EE",
"$. c #9AD4EE",
"%. c #A0D3E9",
"&. c #A4D6EE",
"*. c #A5D7EE",
"=. c #B1DCFF",
"-. c #B2DCFF",
";. c #A7E5FF",
":. c #AEE5FB",
">. c #CBC8C4",
",. c #C8C2CF",
"<. c #CBC8CC",
"1. c #CBC8CD",
"2. c #CBC8CF",
"3. c #CCC8CF",
"4. c #CECBCE",
"5. c #CACCD0",
"6. c #CCCFD2",
"7. c #D3CDD2",
"8. c #CFD1D4",
"9. c #CFD3D9",
"0. c #CAD7DF",
"q. c #D0D0D3",
"w. c #D7D3D2",
"e. c #D8D2D2",
"r. c #D8D3D3",
"t. c #D8D4D3",
"y. c #D6D7DA",
"u. c #D7D8D9",
"i. c #D8D9DB",
"p. c #DBD9DB",
"a. c gray86",
"s. c #D9DBDC",
"d. c #D9DBDD",
"f. c #DBDDDE",
"g. c #E1D8D6",
"h. c #E5DEDA",
"j. c #E6DEDB",
"k. c #EBDED9",
"l. c #F0DFD7",
"z. c #F2DFD9",
"x. c #E5E0DD",
"c. c #E5E0DE",
"v. c #EDE0D9",
"b. c #F0E1D9",
"n. c #F5E3D9",
"m. c #FDE6D9",
"M. c #CEDBE1",
"N. c #CFDAE3",
"B. c #DBDFE1",
"V. c #DDDDE1",
"C. c #E0DFE0",
"Z. c #DAE3E9",
"A. c #DCE4E8",
"S. c #DEE6ED",
"D. c #DFE7ED",
"F. c #E1E0E2",
"G. c #E1E1E2",
"H. c #E0E3E5",
"J. c #E8E3E1",
"K. c #E9E3E2",
"L. c #E8E4E1",
"P. c #EAE4E2",
"I. c #E8E7E7",
"U. c #EAE8EB",
"Y. c #EBE9EB",
"T. c #EDE9E8",
"R. c #EEE9E8",
"E. c #EDEAE8",
"W. c #EAECEA",
"Q. c #EEEBEC",
"!. c #EAECEC",
"~. c #EDEFEE",
"^. c #EEEFEE",
"/. c #EEEFEF",
"(. c #F2EBE8",
"). c #F4EBE8",
"_. c #F3ECE8",
"`. c #F6EDE9",
"'. c #F4EBEC",
"]. c #F3ECEC",
"[. c #F4EDEC",
"{. c #F8EEE9",
"}. c #FFF3E9",
"|. c #EAEBFF",
" X c #EAECFF",
".X c #F9EEFF",
"XX c #F0F1F1",
"oX c #FAF8F5",
"OX c #FBF8F5",
"+X c #FAF0FF",
"@X c #FBF0FF",
"#X c #FFF2FF",
"$X c #FFF3FF",
"%X c #FBF9FA",
"&X c #FDFBFB",
"*X c #FFFEFF",
"=X c gray100",
"-X c None",
/* pixels */
"-X4.4.2.4.W <.<.2.2.>.<.2.2.7.-X",
",.R T T I I I U U U U U U U E ~ ",
",.8 @ % 3 q & 1 2 $ 7 4 $ 3 * ~ ",
",.5 X : , 0 > - = : 6 < o = + ~ ",
",.*X.X#X|.=.#X.X.X#X=. X#X.X*X~ ",
"^ %XY.'.D.*.'.Q.Q.'.*.D.].Y.&XG ",
"L OXR.`.A.@.`.T.T.(.O.Z._.I.oXV ",
"L f w y j f z x |  .l ..$.$.;.V ",
"J ~.V.P.N.{ L.F.F.J.{ M.L.V.XXm ",
"S !.f.j.0.' x.f.f.x.' 0.x.d./.n ",
"Z }.b.m.d.Q n.v.k.z.s 9.z.g.{.b ",
"Z h e p a d ! ] [ X.k o.+.+.:.b ",
"m V.5.w.( i w.q.8.r.i ) t.6.H.c ",
"B !.i.h._ r h.d.p.h.r _ j.i.~.v ",
"B K C H N 9 F D D F 9 N H S ^ v ",
"-X. . . . . . . . . . . . . .   "
};
