/* XPM */
static char *mini_pdf_xpm[] = {
/* columns rows colors chars-per-pixel */
"16 16 9 1",
"  c black",
". c #C6C3C6",
"X c red",
"o c gray100",
"O c gray100",
"+ c black",
"@ c black",
"# c black",
"$ c None",
/* pixels */
"ooo           oo",
"ooo ........ X o",
"           . XX ",
" XXXXXXXXX .    ",
" XXXXXXXXX .... ",
"           .... ",
"ooo ....XX..... ",
"ooo .....X..... ",
"ooo .....X..... ",
"ooo ....X.X.... ",
"ooo ....X..X... ",
"ooo ...XXXXXXXX ",
"ooo ..XX.....XX ",
"ooo .XX........ ",
"ooo XX......... ",
"ooo             "
};
