/* XPM */
static char *mini_model_xpm[] = {
/* columns rows colors chars-per-pixel */
"16 16 16 1",
"  c black",
". c #111111",
"X c #222222",
"o c gray20",
"O c #444444",
"+ c #555555",
"@ c gray40",
"# c #777777",
"$ c #888888",
"% c gray60",
"& c #aaaaaa",
"* c #bbbbbb",
"= c gray80",
"- c #dddddd",
"; c #eeeeee",
": c none",
/* pixels */
"::::::::::::::::",
":::::::# *::::::",
"::::::=@=+::::::",
"::::::::::::::::",
"::::::=X %::::::",
":::::-@:* ::::::",
":::::@%:-O::::::",
":::::.=-@;::::::",
"::::- $o@;::::::",
"::::&O::OO::::::",
"::::##::; ::::::",
"::::O%::$#::::::",
"::::.O.o%:::::::",
":::- :::::::::::",
":::&O:::::::::::",
"::::::::::::::::"
};
