/* XPM */
static char *mini_page_xpm[] = {
/* columns rows colors chars-per-pixel */
"16 16 55 1 ",
"  c gray58",
". c #959595",
"X c gray60",
"o c #A5A5A5",
"O c #AAAAAA",
"+ c #ACACAC",
"@ c #AEAEAE",
"# c #AFAFAF",
"$ c #B1B1B1",
"% c #B4B4B4",
"& c gray72",
"* c gray73",
"= c #BCBCBC",
"- c gray74",
"; c gray",
": c #C0C0C0",
"> c gray76",
", c #C3C3C3",
"< c #C6C6C6",
"1 c gray78",
"2 c #C8C8C8",
"3 c #CACACA",
"4 c #CBCBCB",
"5 c #CDCDCD",
"6 c #CECECE",
"7 c gray81",
"8 c LightGray",
"9 c gray83",
"0 c #D5D5D5",
"q c gray84",
"w c #D7D7D7",
"e c gray85",
"r c gray86",
"t c #DDDDDD",
"y c #E6E6E6",
"u c #E7E7E7",
"i c #E9E9E9",
"p c #EAEAEA",
"a c #ECECEC",
"s c gray93",
"d c #EFEFEF",
"f c gray94",
"g c #F1F1F1",
"h c gray95",
"j c #F3F3F3",
"k c #F4F4F4",
"l c gray96",
"z c #F6F6F6",
"x c gray97",
"c c #F8F8F8",
"v c #F9F9F9",
"b c gray98",
"n c #FBFBFB",
"m c gray99",
"M c None",
/* pixels */
"MMMMMMMMMMMMMMMM",
"MMnnnnmmmmn MMMM",
"MMnhzzzhdinu MMM",
"MMmznzzhhimzzXMM",
"MMmn;*%#OommnmMM",
"MMmnmmnzhhdiunMM",
"MMmm1>;*%$#OdmMM",
"MMmmmmmmnnzhhmMM",
"MMmm731>;;**znMM",
"MMmmnmmnnnnznnMM",
"MMmm99773111nmMM",
"MMmmmmmmnnnnnmMM",
"MMmmtrr99999nnMM",
"MMmmmmnmmmmmnnMM",
"MMnnmmmmmmmmnnMM",
"MMMMMMMMMMMMMMMM"
};
