/* XPM */
static char * mini_sh_xpm[] = {
"16 16 4 1",
" 	c None",
".	c #91989D",
"+	c #FFFFFF",
"@	c #000000",
"................",
"................",
".++++++++++++++.",
".@@++++++++++++.",
".+@@+++++++++++.",
".@@++@@@+++++++.",
".++++++++++++++.",
".++++++++++++++.",
".++++++++++++++.",
".++++++++++++++.",
".++++++++++++++.",
".++++++++++++++.",
".++++++++++++++.",
".++++++++++++++.",
".++++++++++++++.",
"................"};
