/* XPM */

/* 
Artist: Yusuke Kamiyamane
Iconset: Fugue Icons (3560 icons)
License: CC Attribution 4.0 
  http://creativecommons.org/licenses/by/4.0/
*/

static char *mini_split_h_xpm[] = {
/* columns rows colors chars-per-pixel */
"16 16 36 1 ",
"  c #2446AB",
". c #2345AF",
"X c #2F49AB",
"o c #2A4CBE",
"O c #3052B5",
"+ c #3557D2",
"@ c #3F61E5",
"# c #4264C8",
"$ c #5678DC",
"% c #6486EC",
"& c #E1E1E1",
"* c gray89",
"= c #E6E6E6",
"- c #E7E7E7",
"; c #E9E9E9",
": c #EAEAEA",
"> c gray92",
", c #ECECEC",
"< c gray93",
"1 c #EFEFEF",
"2 c gray94",
"3 c #F1F1F1",
"4 c #F3F3F3",
"5 c #F4F4F4",
"6 c gray96",
"7 c #F6F6F6",
"8 c #F7F7F7",
"9 c #F8F8F8",
"0 c #F9F9F9",
"q c gray98",
"w c #FBFBFB",
"e c gray99",
"r c #FDFDFD",
"t c #FEFEFE",
"y c #FFFFFF",
"u c None",
/* pixels */
"uuuuuuuuuuuuuuuu",
"uyyyyyyyyyyyyyuu",
"uyyyyyyyyyyy0yuu",
"uy00000000000yuu",
"u0600000000000uu",
"u0000606060600uu",
"%%%%%%%%%%%%%%%u",
"$644446y644466$u",
"#4;<<<6#6<<<;4#u",
"O4;;<60O06<;;4Ou",
" ;==6     4==< u",
".;**;40.04;**;.u",
"o;****<o<****;ou",
"+;==;=<6<==;=;+u",
"X@@@@@@@@@@@@@Xu",
"uuuuuuuuuuuuuuuu"
};
