/* XPM */
static char *mini_bundle_xpm[] = {
/* columns rows colors chars-per-pixel */
"16 16 79 1 ",
"  c #8F5902",
". c #8F5A02",
"X c #8F5A03",
"o c #8F5A04",
"O c #905A02",
"+ c #915A02",
"@ c #905A03",
"# c #915A03",
"$ c #925C03",
"% c #905B04",
"& c #905A05",
"* c #925E06",
"= c #965E04",
"- c #956009",
"; c #99620C",
": c #956312",
"> c #9F6E1F",
", c #A7711B",
"< c #AF781E",
"1 c #B78331",
"2 c #B1843D",
"3 c #C88B2A",
"4 c #CD8F2E",
"5 c #D29739",
"6 c #AF8A4C",
"7 c #BF9C63",
"8 c #CA9749",
"9 c #D79E44",
"0 c #D49E4B",
"q c #DBA54E",
"w c #DBAB5F",
"e c #E0AC59",
"r c #D4A963",
"t c #D5AC6A",
"y c #D8AE6B",
"u c #DBAF6A",
"i c #DCB06C",
"p c #C8A876",
"a c #D2AE77",
"s c #DFB778",
"d c #E5B364",
"f c #E9B96E",
"g c #E1BA7D",
"h c #D9BA86",
"j c #D6BC92",
"k c #E5BF84",
"l c #E3C08A",
"z c #E7C48A",
"x c #E4C18C",
"c c #E4C28C",
"v c #EBC892",
"b c #E4C799",
"n c #E2C99F",
"m c #EECD99",
"M c #EFCE99",
"N c #F1D19F",
"B c #DFC7A0",
"V c #E6CFAB",
"C c #EBD1AA",
"Z c #EBD3AC",
"A c #EAD3AF",
"S c #E2D1B7",
"D c #EAD4B1",
"F c #EBD5B2",
"G c #E9D6B7",
"H c #E4D4BA",
"J c #EBDFC9",
"K c #EDE2CF",
"L c #F2E3C9",
"P c #F2E2CA",
"I c #F3EADA",
"U c #EEE9E0",
"Y c #EEEEEC",
"T c #F3ECE2",
"R c #F2F0EB",
"E c #F4F4F2",
"W c #F8F6F3",
"Q c #FAFAF9",
"! c None",
/* pixels */
"!!!!!!!!O!!!!!!!",
"!!!!!!!OSp>O$!!!",
"!:&     QTIGa2$!",
"!oREEEE QHhtyF$!",
"! EYYYY&WKnr3F !",
"! EYYYY67jBVDb !",
"! LUYYYJ81,;<w=!",
"! s440ulCLZxix !",
"! g5555555555g !",
"! k9999999999k !",
"! zqqqqqqqqqqz !",
"! veeeeeeeeeev !",
"! mddddddddddm !",
"! NffffffffffN !",
"! mNNNNNNNNNNmo!",
"!-&O        OO-!"
};
