/* XPM */

/* 
Artist: Yusuke Kamiyamane
Iconset: Fugue Icons (3560 icons)
License: CC Attribution 4.0 
  http://creativecommons.org/licenses/by/4.0/
*/

static char *mini_join_v_xpm[] = {
/* columns rows colors chars-per-pixel */
"16 16 41 1 ",
"  c #2345AB",
". c #2244AC",
"X c #294BAF",
"o c #314AAF",
"O c #2446B2",
"+ c #294BBC",
"@ c #3254B7",
"# c #2F51C8",
"$ c #3C5EC2",
"% c #3658D4",
"& c #3D5FE0",
"* c #486ACE",
"= c #5476DA",
"- c #4163E9",
"; c #5E80E5",
": c #6486EC",
"> c #6587ED",
", c #E1E1E1",
"< c gray89",
"1 c #E6E6E6",
"2 c #E7E7E7",
"3 c #E9E9E9",
"4 c #EAEAEA",
"5 c gray92",
"6 c #ECECEC",
"7 c #EDEDED",
"8 c #EFEFEF",
"9 c #F1F1F1",
"0 c gray95",
"q c #F3F3F3",
"w c gray96",
"e c #F6F6F6",
"r c #F8F8F8",
"t c #F9F9F9",
"y c gray98",
"u c #FBFBFB",
"i c gray99",
"p c #FDFDFD",
"a c #FEFEFE",
"s c #FFFFFF",
"d c None",
/* pixels */
"ddddddd>>>::>>>:",
"dssssss;sssssss=",
"dssssis=sstssss=",
"dsttiti*tststts*",
"dtettet$terreet$",
"dtqeeee@tweeeet@",
"deqqqqeXtttttttX",
"dq8888q.t     i.",
"dq84848.eewwwwe.",
"d824248O8433338O",
"d811118+8111116+",
"d4<<<<4#4<<<<<4#",
"d4<<<<2%2<<<<<3%",
"d411224&4212118%",
"ddddddd--------o",
"dddddddddddddddd"
};
