/* XPM */
static char *mini_tools_xpm[] = {
/* columns rows colors chars-per-pixel */
"16 16 46 1 ",
"  c black",
". c #1D1D1D",
"X c #1F272F",
"o c gray16",
"O c gray19",
"+ c #313131",
"@ c gray21",
"# c #494746",
"$ c #50504F",
"% c gray32",
"& c #4D5F73",
"* c #6C6967",
"= c #6B6A69",
"- c #72706D",
"; c #66798F",
": c #708295",
"> c #7D8C9C",
", c #748AA2",
"< c #788DA4",
"1 c #7C91A7",
"2 c #7D91A7",
"3 c #7F99B3",
"4 c #8A8784",
"5 c #A4A19C",
"6 c #8D99A5",
"7 c #849EB9",
"8 c #849EBA",
"9 c #B1B1B1",
"0 c #C8C7C6",
"q c #CAC8C1",
"w c #D2D0CC",
"e c #D3D2CF",
"r c #CFD6DD",
"t c #D2D1D0",
"y c #D5D4D3",
"u c #D6D5D5",
"i c #DBDAD7",
"p c #DEDBD6",
"a c #D8D8D8",
"s c #DFDEDC",
"d c #E3E2E1",
"f c #EBEBE8",
"g c #ECEBEA",
"h c gray97",
"j c #F9F8F8",
"k c None",
/* pixels */
"kkkkkkkkkkkkkkkk",
"kkkk kkkkkkkk kk",
"kkk q kkkkkk 9 k",
"kkkk f kkkk i kk",
"k kk j kkkO  kkk",
" w  jp kkk Okkkk",
"k wdsi5 .okkkkkk",
"kk    t% .kkkkkk",
"kkkkkk  # kkkkkk",
"kkk   @ 0* kkkkk",
"kk :r1 k u4 kkkk",
"k >r<3Xkk g- kkk",
" 6r,8& kkk u* kk",
" r18& kkkkk t%kk",
" 1;& kkkkkkk  kk",
"k   kkkkkkkkkkkk"
};
