/* XPM */
static char * mini_spreadsheet_xpm[] = {
"16 16 37 1",
" 	c None",
".	c #000000",
"+	c #FFFFFF",
"@	c #C1C1C1",
"#	c #E9E9E9",
"$	c #E0E0E0",
"%	c #AAAAAA",
"&	c #E7E7E7",
"*	c #ECECEC",
"=	c #F1F1F1",
"-	c #ADADAD",
";	c #B0B0B0",
">	c #B4B4B4",
",	c #B8B8B8",
"'	c #DFDFDF",
")	c #CCCCCC",
"!	c #AAB1BE",
"~	c #88A6E2",
"{	c #86A6E7",
"]	c #86A6E6",
"^	c #8AA7E2",
"/	c #86A6E5",
"(	c #87A6E5",
"_	c #95ABD1",
":	c #171C27",
"<	c #89A7E3",
"[	c #8CA8DE",
"}	c #030305",
"|	c #B2B2B2",
"1	c #B1B7C4",
"2	c #B7B7B7",
"3	c #BCBCBC",
"4	c #EAEAEA",
"5	c #E2E2E2",
"6	c #EBEBEB",
"7	c #D9D9D9",
"8	c #C9C9C9",
"................",
".++@++++++++++#.",
".+$%$&&&##***=$.",
".@%%----;>>>,,%.",
".+$-''''''>''').",
".+.-'''''$>$'').",
".+..-;;>!>>,,,-.",
".+...~{{]{,^/(_:",
".+..{{{{{],{{<[}",
".+.|123>,,,,33;.",
".+4|5$'''',''').",
".+6|$$''''3''$).",
".+*>;>,,,3,33@;.",
".+*>''''$$3''').",
".#7%)88)))-))),.",
"................"};
