/* XPM */
static char * mini_session_xpm[] = {
"16 16 9 1",
" 	c None",
".	c #91989D",
"+	c #FFFFFF",
"@	c #333FCC",
"#	c #020000",
"$	c #1AA834",
"%	c #000000",
"&	c #C63527",
"*	c #BC0707",
"................",
"................",
".++++++++++++++.",
".+@@@+###+###++.",
".+@+@+#+#+#$#++.",
".+@@@+###+###++.",
".++++++++++++++.",
".+@@@+%+%+%+%++.",
".+@&@+%%%++%+++.",
".+@@@+*%*+%+%++.",
".++++++++++++++.",
".++++++++++++++.",
".++++++++++++++.",
".++++++++++++++.",
".++++++++++++++.",
"................"};
