/* XPM */
static char *mini_unsplit_xpm[] = {
"16 16 85 1",
" 	c None",
".	c #FBFBFB",
"+	c #FAFAFA",
"@	c #F8F8F8",
"#	c #F7F7F7",
"$	c #F5F5F5",
"%	c #F4F4F4",
"&	c #F2F2F2",
"*	c #F0F0F0",
"=	c #EFEFEF",
"-	c #EDEDED",
";	c #EBEBEB",
">	c #E9E9E9",
",	c #E7E7E7",
"'	c #E5E5E5",
")	c #E3E3E3",
"!	c #E1E1E1",
"~	c #AFAFAF",
"{	c #191919",
"]	c #131313",
"^	c #171717",
"/	c #121212",
"(	c #181818",
"_	c #A6A6A6",
":	c #DFDFDF",
"<	c #959595",
"[	c #070707",
"}	c #000000",
"|	c #8F8F8F",
"1	c #DDDDDD",
"2	c #F3F3F3",
"3	c #EEEEEE",
"4	c #969696",
"5	c #050505",
"6	c #929292",
"7	c #DBDBDB",
"8	c #AEAEAE",
"9	c #ECECEC",
"0	c #8D8D8D",
"a	c #8C8C8C",
"b	c #9D9D9D",
"c	c #D9D9D9",
"d	c #EAEAEA",
"e	c #888888",
"f	c #161616",
"g	c #D7D7D7",
"h	c #E8E8E8",
"i	c #8A8A8A",
"j	c #111111",
"k	c #D5D5D5",
"l	c #E6E6E6",
"m	c #848484",
"n	c #040404",
"o	c #151515",
"p	c #D3D3D3",
"q	c #8B8B8B",
"r	c #E4E4E4",
"s	c #E2E2E2",
"t	c #E0E0E0",
"u	c #838383",
"v	c #D1D1D1",
"w	c #919191",
"x	c #DEDEDE",
"y	c #DCDCDC",
"z	c #DADADA",
"A	c #868686",
"B	c #101010",
"C	c #CFCFCF",
"D	c #D8D8D8",
"E	c #818181",
"F	c #CDCDCD",
"G	c #A5A5A5",
"H	c #828282",
"I	c #D6D6D6",
"J	c #939393",
"K	c #CCCCCC",
"L	c #CACACA",
"M	c #878787",
"N	c #C8C8C8",
"O	c #9C9C9C",
"P	c #CBCBCB",
"Q	c #C7C7C7",
"R	c #D4D4D4",
"S	c #D2D2D2",
"T	c #C5C5C5",
".+@#$%&*=-;>,')!",
"+@#$~{]^^/(_')!:",
"@#$%&<[}}[|')!:1",
"#$2&*34556')!:17",
"$8&*39;0a')!:1bc",
"2{<39d>,')!:1efg",
"&][<dh,')!:1i[jk",
"*^}5al')!:1mn}op",
"3^}5qrst:17un}ov",
"9/[wrstxyzcgA[BC",
"d(|rstxyzDgkpEoF",
"hGrstxymHIkpvCJK",
"lrstxyinnApvCFKL",
"rstxyM[}}[ECFKLN",
"stxyOfjooBoJPLNQ",
"txyzDIRSvCFPLNQT"};
