/* XPM */
static char *mini_en_xpm[] = {
/* columns rows colors chars-per-pixel */
"16 16 114 2",
"   c #000011116767",
".  c #000013136D6D",
"X  c #000015157070",
"o  c #000017177373",
"O  c #141431317E7E",
"+  c #454535356E6E",
"@  c #848417173434",
"#  c #85851B1B3838",
"$  c #85851F1F3A3A",
"%  c #F5F52B2B2B2B",
"&  c #F5F52E2E2E2E",
"*  c #FAFA29292B2B",
"=  c #FCFC2B2B2D2D",
"-  c #F7F734343434",
";  c #FEFE32323434",
":  c #FCFC36363838",
">  c #F9F939393939",
",  c #FAFA3F3F3F3F",
"<  c #FFFF3D3D3D3D",
"1  c #949444446363",
"2  c #9C9C51516F6F",
"3  c #ACAC61617D7D",
"4  c #E5E542424141",
"5  c #FEFE45454545",
"6  c #FFFF4C4C4C4C",
"7  c #FBFB52524343",
"8  c #F9F953534646",
"9  c #FDFD54544848",
"0  c #FFFF54545454",
"q  c #FFFF59595959",
"w  c #FFFF5F5F5F5F",
"e  c #EBEB60604D4D",
"r  c #E8E860605C5C",
"t  c #F9F963635F5F",
"y  c #FFFF60606161",
"u  c #FFFF64646464",
"i  c #FFFF65656969",
"p  c #FFFF6D6D6969",
"a  c #F7F787877878",
"s  c #F3F381817E7E",
"d  c #FCFC82827F7F",
"f  c #FEFE8A8A7C7C",
"g  c #18181B1B9A9A",
"h  c #080825259090",
"j  c #0C0C28289393",
"k  c #11112D2D9191",
"l  c #11112C2C9C9C",
"z  c #191934349898",
"x  c #3A3A3F3FA4A4",
"c  c #37375656AEAE",
"v  c #3F3F5E5EB2B2",
"b  c #41414949A7A7",
"n  c #55555E5EABAB",
"m  c #43436969A2A2",
"M  c #54546060AFAF",
"N  c #49496B6BB6B6",
"B  c #48486666B8B8",
"V  c #5A5A6666B8B8",
"C  c #6B6B7272A4A4",
"Z  c #5C5C7474C6C6",
"A  c #5A5A8181B9B9",
"S  c #61618181C0C0",
"D  c #64648383C3C3",
"F  c #62628484C1C1",
"G  c #64648383C6C6",
"H  c #6E6E8080C3C3",
"J  c #72728282C4C4",
"K  c #7B7B9797C6C6",
"L  c #7A7A9E9EC0C0",
"P  c #7B7B9D9DC5C5",
"I  c #74748E8ED2D2",
"U  c #7E7E9191D5D5",
"Y  c #92929999BEBE",
"T  c #BFBF9999B5B5",
"R  c #FFFF8E8E8585",
"E  c #F0F08A8A8A8A",
"W  c #F7F78B8B8B8B",
"Q  c #FFFF93938888",
"!  c #FFFF94948C8C",
"~  c #F4F49A9A9D9D",
"^  c #FFFFA5A5A7A7",
"/  c #F4F4A2A2ACAC",
"(  c #FFFFB1B1AAAA",
")  c #FFFFC1C1BDBD",
"_  c #82829595CECE",
"`  c #8C8C9C9CCFCF",
"'  c #86869696D5D5",
"]  c #8D8D9D9DD0D0",
"[  c #9292A1A1D3D3",
"{  c #9E9EAAAAD2D2",
"}  c #8D8DBCBCD7D7",
"|  c #9090B2B2D0D0",
" . c #9393B3B3D3D3",
".. c #A4A4A8A8CACA",
"X. c #A3A3AFAFD5D5",
"o. c #A1A1B0B0DDDD",
"O. c #E1E1BEBEDFDF",
"+. c #B7B7C3C3DADA",
"@. c #BCBCC9C9EEEE",
"#. c #B8B8D5D5ECEC",
"$. c #C5C5C0C0DBDB",
"%. c #C9C9C8C8E3E3",
"&. c #C9C9D5D5E8E8",
"*. c #CCCCD6D6E9E9",
"=. c #D4D4D5D5EFEF",
"-. c #D0D0DCDCEDED",
";. c #D9D9DDDDEDED",
":. c #DBDBE1E1F4F4",
">. c #FFFFE8E8E8E8",
",. c #FFFFEDEDECEC",
"<. c #FDFDFCFCF8F8",
"1. c #F9F9FFFFFFFF",
"2. c #FEFEFEFEFFFF",
"3. c None",
/* pixels */
"3.3.3.3.3.3.3.3.3.3.3.3.3.3.3.3.",
"3.3.3.3.3.3.3.3.3.3.3.3.3.3.3.3.",
"Y #.K G D S ;.3 3 ;.N B v A 2 P ",
"..( 2.:.o.o.2.! R 2.[ ] %.f <.| ",
"F @.^ ) 2.' 2.i y 2.I / W 2.{ z ",
"F o.U O.d 2.2.w q 2.p >.-.b J k ",
";.2.2.2.2.2.2.0 6 2.2.2.2.2.2.*.",
"3 Q u t q 0 6 6 5 , > - & % 8 $ ",
";.2.2.2.2.2.2.< : 2.2.2.2.2.<.&.",
"B ` V =.,.t 2.; ; 2.<.4 T g M . ",
"c X.<.s E Z 2.= * 2.x 1.~ r _   ",
"| <.f $.J Z 2.9 7 <.V n +.<.e C ",
"L 1 m l j h *.$ @ &.X X . O } + ",
"3.3.3.3.3.3.3.3.3.3.3.3.3.3.3.3.",
"3.3.3.3.3.3.3.3.3.3.3.3.3.3.3.3.",
"3.3.3.3.3.3.3.3.3.3.3.3.3.3.3.3."
};
