/* XPM */
static char *mini_compass_xpm[] = {
/* columns rows colors chars-per-pixel */
"16 16 75 1",
"  c #0B0B0B",
". c gray24",
"X c #6F7272",
"o c #787E7E",
"O c #D23928",
"+ c #CB4638",
"@ c #E14837",
"# c #CA594D",
"$ c #F05746",
"% c #397DD2",
"& c #7C8080",
"* c #7E8484",
"= c #4681CB",
"- c #588CCB",
"; c #488CE1",
": c #579BF0",
"> c #8E9A9A",
", c #A4A8A8",
"< c #A9B4B4",
"1 c #AAB5B5",
"2 c #AAB6B6",
"3 c #ACB7B7",
"4 c #ADBBBB",
"5 c #B1BEBE",
"6 c #B4BDBD",
"7 c #D19D97",
"8 c #EA9086",
"9 c #C4BBBB",
"0 c #D3BAB6",
"q c #E4A9A2",
"w c #8DBDF3",
"e c #B6C0C0",
"r c #B4C2C2",
"t c #B9C3C3",
"y c #BBC5C5",
"u c #BDCCCC",
"i c #A6C5E8",
"p c #B7D2E2",
"a c #C1C3C3",
"s c #C5C6C6",
"d c #C3C9C9",
"f c #C1CACA",
"g c #C7CCCC",
"h c #DECCC8",
"j c #C9DADA",
"k c #CCDDDD",
"l c #CDDDDD",
"z c #CDDEDE",
"x c #CFDFDF",
"c c #D9DFDF",
"v c #DDDDDD",
"b c #EBC9C5",
"n c #EBD5D1",
"m c #C5DBEB",
"M c #C0D8ED",
"N c #C4DAEF",
"B c #D3E2E2",
"V c #D4E0E0",
"C c #DAE6E6",
"Z c #DBE7E7",
"A c #DDE7E7",
"S c #DCE8E8",
"D c #DFE9E9",
"F c #E0E7E7",
"G c #E7EAEA",
"H c #E7EEEE",
"J c #E7EFEF",
"K c #E8EAEA",
"L c #E8EEEE",
"P c #E9F0F0",
"I c #EBF1F1",
"U c #ECF2F2",
"Y c #F1F5F5",
"T c #F3F6F6",
"R c None",
/* pixels */
"RRRRRRRRRRRRRRRR",
"RRRR*rVHFf*RRRRR",
"RRR1kCI,IIC1RRRR",
"RR1jkIIcIIn84RRR",
"RokjtLIgLb$hk&RR",
"R5kkj4j47@0lkyRR",
"R6kkkL9+OqYLk6RR",
"R6>ugg-v#ggV>6RR",
"R6kkIi%=9LIIk6RR",
"RrkkM;igLgLHkdRR",
"RXBp:NIgULgFC.RR",
"RR.wmIIcUULA.RRR",
"RRR.SII,UUY.RRRR",
"RRRR.aGYKs.RRRRR",
"RRRRRR   RRRRRRR",
"RRRRRRRRRRRRRRRR"
};
