/* XPM */
static char *mini_gretl_xpm[] = {
/* columns rows colors chars-per-pixel */
"16 16 239 2 ",
"   c #000808",
".  c #101007",
"X  c #191208",
"o  c #1A100D",
"O  c #1D190D",
"+  c #1D0E11",
"@  c #0D1313",
"#  c #0D1817",
"$  c #141411",
"%  c #151D1F",
"&  c #2B0B03",
"*  c #2B1007",
"=  c #211109",
"-  c #23120E",
";  c #24100C",
":  c #29110A",
">  c #22190F",
",  c #36170F",
"<  c #231314",
"1  c #2D1316",
"2  c #2D1715",
"3  c #241D19",
"4  c #231B1D",
"5  c #391A10",
"6  c #381B13",
"7  c #3D1910",
"8  c #311D1B",
"9  c #301C1E",
"0  c #242018",
"q  c #2E231D",
"w  c #3B2311",
"e  c #382717",
"r  c #33271E",
"t  c #38221E",
"y  c #332B1B",
"u  c #1D1E23",
"i  c #1F1F26",
"p  c #1A1F2A",
"a  c #201E21",
"s  c #1A262B",
"d  c #282227",
"f  c #2A2C26",
"g  c #21282C",
"h  c #322321",
"j  c #3B2221",
"k  c #302825",
"l  c #3C2C24",
"z  c #3B2829",
"x  c #382F2C",
"c  c #3B382C",
"v  c #362836",
"b  c #2C3030",
"n  c #23303B",
"m  c #353031",
"M  c #3B343B",
"N  c #353C3C",
"B  c #451E16",
"V  c #4E1E11",
"C  c #551F11",
"Z  c #4A210D",
"A  c #4E250D",
"S  c #582D05",
"D  c #56200D",
"F  c #432116",
"G  c #422218",
"H  c #40251A",
"J  c #452518",
"K  c #4B2D1B",
"L  c #4C291C",
"P  c #4E2C1E",
"I  c #572F1F",
"U  c #4A311F",
"Y  c #5E3218",
"T  c #422A29",
"R  c #4F292E",
"E  c #4A2D2C",
"W  c #4A3622",
"Q  c #4D3623",
"!  c #4F3B26",
"~  c #43322F",
"^  c #5A3225",
"/  c #52302D",
"(  c #56342D",
")  c #5D392F",
"_  c #4C2F34",
"`  c #403534",
"'  c #473636",
"]  c #4A3630",
"[  c #463E3F",
"{  c #513135",
"}  c #51393C",
"|  c #613421",
" . c #60352E",
".. c #763A25",
"X. c #633831",
"o. c #43453F",
"O. c #5D413B",
"+. c #7A442F",
"@. c #6E4333",
"#. c #634937",
"$. c #694E37",
"%. c #67403F",
"&. c #774834",
"*. c #71413C",
"=. c #7D4F3D",
"-. c #7F5236",
";. c #1A2D44",
":. c #212C46",
">. c #2C3644",
",. c #2E3E4C",
"<. c #303142",
"1. c #363540",
"2. c #343E48",
"3. c #463540",
"4. c #433B42",
"5. c #344256",
"6. c #374655",
"7. c #3B4052",
"8. c #35415F",
"9. c #3A475D",
"0. c #3F4E5D",
"q. c #474542",
"w. c #4B4442",
"e. c #4D4445",
"r. c #5F4545",
"t. c #574A4A",
"y. c #5D494E",
"u. c #5E5445",
"i. c #424A5B",
"p. c #434F5E",
"a. c #4B545C",
"s. c #4F565E",
"d. c #545754",
"f. c #565850",
"g. c #5A5B5E",
"h. c #595F5F",
"j. c #604F43",
"k. c #684E43",
"l. c #704344",
"z. c #645744",
"x. c #6B5A4D",
"c. c #715249",
"v. c #745B4F",
"b. c #614A51",
"n. c #614C53",
"m. c #744950",
"M. c #675253",
"N. c #6E5252",
"B. c #6B5356",
"V. c #6E5756",
"C. c #7E5055",
"Z. c #755C55",
"A. c #735B5D",
"S. c #696050",
"D. c #686055",
"F. c #445261",
"G. c #4A5468",
"H. c #4B5A68",
"J. c #4C5B6A",
"K. c #5B5A62",
"L. c #5E5D61",
"P. c #545F6D",
"I. c #595D69",
"U. c #485776",
"Y. c #735C63",
"T. c #54626E",
"R. c #5D626F",
"E. c #6A6264",
"W. c #646569",
"Q. c #76626B",
"!. c #726C6E",
"~. c #72716B",
"^. c #7E7B6F",
"/. c #6E6E71",
"(. c #7A7277",
"). c #737A7C",
"_. c #717C7F",
"`. c #894535",
"'. c #8B4D37",
"]. c #87603A",
"[. c #905245",
"{. c #825E58",
"}. c #83614D",
"|. c #956049",
" X c #846853",
".X c #86685F",
"XX c #9C6853",
"oX c #906F5F",
"OX c #9E6F59",
"+X c #886660",
"@X c #876D64",
"#X c #8E746D",
"$X c #9C736D",
"%X c #876F71",
"&X c #867571",
"*X c #807577",
"=X c #8D7371",
"-X c #8B7C74",
";X c #8B7678",
":X c #8D7C7C",
">X c #BC865B",
",X c #8D8373",
"<X c #9F8676",
"1X c #B3827E",
"2X c #D18D76",
"3X c #CB9174",
"4X c #D39C74",
"5X c #D69D77",
"6X c #D49D7E",
"7X c #637281",
"8X c #8E8082",
"9X c #8A8783",
"0X c #8E8D8C",
"qX c #9D8988",
"wX c #A9ACA5",
"eX c #BCA9AF",
"rX c #CF9589",
"tX c #D09D82",
"yX c #D89B8F",
"uX c #DBA385",
"iX c #D5A98D",
"pX c #DEA88B",
"aX c #D4A897",
"sX c #DCA99A",
"dX c #E3AE8B",
"fX c #E5B79D",
"gX c #D2B6A6",
"hX c #F7CAB7",
"jX c #F1CFBC",
"kX c #F3D2B3",
"lX c #FFD6B4",
"zX c #C6C6C6",
"xX c #EFC9C1",
"cX c #FCD5C2",
"vX c #FDDECF",
"bX c #FFDFD4",
"nX c #F5ECEC",
"mX c #FFF4E1",
"MX c #FFF6F9",
/* pixels */
"J h i p u d v 3.n.} j T 8 9 1.7.",
"Q 3 g s @ q.Q.Y.b.B.%Xz ' < <.G.",
"W 0 %   f D.N.r.V.qX:Xt.e.4 i.:.",
"U q a m -X<XF c.#X&X` !./.W.9.8.",
"P 2 + 9 +XvXmXoXv.l w.zX)._.;.U.",
"w 6 %.1XD lX]. Xz.^.f.wXd.h.,.5.",
"! , *.rXpX>XS $.S.~.o.9X0Xg.T.F.",
"#.G X.sX3X4XiXgX~ [ E.*X(.K.p.,.",
"K 6 ) aX6X5X=.{.A.y.;XM.8X4.>.F.",
"L H @XjXkXdXhXbX/ {.c..X] c 2.6.",
"7 : X e A uXfXcXI @.&.Z * r a.J.",
"7 ; q > & XXpXY OX|...tX}.= s.0.",
"( o N $ O.V -.fX+.'.2X..^ ; R.H.",
"k.k # b t xXX.| C [.`.yX .1 I.7X",
"j.> . c ,Xe =X{ R m.C.l.$XB M P.",
"x.X [ O y u.x nXMXeX_ E Z.k.L.n "
};
