/* XPM */
static char *mini_model_xpm[] = {
/* columns rows colors chars-per-pixel */
"12 16 15 1",
"  c black",
". c #111111",
"X c #222222",
"o c gray20",
"O c #444444",
"+ c gray40",
"@ c #777777",
"# c #888888",
"$ c gray60",
"% c #AAAAAA",
"& c #BBBBBB",
"* c gray80",
"= c #DDDDDD",
"- c #EEEEEE",
"; c none",
/* pixels */
";;;;;;;;;;;;",
";;;;;@ #;;;;",
";;;;*O%O-;;;",
";;;;;;;;;;;;",
";;;;*X $;;;;",
";;;=+;& ;;;;",
";;;+$;=O;;;;",
";;;.*=+-;;;;",
";;= #o+-;;;;",
";;%O;;OO;;;;",
";;@@;;- ;;;;",
";;O$;;#@;;;;",
";;.O.o$;;;;;",
";= ;;;;;;;;;",
";%O;;;;;;;;;",
";;;;;;;;;;;;"
};
