/* XPM */
static char * mini_tex_xpm[] = {
"20 16 33 1",
" 	c None",
".	c #050502",
"+	c #1F1D1B",
"@	c #282927",
"#	c #3D3F3C",
"$	c #4A4C49",
"%	c #626461",
"&	c #737471",
"*	c #878986",
"=	c #9A9B98",
"-	c #AAACA9",
";	c #C3C3C0",
">	c #CDCDCA",
",	c #D1D0C7",
"'	c #D4D6D3",
")	c #535552",
"!	c #0F110E",
"~	c #D6D5CC",
"{	c #464845",
"]	c #90928F",
"^	c #D7D9D6",
"/	c #232422",
"(	c #A4A6A3",
"_	c #DAD9D0",
":	c #130E0C",
"<	c #B6B8B5",
"[	c #2E302D",
"}	c #0A0C08",
"|	c #50504E",
"1	c #6C6766",
"2	c #989391",
"3	c #A5A59C",
"4	c #BDBCB3",
"                    ",
"                    ",
":|):{|:3____1.[__[:*",
"|~_:-_*2^^^^~&:>'#,~",
"&^_:-'1/||||2^+#12^^",
"^_^:(_':3_,1|_;:#^~_",
"^^^:(~':-''~1^'[:,'>",
"^__:(^_:(_&^-~&2+#_'",
"^'^:3'^:@[+^^4)^;:2~",
"__,:2^^:(~|~4+;_^):;",
"^>|||2':(^<>@|(~'&||",
"''^'~~~:3_^'{'>'~~~~",
"~_~^^^&.#||++~~>>>''",
"^>'~~_>'>~,'~>~_~~,~",
"                    ",
"                    "};
