/* XPM */
static char *mini_pin_xpm[] = {
/* columns rows colors chars-per-pixel */
"16 16 92 1 ",
"  c #676A70",
". c #0029AC",
"X c #002DB6",
"o c #0531BA",
"O c #0838BE",
"+ c #023AC3",
"@ c #0F44CA",
"# c #1249CB",
"$ c #104CCE",
"% c #1150CF",
"& c #0848D1",
"* c #0059D7",
"= c #035ED9",
"- c #005FDA",
"; c #005FDB",
": c #035FDB",
"> c #1250D2",
", c #145AD8",
"< c #165CDA",
"1 c #0460D9",
"2 c #0161DD",
"3 c #0064DF",
"4 c #2469D6",
"5 c #0066E1",
"6 c #0067E3",
"7 c #0067E5",
"8 c #016FEA",
"9 c #1662E0",
"0 c #1969E0",
"q c #0D74E5",
"w c #0476EB",
"e c #0176EF",
"r c #0B76EA",
"t c #0F7CEC",
"y c #1B74E5",
"u c #107EED",
"i c #1F79E8",
"p c #237AE6",
"a c #108BF6",
"s c #138EF6",
"d c #1790F1",
"f c #2F83E6",
"g c #2489EE",
"h c #298FEF",
"j c #2098F4",
"k c #259AF4",
"l c #2999F3",
"z c #2BA2F6",
"x c #30A0F5",
"c c #31A8F6",
"v c #32A8F6",
"b c #34A9F6",
"n c #36AAF9",
"m c #3CAFFA",
"M c #3BB0F9",
"N c #3CB1FA",
"B c #4384DC",
"V c #46B7FA",
"C c #49B8FA",
"Z c #4ABAFB",
"A c #4BBBFB",
"S c #4CBDFA",
"D c #4CBDFB",
"F c #52C0FC",
"G c #5EC3FD",
"H c #61C9FD",
"J c #6BCCFF",
"K c #75CDFD",
"L c #6BD1FF",
"P c #70D2FE",
"I c #71D2FF",
"U c #ACAFB4",
"Y c #A5B0BE",
"T c #B4B1B7",
"R c #B3B4BA",
"E c #B9BBC0",
"W c #BBC0C6",
"Q c #89DCFF",
"! c #94DFFF",
"~ c #98D8FC",
"^ c #B8DFFD",
"/ c #BBDFFD",
"( c #A9E0FF",
") c #A8E5FF",
"_ c #AFE5FF",
"` c #CACACC",
"' c #C0E5FF",
"] c #CBE8FE",
"[ c #CBEAFF",
"{ c #CFECFF",
"} c #D6EAFC",
"| c None",
/* pixels */
"||||||||||4.O#||",
"|||||||||!+o@$<|",
"|||||||||)BX>,0i",
"|||||||||_}%&9yg",
"||||||||Q'(Kfphl",
"||||CcjL]/SNCxd|",
"|||HPVP{/Scr||||",
"|||GJM~]Abu5||||",
"||||mzkFnt5|||||",
"||||ase8q62|||||",
"||||Yw7;*::|||||",
"|||WU|;12::|||||",
"||EU||||::||||||",
"||R|||||||||||||",
"|T |||||||||||||",
"`|||||||||||||||"
};
