/* XPM */
static char * mini_boxplot_xpm[] = {
"16 16 3 1",
" 	c None",
".	c #FFFFFF",
"+	c #4C3BBF",
"......+++.......",
".......+........",
".......+........",
".......+........",
"..+++++++++++...",
"..+.........+...",
"..+.........+...",
"..+++++++++++...",
"..+.........+...",
"..+.........+...",
"..+++++++++++...",
".......+........",
".......+........",
".......+........",
".......+........",
"......+++......."};
