/* XPM */
static char *mini_page_xpm[] = {
/* columns rows colors chars-per-pixel */
"16 16 112 2 ",
"   c #666863",
".  c #666864",
"X  c #676964",
"o  c #676A65",
"O  c #686A66",
"+  c #696B66",
"@  c #696C67",
"#  c #6A6C68",
"$  c #6B6D68",
"%  c #6B6D69",
"&  c #6E706B",
"*  c #6E706C",
"=  c #70736E",
"-  c #737570",
";  c #747671",
":  c #757772",
">  c #787A75",
",  c #797B76",
"<  c #7C7F7A",
"1  c #7D807B",
"2  c #81847E",
"3  c #82857F",
"4  c #858882",
"5  c #878A84",
"6  c #8A8C87",
"7  c #8C8F89",
"8  c #8F918C",
"9  c #91938E",
"0  c #949690",
"q  c #969892",
"w  c #9B9D97",
"e  c #9C9E98",
"r  c #9FA29C",
"t  c #A4A7A1",
"y  c #A9ACA5",
"u  c #A9ACA7",
"i  c #AAACA7",
"p  c #AFB2AB",
"a  c #AFB2AC",
"s  c #B0B3AC",
"d  c #B1B4AD",
"f  c #B1B4AE",
"g  c #B1B1B0",
"h  c #B3B6B0",
"j  c #B4B7B0",
"k  c #BDBFBA",
"l  c #BCBCBC",
"z  c #BFC2BC",
"x  c #CECFCE",
"c  c #CCD0CA",
"v  c LightGray",
"b  c #D4D5D4",
"n  c gray84",
"m  c #D6D7D6",
"M  c #D7D7D7",
"N  c #D7D8D6",
"B  c #D8D8D6",
"V  c #D9DCD5",
"C  c #DADDD6",
"Z  c #D9D9D8",
"A  c gray85",
"S  c #D9DAD8",
"D  c #DCDFD8",
"F  c #DCDFD9",
"G  c #DFE1DB",
"H  c #DFE2DC",
"J  c #E1E3DE",
"K  c #E2E4DF",
"L  c #E2E5E0",
"P  c #E3E5E0",
"I  c #E3E6E1",
"U  c #E4E6E1",
"Y  c #E4E6E2",
"T  c #E5E7E3",
"R  c #E6E7E5",
"E  c #E5E8E3",
"W  c #E6E8E3",
"Q  c #E6E8E4",
"!  c #E6E9E4",
"~  c #E7E9E4",
"^  c #E7E9E5",
"/  c #E7E9E6",
"(  c #E8EAE5",
")  c #E8EAE6",
"_  c #EBEDE9",
"`  c #EDEEEB",
"'  c #EDEFEB",
"]  c #EDEDEC",
"[  c #EDEEEC",
"{  c #EEEFEC",
"}  c #EEF0ED",
"|  c #EFF0ED",
" . c #EFF0EE",
".. c #EFF1EE",
"X. c #F0F0EF",
"o. c #F1F1F0",
"O. c #F2F3F2",
"+. c #F3F4F2",
"@. c #F4F5F3",
"#. c #F5F6F4",
"$. c #F6F7F5",
"%. c #F7F8F6",
"&. c #F8F8F7",
"*. c #F8F9F7",
"=. c #FAFAF9",
"-. c #FDFDFC",
";. c #FDFDFD",
":. c #FDFEFD",
">. c #FEFEFD",
",. c #FEFEFE",
"<. c gray100",
"1. c None",
/* pixels */
"1.1.j f f s p p p a 1.1.1.1.1.1.",
"1.s [ ,.,.,.,.,.=.R h 1.1.1.1.1.",
"1.y ,.O.| _ ( U L B ,.k 1.1.1.1.",
"1.t ,.Z v v v v v l ,.,.y 1.1.1.",
"1.r ,._ ( E L H G z y g B e 1.1.",
"1.w ,.n v v v v v v x c Z 0 1.1.",
"1.q ,.! U L J G D V V V ,.8 1.1.",
"1.9 ,.n v v v v v v v n ,.6 1.1.",
"1.7 ,.( U L L K J L L L ,.4 1.1.",
"1.4 ,.! ! E E ! R ! ! ! ,.2 1.1.",
"1.2 ,.n v v v v v v v m ,.< 1.1.",
"1.1 ,.{ { [ | X.| | | X.,., 1.1.",
"1., ,.Z v v v n +.@.@.O.,.; 1.1.",
"1.: ,.+.@.$.$.%.*.*.*.=.,.* 1.1.",
"1.: [ ,.,.,.,.,.,.,.,.,.O.* 1.1.",
"1.1.= % $ @ @ o o o     $ 1.1.1."
};
