/* XPM */
static char * model_table_xpm[] = {
"32 32 5 1",
" 	c None",
".	c #000000",
"+	c #FFFFFF",
"@	c #BEBEBE",
"#	c #E9E9E9",
"    ..................          ",
"    .++++++++++++++++..         ",
"    .++++++++++++++++.@.        ",
"    .+++++++...+....+.@@.       ",
"    .++++++++++++++++.@@@.      ",
"    .++++++++++++++++.@@@@.     ",
"    .++.++..++....++..@@@@@.    ",
"    .++++++++++++++++........   ",
"    .++..++...+..+++...@@@@..   ",
"    .++++++++++++++++++@@@@..   ",
"    .++..+#...++..++....+++..   ",
"    .++++++++++++++++++++++..   ",
"    .++..++...++...++...+++..   ",
"    .++++++++++++++++++++++..   ",
"    .++..+...+++...++...+++..   ",
"    .++++++++++++++++++++++..   ",
"    .++.+++...++...++...+++..   ",
"    .++++++++++++++++++++++..   ",
"    .++..+++..++...+...++++..   ",
"    .++++++++++++++++++++++..   ",
"    .++.+++...++...++...+++..   ",
"    .++++++++++++++++++++++..   ",
"    .++..++...+....++...+++..   ",
"    .++++++++++++++++++++++..   ",
"    .++++++++++++++++++++++..   ",
"    .++.++++..+++..+++..+++..   ",
"    .++++++++++++++++++++++..   ",
"    .++..+++..+++..+++..+++..   ",
"    .++++++++++++++++++++++..   ",
"    .++++++++++++++++++++++..   ",
"    .........................   ",
"     ........................   "};
