/* XPM */
static char *mini_mouse_xpm[] = {
"16 16 4 1",
" 	c None",
"#	c black",
"X	c white",
"o	c gray",
"#               ",
"#     ###       ",
" ### #XXX#      ",
"   ##XoXXX#     ",
"   #XXXoXXo#    ",
"  #XoXXXooXX#   ",
" #oXXoXXoXXX#   ",
" #ooXXooXXXXX#  ",
" #XXoXoXXXXXXX# ",
"  #XXoXXXXXXXX# ",
"   #XXoXXXXXXX# ",
"    #XXoXXXXXo# ",
"     #XXoXXXoX# ",
"      #XXoooX#  ",
"       #XXXX#   ",
"        ####    ",
};
