/* XPM */
static char * rhohat_xpm[] = {
"32 32 44 1",
" 	c None",
".	c #E9E8E8",
"+	c #B1AFAF",
"@	c #BCBBBB",
"#	c #FFFFFF",
"$	c #A6A4A4",
"%	c #DDDDDD",
"&	c #C7C6C6",
"*	c #F4F3F3",
"=	c #9B9999",
"-	c #D2D1D1",
";	c #000000",
">	c #8E8E8E",
",	c #464545",
"'	c #3B3A3A",
")	c #727272",
"!	c #C7C7C7",
"~	c #676666",
"{	c #191919",
"]	c #2A2929",
"^	c #E3E3E3",
"/	c #494949",
"(	c #7B7B7B",
"_	c #1D1D1D",
":	c #878787",
"<	c #626262",
"[	c #C4C4C4",
"}	c #A3A3A3",
"|	c #7D7C7C",
"1	c #555555",
"2	c #515151",
"3	c #767474",
"4	c #939393",
"5	c #AAAAAA",
"6	c #ACACAC",
"7	c #454444",
"8	c #141313",
"9	c #333333",
"0	c #545353",
"a	c #393939",
"b	c #3E3E3E",
"c	c #151515",
"d	c #D9D8D8",
"e	c #898888",
".+@##.$%@&#*&=##*+--+*#%=%##*&=#",
"#@@##+%##=*#%=##-@##@-##=%###%=#",
"#@@##=%##=%#%=##@@##@@##=%###%=#",
"#@@;;;;;;;%#%=##@@##@@;;;;;;;%=#",
"#@@;;;-#*=*#%=#>,')!+-##=%;;;%=#",
".++;;;=%+%#*&~{;;;;;]^#%=&;;;&=%",
".%%;;;*%.##*/;(#^>;;;_^%%%;;;%%%",
".%.;;;*%.##:;<####[{;;)%%*;;;%%#",
".+@;;;$%@&^;;~##*+-};;;[=%;;;&=#",
"#@@;;;%##=:;;~##-@##];;>=%;;;%=#",
"#@@;;;%##=/;;~##@@##|;;1=%;;;%=#",
"#@@;;;%##=/;;~##@@##|;;1=%;;;%=#",
"#@@;;;-#*=2;;~##-+##3;;1=%;;;%=#",
".++;;;=%+%1;;~%##@&&|;;(=&;;;&=%",
".%%;;;*%.#1;;4%###%%5;;6%%;;;%%%",
".%.;;;*%.#1;;4####%%);_%%*;;;%%#",
".+@;;;$%@&1;;7##*+--8;5%=%;;;&=#",
"#@@;;;%##=2;;;5#-@#1;,##=%;;;%=#",
"#@@;;;%##=/;;9;1|0a;b@##=%;;;%=#",
"#@@;;;%##=/;;~!1cc1!@@##=%;;;%=#",
"#@@;;;-#*=2;;~##-+##+-##=%;;;%=#",
".++;;;=%+%1;;~%##@&&@##%=&;;;&=%",
".%%;;;*%.#);;4%###%%###%%%;;;%%%",
"###;;;####5;;5############;;;###",
".%.;;;*%.#5;;4####%%###%%*;;;%%#",
".+@;;;$%@&5;;~##*+--+*#%=%;;;&=#",
"#@@;;;%##=d54e##-@##@-##=%;;;%=#",
"#@@;;;;;;;%#%=##@@##@@;;;;;;;%=#",
"#@@##=%##=%#%=##@@##@@##=%###%=#",
"#@@##+-#*=*#%=##-+##+-##=%###%=#",
".++.##=%+%#*&=%##@&&@##%=&*#*&=%",
".%%.##*%.##*%%%###%%###%%%*#*%%%"};
