/* XPM */
static char *stock_properties_16_xpm[] = {
/* columns rows colors chars-per-pixel */
"16 16 65 1",
"  c black",
". c #161616",
"X c gray25",
"o c #4B4B49",
"O c #5D5D5D",
"+ c #646464",
"@ c #676767",
"# c gray43",
"$ c #717171",
"% c #767676",
"& c gray51",
"* c gray52",
"= c #888888",
"- c gray54",
"; c gray56",
": c gray57",
"> c #9D9D9D",
", c #A0A0A0",
"< c #A5A5A5",
"1 c gray65",
"2 c gray66",
"3 c gray68",
"4 c #AEAEAE",
"5 c #AFAFAF",
"6 c gray71",
"7 c gray73",
"8 c #BBBBBB",
"9 c gray74",
"0 c gray",
"q c gray75",
"w c #C0C0C0",
"e c #C1C1C1",
"r c gray76",
"t c #C3C3C3",
"y c gray77",
"u c #C5C5C5",
"i c #C6C6C6",
"p c gray78",
"a c #C8C8C8",
"s c #CBCBCB",
"d c gray80",
"f c #D5D5D5",
"g c gray85",
"h c gainsboro",
"j c gray87",
"k c gray88",
"l c #E2E2E2",
"z c gray89",
"x c #E4E4E4",
"c c gray90",
"v c #E6E6E6",
"b c #E7E7E7",
"n c gray91",
"m c #EAEAEA",
"M c gray92",
"N c #ECECEC",
"B c #EEEEEE",
"V c #EFEFEF",
"C c gray94",
"Z c #F1F1F1",
"A c #FBFBFB",
"S c #FDFDFD",
"D c #FEFEFE",
"F c gray100",
"G c None",
/* pixels */
"GG           GGG",
"GG DDDDDDDke  GG",
"   bV  5VVtD2  G",
" D df V nV5%OX G",
" D    V hVk*o. G",
" DVVVVt eVVBBt G",
"  DVVt +2dsgBt G",
"G  Dt #4kBBBBt G",
"GG DV -tsttfBe G",
"GG Dt <dnnnnne G",
"G  DV @>8stdn0 G",
"  DVtt $<hbbb0 G",
" DVVVVt -48tk0 G",
" D    V >0tkb8 G",
" D &> B ;:>60> G",
"G              G"
};
