/* XPM */
static char *stock_convert_16_xpm[] = {
/* columns rows colors chars-per-pixel */
"16 16 16 1",
"  c black",
". c #202A34",
"X c #2E3B46",
"o c #323B4A",
"O c #4B6983",
"+ c #7590AE",
"@ c #7D98B4",
"# c #7D98B6",
"$ c #AA3116",
"% c #DF421E",
"& c #E37B63",
"* c #E47B63",
"= c #E77C64",
"- c #9DB8D2",
"; c #EBB4A6",
": c None",
/* pixels */
"::   :::::::::::",
":: -  ::::::::::",
": X-O  ::    :::",
": #-OO  :::: :::",
" o+-OOO  ::: :::",
" #+-OOOO       :",
".++-OOO  ::   ::",
"  +-OO  :::: :::",
":  -O  :::::::::",
"::    :::     ::",
"::::::::: ;*% ::",
"::::::::: =&% ::",
"::::::::: %%$ ::",
":::::::::     ::",
"::::::::::::::::",
"::::::::::::::::"
};
