/* XPM */
static char * stock_dialog_error_48_xpm[] = {
"48 48 400 2",
"  	c None",
". 	c #73443A",
"+ 	c #724C43",
"@ 	c #915E52",
"# 	c #AF6B5B",
"$ 	c #C97765",
"% 	c #DD826F",
"& 	c #E37E6A",
"* 	c #DE7A66",
"= 	c #D07361",
"- 	c #B76353",
"; 	c #995244",
"> 	c #794035",
", 	c #6E4D45",
"' 	c #865C51",
") 	c #C07D6C",
"! 	c #E98A75",
"~ 	c #E57259",
"{ 	c #E05C3F",
"] 	c #DD4D2E",
"^ 	c #D94123",
"/ 	c #D73B1B",
"( 	c #D5391A",
"_ 	c #D4391A",
": 	c #D43C1F",
"< 	c #D44227",
"[ 	c #D54B31",
"} 	c #C74D38",
"| 	c #914031",
"1 	c #672B21",
"2 	c #7E564C",
"3 	c #C5806F",
"4 	c #EA866E",
"5 	c #E25D3E",
"6 	c #DC411F",
"7 	c #DB3E1C",
"8 	c #D93D1B",
"9 	c #D83B1B",
"0 	c #D73A1A",
"a 	c #D43719",
"b 	c #D23618",
"c 	c #D13518",
"d 	c #D03317",
"e 	c #CE3217",
"f 	c #CD3116",
"g 	c #CB3015",
"h 	c #C3361F",
"i 	c #8A2A1C",
"j 	c #6B4D46",
"k 	c #A67367",
"l 	c #E98A74",
"m 	c #E35D3D",
"n 	c #DD411D",
"o 	c #DC3F1C",
"p 	c #D63A1A",
"q 	c #D53919",
"r 	c #CE3216",
"s 	c #CB2F15",
"t 	c #CA2E15",
"u 	c #C92D14",
"v 	c #C72B13",
"w 	c #B22914",
"x 	c #65190D",
"y 	c #6B4E47",
"z 	c #BD8375",
"A 	c #E7765B",
"B 	c #DF441F",
"C 	c #DD401D",
"D 	c #D93C1B",
"E 	c #CF3317",
"F 	c #C82D14",
"G 	c #C62A13",
"H 	c #C42912",
"I 	c #B82411",
"J 	c #70160A",
"K 	c #6B4F47",
"L 	c #C48A7C",
"M 	c #E56547",
"N 	c #DF421D",
"O 	c #DA3E1C",
"P 	c #D53819",
"Q 	c #D33719",
"R 	c #D13418",
"S 	c #CC3116",
"T 	c #C32712",
"U 	c #C12611",
"V 	c #B6230F",
"W 	c #731509",
"X 	c #6C504A",
"Y 	c #BE8578",
"Z 	c #CC3016",
"` 	c #C82C14",
" .	c #C52A13",
"..	c #C02510",
"+.	c #BE2310",
"@.	c #B2200E",
"#.	c #6A1208",
"$.	c #A87B70",
"%.	c #E66C50",
"&.	c #DE411D",
"*.	c #DA3D1C",
"=.	c #D73B1A",
"-.	c #D6391A",
";.	c #D03417",
">.	c #C92E14",
",.	c #C42812",
"'.	c #C22711",
").	c #C02410",
"!.	c #BD220F",
"~.	c #BC210E",
"{.	c #A81C0C",
"].	c #806059",
"^.	c #E77F67",
"/.	c #DB3F1C",
"(.	c #D43819",
"_.	c #D23518",
":.	c #CE3116",
"<.	c #BB200E",
"[.	c #BA1F0E",
"}.	c #B91E0D",
"|.	c #94160A",
"1.	c #6F5853",
"2.	c #C78677",
"3.	c #DE4320",
"4.	c #C62B13",
"5.	c #C52913",
"6.	c #BF2410",
"7.	c #B81E0D",
"8.	c #B71C0D",
"9.	c #AE190B",
"0.	c #6A0F06",
"a.	c #896A63",
"b.	c #E4684B",
"c.	c #DA3D1B",
"d.	c #D83C1B",
"e.	c #CA2F15",
"f.	c #C12511",
"g.	c #BD210F",
"h.	c #B61B0C",
"i.	c #B41A0B",
"j.	c #961409",
"k.	c #C18173",
"l.	c #DC401D",
"m.	c #D33618",
"n.	c #CF3217",
"o.	c #CC3015",
"p.	c #C52912",
"q.	c #C32812",
"r.	c #BE230F",
"s.	c #BC210F",
"t.	c #B81D0D",
"u.	c #B71C0C",
"v.	c #B51B0C",
"w.	c #B4190B",
"x.	c #B3180B",
"y.	c #A71509",
"z.	c #755D58",
"A.	c #E26B51",
"B.	c #C72C14",
"C.	c #C02511",
"D.	c #B91F0E",
"E.	c #B1170A",
"F.	c #B01509",
"G.	c #850F06",
"H.	c #94716A",
"I.	c #DB4120",
"J.	c #CB3618",
"K.	c #B93015",
"L.	c #BF3115",
"M.	c #BE3015",
"N.	c #BE2F15",
"O.	c #BC2D15",
"P.	c #BB2C14",
"Q.	c #BA2B13",
"R.	c #B82A13",
"S.	c #B72912",
"T.	c #B52812",
"U.	c #B42611",
"V.	c #B42510",
"W.	c #B22410",
"X.	c #B1220F",
"Y.	c #AF210F",
"Z.	c #AE200E",
"`.	c #AD1F0D",
" +	c #AB1E0D",
".+	c #AA1D0C",
"++	c #A91B0C",
"@+	c #A81A0B",
"#+	c #A7190A",
"$+	c #A92013",
"%+	c #AF180A",
"&+	c #B2180B",
"*+	c #AE1409",
"=+	c #930F06",
"-+	c #AF6E5F",
";+	c #C13216",
">+	c #C1C1C1",
",+	c #E7E7E7",
"'+	c #E6E6E6",
")+	c #E5E5E5",
"!+	c #E4E4E4",
"~+	c #E3E3E3",
"{+	c #E2E2E2",
"]+	c #E1E1E1",
"^+	c #E0E0E0",
"/+	c #DFDFDF",
"(+	c #DEDEDE",
"_+	c #DDDDDD",
":+	c #DCDCDC",
"<+	c #DBDBDB",
"[+	c #B12318",
"}+	c #B1160A",
"|+	c #AF1509",
"1+	c #AD1308",
"2+	c #9C0E06",
"3+	c #C4634E",
"4+	c #CB3417",
"5+	c #FBFBFB",
"6+	c #FAFAFA",
"7+	c #F9F9F9",
"8+	c #F8F8F8",
"9+	c #F7F7F7",
"0+	c #F6F6F6",
"a+	c #F5F5F5",
"b+	c #F4F4F4",
"c+	c #F3F3F3",
"d+	c #F2F2F2",
"e+	c #F1F1F1",
"f+	c #F0F0F0",
"g+	c #EFEFEF",
"h+	c #C34E45",
"i+	c #AD1208",
"j+	c #AB1108",
"k+	c #A20E05",
"l+	c #D2533A",
"m+	c #CA3317",
"n+	c #DADADA",
"o+	c #EEEEEE",
"p+	c #EDEDED",
"q+	c #C65A52",
"r+	c #AC1208",
"s+	c #AB1107",
"t+	c #AA1007",
"u+	c #A20D05",
"v+	c #785C56",
"w+	c #D64628",
"x+	c #C83116",
"y+	c #D8D8D8",
"z+	c #ECECEC",
"A+	c #EBEBEB",
"B+	c #C65B54",
"C+	c #A80E06",
"D+	c #9F0C05",
"E+	c #720802",
"F+	c #CF391C",
"G+	c #C73015",
"H+	c #EAEAEA",
"I+	c #C45851",
"J+	c #A90F07",
"K+	c #A50C05",
"L+	c #970B04",
"M+	c #C52E15",
"N+	c #D6D6D6",
"O+	c #E9E9E9",
"P+	c #C3574F",
"Q+	c #A70D06",
"R+	c #A00A04",
"S+	c #8F0702",
"T+	c #AA2D15",
"U+	c #C83921",
"V+	c #BA403A",
"W+	c #A60D05",
"X+	c #A50B05",
"Y+	c #9A0903",
"Z+	c #830602",
"`+	c #8F2A18",
" @	c #CB351D",
".@	c #D0523F",
"+@	c #D66857",
"@@	c #DB7A6C",
"#@	c #D9786A",
"$@	c #D87769",
"%@	c #D87669",
"&@	c #D67569",
"*@	c #D6766A",
"=@	c #D47165",
"-@	c #D16B5F",
";@	c #D16A5F",
">@	c #CF695E",
",@	c #CF685E",
"'@	c #CE675D",
")@	c #CD675D",
"!@	c #CC655D",
"~@	c #CB645B",
"{@	c #C85E55",
"]@	c #C75B54",
"^@	c #C55A52",
"/@	c #C3554E",
"(@	c #C1514B",
"_@	c #B73831",
":@	c #A80F07",
"<@	c #A60C05",
"[@	c #A30A04",
"}@	c #900803",
"|@	c #790401",
"1@	c #73281B",
"2@	c #B0160A",
"3@	c #AF1409",
"4@	c #A10703",
"5@	c #850502",
"6@	c #6C0300",
"7@	c #BE2C13",
"8@	c #A90F06",
"9@	c #A70E06",
"0@	c #A20804",
"a@	c #940602",
"b@	c #800300",
"c@	c #881F0E",
"d@	c #C22611",
"e@	c #A20803",
"f@	c #A00703",
"g@	c #870501",
"h@	c #740200",
"i@	c #60160A",
"j@	c #BE2A13",
"k@	c #BE220F",
"l@	c #B91E0E",
"m@	c #B51A0C",
"n@	c #A40B05",
"o@	c #A30904",
"p@	c #940401",
"q@	c #800200",
"r@	c #610100",
"s@	c #841C0C",
"t@	c #B61C0C",
"u@	c #A80F06",
"v@	c #A10803",
"w@	c #9E0401",
"x@	c #840301",
"y@	c #760100",
"z@	c #AF2310",
"A@	c #BF2310",
"B@	c #BA200E",
"C@	c #B3190B",
"D@	c #B2180A",
"E@	c #A40A04",
"F@	c #9F0502",
"G@	c #8B0301",
"H@	c #7E0100",
"I@	c #631308",
"J@	c #B5220F",
"K@	c #A00603",
"L@	c #9E0502",
"M@	c #900300",
"N@	c #7E0000",
"O@	c #630000",
"P@	c #6F1409",
"Q@	c #B4200E",
"R@	c #B71D0D",
"S@	c #B2170A",
"T@	c #AE1309",
"U@	c #A91007",
"V@	c #7D0000",
"W@	c #670000",
"X@	c #711308",
"Y@	c #AF1D0D",
"Z@	c #A20904",
"`@	c #8D0300",
" #	c #7B0000",
".#	c #650000",
"+#	c #691107",
"@#	c #A5190B",
"##	c #9F0602",
"$#	c #9C0401",
"%#	c #860200",
"&#	c #770000",
"*#	c #5D0000",
"=#	c #921508",
"-#	c #AB170A",
";#	c #AB1007",
">#	c #8F0401",
",#	c #7C0100",
"'#	c #6B0000",
")#	c #680D05",
"!#	c #931208",
"~#	c #A61208",
"{#	c #8F0501",
"]#	c #7D0300",
"^#	c #6A0100",
"/#	c #580000",
"(#	c #7E0D05",
"_#	c #8E0C05",
":#	c #990C05",
"<#	c #A40B04",
"[#	c #980903",
"}#	c #8D0602",
"|#	c #7E0401",
"1#	c #6A0300",
"2#	c #620200",
"3#	c #5A0502",
"                                                                                                ",
"                                                                                                ",
"                                                                                                ",
"                                                                                                ",
"                                                                                                ",
"                                        .                                                       ",
"                              + @ # $ % & * = - ; >                                             ",
"                        , ' ) ! ~ { ] ^ / ( _ : < [ } | 1                                       ",
"                      2 3 4 5 6 7 8 9 0 ( a b c d e f g h i                                     ",
"                  j k l m n o 7 8 9 p q a b c d r f s t u v w x                                 ",
"                y z A B C o 7 D 9 p q a b c E r f s t F v G H I J                               ",
"              K L M N C o O D 9 p P Q b R E r S s t F v G H T U V W                             ",
"            X Y M N C o O D 9 p P Q b R E r Z s t ` v  .H T U ..+.@.#.                          ",
"            $.%.&.C o *.D =.-.P Q b ;.E r Z s >.` v  .,.'.U ).+.!.~.{.                          ",
"          ].^.&.C /.*.D =.-.(.Q _.;.E :.Z s >.` v  .,.'.U ).+.!.<.[.}.|.                        ",
"        1.2.3.C /.*.D =.-.(.Q _.;.E f Z s u ` 4.5.,.'.U 6.+.!.<.[.7.8.9.0.                      ",
"        a.b.C 7 c.d.0 -.(.Q c ;.E f Z e.u ` 4.5.,.'.f.6.+.g.<.[.7.8.h.i.j.                      ",
"        k.l.7 c.d.0 -.(.m.c ;.n.f o.e.u ` 4.p.q.'.f.6.r.s.<.[.t.u.v.w.x.y.                      ",
"      z.A.7 c.d.0 ( (.m.c ;.e f o.t u B.G p.q.'.C.6.r.s.<.D.t.u.v.w.x.E.F.G.                    ",
"      H.I.8 9 0 J.K.L.M.N.O.P.Q.R.S.T.U.V.W.X.Y.Z.`. +.+++@+#+$+%+&+E.F.*+=+                    ",
"      -+8 9 0 q ;+>+,+'+)+)+!+!+~+{+{+]+]+^+/+/+(+(+(+_+_+:+<+!+[+}+|+*+1+2+                    ",
"      3+9 p q a 4+:+5+6+6+7+7+8+9+9+0+a+a+b+b+c+d+d+e+e+f+g+g+a+h+|+*+i+j+k+                    ",
"      l+p P a b m+n+7+7+8+9+9+0+0+a+b+b+c+c+d+e+e+f+g+g+o+o+p+b+q+*+r+s+t+u+                    ",
"    v+w+P Q b R x+y+8+9+0+0+a+a+b+c+c+d+e+e+f+f+g+o+o+p+p+z+A+c+B+r+s+t+C+D+E+                  ",
"      F+Q b ;.E G+y+0+a+a+b+c+c+d+d+e+f+f+g+g+o+p+p+z+A+A+H+H+c+I+s+J+C+K+L+                    ",
"      ;+_.;.E r M+N+b+b+c+d+d+e+e+f+g+g+o+p+p+z+z+A+H+H+O+O+O+c+P+J+C+Q+R+S+                    ",
"      T+;.E f Z U+{+b+b+b+b+b+b+b+a+a+b+c+c+d+d+e+e+e+e+d+d+e+e+V+C+W+X+Y+Z+                    ",
"      `+E f Z s  @.@+@@@#@$@%@&@*@=@-@;@>@,@'@)@!@~@{@]@^@/@(@_@:@<@X+[@}@|@                    ",
"      1@f o.e.u ` 4.5.q.'.f.6.+.s.<.[.t.8.v.i.x.E.2@3@1+r+t+J+C+<@X+[@4@5@6@                    ",
"        7@t u ` 4.p.q.'.f.6.r.s.<.[.t.u.v.w.x.E.F.*+1+r+t+8@9@<@X+[@0@a@b@                      ",
"        c@u B.G p.q.d@C.6.r.s.<.D.t.u.v.w.&+E.F.*+1+j+t+8@Q+<@X+[@e@f@g@h@                      ",
"        i@j@G H q.d@C.6.k@s.<.l@t.u.m@w.&+E.F.*+1+j+t+8@Q+<@n@o@e@f@p@q@r@                      ",
"          s@H q.d@C.6.!.s.<.l@t.t@m@w.&+}+|+*+i+j+t+u@Q+<@n@o@v@f@w@x@y@                        ",
"            z@U ..A@!.s.B@}.t.t@m@C@D@}+|+*+i+s+t+C+Q+<@E@o@v@f@F@G@H@                          ",
"            I@J@A@!.s.[.}.t.h.m@C@D@}+|+*+r+s+t+C+Q+K+E@o@v@K@L@M@N@O@                          ",
"              P@Q@s.[.}.R@h.m@C@S@2@|+T@r+s+U@C+Q+K+E@o@v@K@L@M@V@W@                            ",
"                X@Y@}.R@h.m@C@S@2@|+T@r+s+J+C+Q+X+E@Z@v@K@L@`@ #.#                              ",
"                  +#@#h.i.x.S@2@|+1+r+s+J+C+W+X+E@Z@4@##$#%#&#*#                                ",
"                      =#-#E.2@3@1+r+;#J+C+W+X+E@Z@4@##>#,#'#                                    ",
"                        )#!#~#1+r+t+J+C+<@X+[@0@##{#]#^#/#                                      ",
"                              (#_#:#u+<#R+[#}#|#1#2#                                            ",
"                                        3#                                                      ",
"                                                                                                ",
"                                                                                                ",
"                                                                                                ",
"                                                                                                ",
"                                                                                                ",
"                                                                                                "};
