/* XPM */
static char *stock_network_16_xpm[] = {
/* columns rows colors chars-per-pixel */
"16 16 54 1",
"  c black",
". c gray4",
"X c #0F0F0E",
"o c #10100F",
"O c #141413",
"+ c #151514",
"@ c #191918",
"# c #212222",
"$ c #282827",
"% c #2A2A29",
"& c #393939",
"* c #484848",
"= c #5D5D5C",
"- c #6B6B6A",
"; c gray42",
": c #70706F",
"> c #79797C",
", c #808080",
"< c #898988",
"1 c #8B8B8B",
"2 c gray58",
"3 c #A19DB2",
"4 c #A19EB2",
"5 c #A4A4A4",
"6 c gray66",
"7 c #AEAEB3",
"8 c #B6B6B6",
"9 c #B7B7B7",
"0 c #BCBCBC",
"q c #B7B4C3",
"w c #B7B5C4",
"e c #C0C0C0",
"r c #C1C1C1",
"t c #C0C0C5",
"y c gray77",
"u c #C5C5C5",
"i c #C8C8C8",
"p c gray82",
"a c LightGray",
"s c #D5D5D5",
"d c #D8D8D8",
"f c gray85",
"g c #E6E6E6",
"h c gray91",
"j c #EAEAEB",
"k c gray92",
"l c gray93",
"z c #EEEEEE",
"x c gray94",
"c c #F3F3F3",
"v c #F3F3F4",
"b c gray96",
"n c #F5F5F6",
"m c None",
/* pixels */
"#@@@@@@@@@ mmmmm",
"@,lllllll;@mmmmm",
"@ld*****5h@mmmmm",
"@c*nn7>@+@@@@@@ ",
"@c*qq;,lllllzz;+",
"+l*33@ls*****5h@",
"@l*33@c*nnttc*c+",
"@na**@c*qqnn3*c@",
".1lkl@z*63jj3*l@",
"o%;<6@l*33333*l@",
"occak@ca*****wl@",
"odr90&1zllllxl2@",
"+@@@@O%;<66<:=@%",
"mmmmmXvcakkuuuh@",
"mmmmmXdr9008asy@",
"mmmmm+@@@@@@@@@ "
};
