/* XPM */
static char * stock_dialog_info_48_xpm[] = {
"48 48 519 2",
"  	c None",
". 	c #E1E1EE",
"+ 	c #E4E4F2",
"@ 	c #DFDFED",
"# 	c #EAEAF5",
"$ 	c #EAEAF4",
"% 	c #E8E8F3",
"& 	c #E6E6F3",
"* 	c #E3E3F1",
"= 	c #E2E2F1",
"- 	c #DFDFF0",
"; 	c #DEDEEF",
"> 	c #EDEDF6",
", 	c #F0F0F7",
"' 	c #F1F1F8",
") 	c #EFEFF7",
"! 	c #EBEBF5",
"~ 	c #E0E0F1",
"{ 	c #DEDEF0",
"] 	c #DDDDEF",
"^ 	c #DCDDEF",
"/ 	c #F3F3F8",
"( 	c #F6F6FA",
"_ 	c #F8F8FB",
": 	c #F7F7FB",
"< 	c #F5F5FA",
"[ 	c #E9E9F4",
"} 	c #E5E5F3",
"| 	c #E1E1F1",
"1 	c #DEDFF0",
"2 	c #DCDCEF",
"3 	c #DBDCEF",
"4 	c #F4F4F9",
"5 	c #F9F9FC",
"6 	c #FBFBFD",
"7 	c #ECECF5",
"8 	c #E4E4F3",
"9 	c #DFE0F0",
"0 	c #DCDEF0",
"a 	c #DBDCEE",
"b 	c #DBDBEF",
"c 	c #DADBEE",
"d 	c #F1F1F9",
"e 	c #FCFCFD",
"f 	c #FDFDFE",
"g 	c #F8F8FC",
"h 	c #F3F3F9",
"i 	c #EEEEF7",
"j 	c #E7E8F4",
"k 	c #E2E3F2",
"l 	c #DFE0F1",
"m 	c #DDDFF0",
"n 	c #DADDEF",
"o 	c #DADCEE",
"p 	c #D9DBEE",
"q 	c #F2F2F9",
"r 	c #E8E8F4",
"s 	c #E5E6F3",
"t 	c #E3E3F3",
"u 	c #E0E1F1",
"v 	c #DDDEF0",
"w 	c #DBDDEF",
"x 	c #D8DBEE",
"y 	c #FAFAFC",
"z 	c #E9E9F5",
"A 	c #E3E4F3",
"B 	c #E1E1F2",
"C 	c #DBDDF0",
"D 	c #D9DCEE",
"E 	c #D8DAEE",
"F 	c #D7DAEE",
"G 	c #FBFBFC",
"H 	c #F9F9FB",
"I 	c #F0F0F8",
"J 	c #ECECF6",
"K 	c #E7E7F4",
"L 	c #E1E2F2",
"M 	c #D8DCEE",
"N 	c #D7DBED",
"O 	c #D6DAED",
"P 	c #D6DBEE",
"Q 	c #F2F2F8",
"R 	c #EDEEF7",
"S 	c #EBEBF6",
"T 	c #E6E6F4",
"U 	c #D7DBEC",
"V 	c #D6DBEC",
"W 	c #D6DAEC",
"X 	c #D6DAEE",
"Y 	c #D6D9EE",
"Z 	c #FFFFFF",
"` 	c #F3F4F9",
" .	c #EFEFF8",
"..	c #EBECF6",
"+.	c #E5E6F4",
"@.	c #E1E3F2",
"#.	c #DDDFEF",
"$.	c #D8DCED",
"%.	c #D7DCEC",
"&.	c #D6DCEC",
"*.	c #D5DBED",
"=.	c #D5DAEE",
"-.	c #F4F4FA",
";.	c #ECECF7",
">.	c #E9EAF5",
",.	c #E5E5F4",
"'.	c #DEE2F0",
").	c #DADEEE",
"!.	c #D7DEEC",
"~.	c #D5DBEC",
"{.	c #D5DCED",
"].	c #D5DBEE",
"^.	c #FAFAFB",
"/.	c #E8E9F5",
"(.	c #E1E4F2",
"_.	c #DBE0EF",
":.	c #D8DFED",
"<.	c #D5DDEB",
"[.	c #D5DCEC",
"}.	c #EAEAF3",
"|.	c #F6F6FB",
"1.	c #F5F5FB",
"2.	c #EFF0F8",
"3.	c #EAEBF6",
"4.	c #E4E6F3",
"5.	c #DDE1EF",
"6.	c #D9E0ED",
"7.	c #D6DFEB",
"8.	c #D4DCEC",
"9.	c #D4DAEE",
"0.	c #D0D3E9",
"a.	c #FEFEFE",
"b.	c #F2F3FA",
"c.	c #F0F1F8",
"d.	c #E5E7F4",
"e.	c #DEE2EF",
"f.	c #D9E1EE",
"g.	c #D6E1EB",
"h.	c #D4DEEB",
"i.	c #D4DDEC",
"j.	c #D4D8EE",
"k.	c #E8E8F1",
"l.	c #EEEEF6",
"m.	c #F5F5F9",
"n.	c #F7F7FA",
"o.	c #FDFDFD",
"p.	c #E9E7E6",
"q.	c #DFE4F0",
"r.	c #D9E3EC",
"s.	c #D6E2EA",
"t.	c #D4E0EA",
"u.	c #D4DEEC",
"v.	c #D4DAED",
"w.	c #D0D4E9",
"x.	c #F1F1F7",
"y.	c #EFEDE8",
"z.	c #F2F3F9",
"A.	c #EAEAF0",
"B.	c #E3E7F2",
"C.	c #DEE5EF",
"D.	c #D8E4EB",
"E.	c #D5E4EA",
"F.	c #D4E3EA",
"G.	c #D3DFEB",
"H.	c #D4DCED",
"I.	c #F3F3F5",
"J.	c #EDEBE7",
"K.	c #F5F6FA",
"L.	c #F1F2F9",
"M.	c #E8E6E5",
"N.	c #EAECF5",
"O.	c #E6E7F3",
"P.	c #E0E4EF",
"Q.	c #DCE5EC",
"R.	c #D7E7EA",
"S.	c #D5E7EA",
"T.	c #D4E5EA",
"U.	c #D3E0EB",
"V.	c #D3DDED",
"W.	c #EAEBF4",
"X.	c #ECEDF4",
"Y.	c #EEEFF6",
"Z.	c #F1F2F8",
"`.	c #F2F3F8",
" +	c #D1D0D1",
".+	c #EFF0F7",
"++	c #EEEFF7",
"@+	c #ECEDF6",
"#+	c #E2E0DF",
"$+	c #E5E8F3",
"%+	c #E2E6F1",
"&+	c #DDE4ED",
"*+	c #DAE6EB",
"=+	c #D6E7EA",
"-+	c #D5E9E9",
";+	c #D3E7EA",
">+	c #D3DDEC",
",+	c #E5E8F0",
"'+	c #E8EBF2",
")+	c #E9ECF2",
"!+	c #EAEDF4",
"~+	c #EBEDF4",
"{+	c #EDEEF5",
"]+	c #C3C3C4",
"^+	c #EDEFF6",
"/+	c #EDEEF6",
"(+	c #EBEDF5",
"_+	c #E9EBF5",
":+	c #DADAD7",
"<+	c #E0E4EE",
"[+	c #DCE4EC",
"}+	c #DAE5EB",
"|+	c #D4E9E9",
"1+	c #D3EAE9",
"2+	c #D3E0EC",
"3+	c #D2DCED",
"4+	c #E6E6F2",
"5+	c #E3E7EF",
"6+	c #E3EBEF",
"7+	c #E4EBF0",
"8+	c #E6ECF1",
"9+	c #E6EAF1",
"0+	c #E6EBF2",
"a+	c #E2E4E4",
"b+	c #E7EBF3",
"c+	c #E7EAF3",
"d+	c #E6EAF3",
"e+	c #E5E9F3",
"f+	c #E4E7F3",
"g+	c #E2E7F0",
"h+	c #A4A7AD",
"i+	c #DCE2EC",
"j+	c #D9E4EA",
"k+	c #D7E6EA",
"l+	c #D5EAE9",
"m+	c #D4EBE9",
"n+	c #D3ECE9",
"o+	c #D3E3EA",
"p+	c #D2DEEC",
"q+	c #E4E5F1",
"r+	c #E4E6F2",
"s+	c #E1E8EE",
"t+	c #E0EAED",
"u+	c #E1EAEE",
"v+	c #E1E9EE",
"w+	c #E1E9F0",
"x+	c #E3EAEF",
"y+	c #D3D5CB",
"z+	c #E1E8F1",
"A+	c #E1E7F0",
"B+	c #E0E6F0",
"C+	c #DEE5F0",
"D+	c #DDE4F0",
"E+	c #DBE2EF",
"F+	c #DEE4ED",
"G+	c #9FA5A5",
"H+	c #D7E2E9",
"I+	c #D6E5E9",
"J+	c #D4E9E8",
"K+	c #D4EDE9",
"L+	c #D3EEE9",
"M+	c #D3E7E9",
"N+	c #D3E1EC",
"O+	c #E3E4F1",
"P+	c #E3E5F1",
"Q+	c #DEE8EC",
"R+	c #DEEAEC",
"S+	c #DDE9EC",
"T+	c #DCE8EB",
"U+	c #DEE8EB",
"V+	c #A4ACA9",
"W+	c #DAE5EC",
"X+	c #DAE4EC",
"Y+	c #D9E2EC",
"Z+	c #D8E1EA",
"`+	c #D8DFEA",
" @	c #D7DFEA",
".@	c #CACCC2",
"+@	c #CDD1CA",
"@@	c #D5E2E8",
"#@	c #D4E7E9",
"$@	c #D3E1EB",
"%@	c #D2DDEC",
"&@	c #E1E3F0",
"*@	c #DCE3EA",
"=@	c #DBE7EB",
"-@	c #DAE7EA",
";@	c #DAE8EB",
">@	c #A0AAA6",
",@	c #D8E3EA",
"'@	c #D7E1E9",
")@	c #D6DFE9",
"!@	c #D6DEE8",
"~@	c #DAE2E8",
"{@	c #C9CEC0",
"]@	c #D5E2E9",
"^@	c #D5E6E9",
"/@	c #D4EAE9",
"(@	c #D3E2EA",
"_@	c #D3DFEC",
":@	c #DEE0F0",
"<@	c #DBE2EA",
"[@	c #DAE5EA",
"}@	c #DAE4EA",
"|@	c #C9CFC1",
"1@	c #CDD4CA",
"2@	c #D8E2EA",
"3@	c #D7E3E9",
"4@	c #D6E1E9",
"5@	c #DCE7E9",
"6@	c #949F9B",
"7@	c #D5E5E9",
"8@	c #D3E8E9",
"9@	c #D2DFEC",
"0@	c #DCDEEE",
"a@	c #DCDDEE",
"b@	c #D8DCE9",
"c@	c #D8DFE8",
"d@	c #D4DDE4",
"e@	c #9FA7A2",
"f@	c #D0D8D3",
"g@	c #CFD6D1",
"h@	c #CFD6CF",
"i@	c #D1D8CF",
"j@	c #DCE8E8",
"k@	c #949E9B",
"l@	c #D4E2E3",
"m@	c #D3E3E7",
"n@	c #D3E0E7",
"o@	c #D2DEE8",
"p@	c #D3D4E5",
"q@	c #BDBABB",
"r@	c #B8B7B5",
"s@	c #C3C0B4",
"t@	c #BEBFB7",
"u@	c #C2C4B8",
"v@	c #C8C9B7",
"w@	c #CECEB9",
"x@	c #D0CFB9",
"y@	c #C6C5B3",
"z@	c #CBCAB6",
"A@	c #CCCFCA",
"B@	c #CFD7DB",
"C@	c #D3DEEC",
"D@	c #CBC1AB",
"E@	c #BAB6B8",
"F@	c #B4B4B6",
"G@	c #B6B4B6",
"H@	c #BDBBBB",
"I@	c #C0BEBB",
"J@	c #C7C3BB",
"K@	c #CEC9BC",
"L@	c #CFCABC",
"M@	c #CDCABB",
"N@	c #CAC8BA",
"O@	c #C8C6B9",
"P@	c #B5B197",
"Q@	c #ECE3C4",
"R@	c #D3C8A8",
"S@	c #CDC4A7",
"T@	c #CDC8BB",
"U@	c #CDCAC4",
"V@	c #C8C5C2",
"W@	c #C9C6C1",
"X@	c #CCC7B9",
"Y@	c #CFC7B2",
"Z@	c #CDC3A4",
"`@	c #D5CCAF",
" #	c #D2C69D",
".#	c #9C8C53",
"+#	c #F1DF9D",
"@#	c #F2E9C5",
"##	c #F8F4E7",
"$#	c #F9F7EF",
"%#	c #F7F4EB",
"&#	c #EEE8D2",
"*#	c #EDE6CE",
"=#	c #F0EAD2",
"-#	c #F2ECD4",
";#	c #E6DCB7",
">#	c #DBCE9E",
",#	c #BEAB66",
"'#	c #6F643A",
")#	c #F3E3AA",
"!#	c #E6D79F",
"~#	c #F3E3A8",
"{#	c #F3E4AD",
"]#	c #F0DE9C",
"^#	c #E9D488",
"/#	c #E0CB7B",
"(#	c #D9C374",
"_#	c #D0BB6F",
":#	c #C7B36B",
"<#	c #A9985A",
"[#	c #8D7F4B",
"}#	c #F8F3E1",
"|#	c #F8F0D5",
"1#	c #E6D69F",
"2#	c #D6C896",
"3#	c #D0C292",
"4#	c #CEBE86",
"5#	c #C5B474",
"6#	c #C2AF6A",
"7#	c #BBA864",
"8#	c #BFB07B",
"9#	c #C5BA8F",
"0#	c #CFC08E",
"a#	c #9E8E54",
"b#	c #F0DC96",
"c#	c #F6EBC5",
"d#	c #FBF8EE",
"e#	c #FCFBF5",
"f#	c #FDFBF6",
"g#	c #F9F4DE",
"h#	c #F3EAC7",
"i#	c #F1E6C1",
"j#	c #ECE2BE",
"k#	c #EBE2C1",
"l#	c #DFD4AD",
"m#	c #BDAA64",
"n#	c #887C52",
"o#	c #F3E6B6",
"p#	c #E3D296",
"q#	c #F1E1A8",
"r#	c #F4E7B9",
"s#	c #F2E4B1",
"t#	c #EFDD9C",
"u#	c #E7D288",
"v#	c #DFC97A",
"w#	c #CCB76D",
"x#	c #C4B069",
"y#	c #A29565",
"z#	c #90855B",
"A#	c #F7EFD6",
"B#	c #F4EAC7",
"C#	c #E6D8AA",
"D#	c #D4C697",
"E#	c #D1C59C",
"F#	c #CEC190",
"G#	c #C4B275",
"H#	c #BDAA67",
"I#	c #B6A361",
"J#	c #AE9D5D",
"K#	c #C8BD9A",
"L#	c #D1C599",
"M#	c #998B52",
"N#	c #EBD792",
"O#	c #F1E5BA",
"P#	c #F9F5E6",
"Q#	c #FCFAF4",
"R#	c #FBF9EE",
"S#	c #F9F6EA",
"T#	c #F5EED7",
"U#	c #ECE3C0",
"V#	c #EADFBC",
"W#	c #E8E0C3",
"X#	c #D2C492",
"Y#	c #B8A462",
"Z#	c #837646",
"`#	c #F0E6BE",
" $	c #DFD099",
".$	c #EDE0B1",
"+$	c #EEE2B3",
"@$	c #EBDCA7",
"#$	c #E6D597",
"$$	c #DDC982",
"%$	c #D3BF72",
"&$	c #CDB86D",
"*$	c #C9B46A",
"=$	c #BCAA65",
"-$	c #9F8F55",
";$	c #72673C",
">$	c #F6F1DE",
",$	c #F1E9CB",
"'$	c #E6DCB9",
")$	c #D4C9A3",
"!$	c #CCC19A",
"~$	c #C3B480",
"{$	c #B9A86C",
"]$	c #B2A060",
"^$	c #AC9B5C",
"/$	c #A59558",
"($	c #BFB38B",
"_$	c #CCBF92",
":$	c #92824E",
"<$	c #E4D39B",
"[$	c #F1EACE",
"}$	c #F8F6EB",
"|$	c #F8F5E9",
"1$	c #EFE7CC",
"2$	c #EBE2C2",
"3$	c #E7DEBC",
"4$	c #E7DEC1",
"5$	c #D9D0A9",
"6$	c #C4B57F",
"7$	c #A19056",
"8$	c #D1C185",
"9$	c #E0D198",
"0$	c #E0D2A0",
"a$	c #E0D19D",
"b$	c #DAC98F",
"c$	c #D0BC7A",
"d$	c #C7B46C",
"e$	c #C3B068",
"f$	c #BEAA66",
"g$	c #A79759",
"h$	c #3D361F",
"i$	c #9E9572",
"j$	c #AEA47F",
"k$	c #AA9E73",
"l$	c #928553",
"m$	c #847847",
"n$	c #6B6242",
"o$	c #838383",
"p$	c #767676",
"q$	c #242424",
"r$	c #191919",
"s$	c #707070",
"t$	c #1F1F1F",
"                                                                                                ",
"                                                                                                ",
"                                          . + @                                                 ",
"                                  # # $ # % & + * = - ;                                         ",
"                              > , ' ' , ) ! % & + * ~ { ] ^                                     ",
"                            ) / ( _ : < , ! [ % } + | 1 ^ 2 3                                   ",
"                          ' 4 5 6 6 _ 4 ) 7 # [ & 8 = 9 0 a b c                                 ",
"                        d < 5 e f e g h ) i 7 # j } k l m n o p p                               ",
"                      q h _ 6 e e 6 : q ' ) > # r s t u v w o x p x                             ",
"                    d h ( y 6 6 6 y ( h d , i ! z & A B 1 C D x E x F                           ",
"                    h < _ 5 y G y H : < h I i J # K } L 1 C M N N O P                           ",
"                  ' h < : 5 6 e 6 5 : ( 4 Q I R S z T t u 0 x U V W X Y                         ",
"                  ' h < _ y e Z e y H : < ` Q  .i ..z +.@.#.$.%.&.V *.=.                        ",
"                  ' h < : 5 6 e 6 y 5 _ : < -.q '  .;.>.,.'.).!.&.~.{.].                        ",
"                  ' h < : _ y G 6 ^.H _ : ( < ` q ' ) J /.(._.:.<.<.[.=.                        ",
"                }., d h < _ _ ^.y y H H g _ : |.1.h q 2.3.4.5.6.7.<.8.9.0.                      ",
"                > ) ' q 4 : _ _ H H H a.a.5 Z : Z h b.c.;.d.e.f.g.h.i.9.j.                      ",
"                k.i l.' q m.( n.o.o.o._ o.n.o.( o.o.Q p.S d.q.r.s.t.u.v.w.                      ",
"                  7 i ) x.4 < ( y.n.n.a.: Z : Z 4 z.Q A.3.B.C.D.E.F.G.H.                        ",
"                  # 7 > ) ' Q m.I.J.K.< m.4 h h L.c.M.N.O.P.Q.R.S.T.U.V.                        ",
"                  [ $ W.X.Y., Z.`. +/ z.Q ' c..+++@+#+$+%+&+*+=+-+;+U.>+                        ",
"                  O.% ,+'+)+!+~+{+]+Y.^+/+@+(+N._+W.:+<+[+}+R.|+1+;+2+3+                        ",
"                    4+5+6+7+8+9+0+a+b+b+c+d+e+f+%+g+h+i+j+k+l+m+n+o+p+                          ",
"                    q+r+s+t+u+v+w+x+y+z+A+B+C+D+E+F+G+H+I+J+K+L+M+N+3+                          ",
"                      O+P+Q+R+S+T+U+V+W+X+Y+Z+`+ @.@+@@@#@m+L+n+$@%@                            ",
"                        &@*@=@-@;@T+>@,@H+'@)@!@~@{@]@^@/@K+n+(@_@                              ",
"                          :@:@<@[@}@|@1@2@3@H+4@5@6@7@#@/@8@N+9@                                ",
"                            0@a@b@c@d@e@f@g@h@i@j@k@l@m@n@o@_@                                  ",
"                              a p@q@r@s@t@u@v@w@x@y@z@A@B@C@                                    ",
"                                D@E@F@G@H@I@J@K@L@M@N@O@P@                                      ",
"                                Q@R@S@T@U@V@W@X@Y@Z@`@ #.#                                      ",
"                                +#@###$#%#&#*#=#-#;#>#,#'#                                      ",
"                                )#!#~#{#)#]#^#/#(#_#:#<#[#                                      ",
"                                }#|#1#2#3#4#5#6#7#8#9#0#a#                                      ",
"                                b#c#d#e#f#g#h#i#j#k#l#m#n#                                      ",
"                                o#p#q#r#s#t#u#v#(#w#x#y#z#                                      ",
"                                A#B#C#D#E#F#G#H#I#J#K#L#M#                                      ",
"                                N#O#P#Q#R#S#T#U#V#W#X#Y#Z#                                      ",
"                                `# $.$+$@$#$$$%$&$*$=$-$;$                                      ",
"                                >$,$'$)$!$~${$]$^$/$($_$:$                                      ",
"                                  <$[$}$|$1$2$3$4$5$6$7$                                        ",
"                                  8$9$0$a$b$c$d$e$f$g$h$                                        ",
"                                      i$j$k$l$m$n$                                              ",
"                                          o$p$q$r$                                              ",
"                                            s$t$                                                ",
"                                                                                                ",
"                                                                                                ",
"                                                                                                "};
