/* XPM */
static char * upsize_xpm[] = {
"16 16 52 1",
" 	c None",
".	c #6587ED",
"+	c #6688EE",
"@	c #5E80E5",
"#	c #5F81E6",
"$	c #5577DC",
"%	c #5476DA",
"&	c #486ACE",
"*	c #BBCAED",
"=	c #EAF1F9",
"-	c #E9F0F8",
";	c #3C5EC2",
">	c #E9F1F8",
",	c #E0EAF5",
"'	c #3254B7",
")	c #E5EEF7",
"!	c #DCE8F4",
"~	c #294BAF",
"{	c #E0EBF5",
"]	c #D6E4F2",
"^	c #D1E0F0",
"/	c #C5D9EC",
"(	c #BAD1E8",
"_	c #B3CDE6",
":	c #AFCAE4",
"<	c #C5D8EC",
"[	c #2345AB",
"}	c #CBDDEE",
"|	c #BAD1E9",
"1	c #AEC9E5",
"2	c #ACC8E4",
"3	c #C3D7EC",
"4	c #2244AC",
"5	c #CEDFEF",
"6	c #ACC8E3",
"7	c #C2D7EB",
"8	c #2446B2",
"9	c #C4D8EB",
"0	c #AEC9E4",
"a	c #294BBC",
"b	c #C8DBED",
"c	c #B0CBE5",
"d	c #2F51C8",
"e	c #9FB4E5",
"f	c #C9DBED",
"g	c #C6D9EC",
"h	c #3759D6",
"i	c #3658D4",
"j	c #3D5FE0",
"k	c #3E60E2",
"l	c #4163E9",
"m	c #4264EA",
"..+         +.. ",
"@#           #@ ",
"$  %%%%%%%%%  $ ",
"  &*=-----=*&   ",
"  ;>,,,,,,,>;   ",
"  ')!!!!!!!)'   ",
"  ~{]]^/(_:<~   ",
"  [!}|122223[   ",
"  45:66666674   ",
"  89000000098   ",
"  abcccccccba   ",
"  defgggggfed   ",
"h  iiiiiiiii  h ",
"jk           kj ",
"llm         mll ",
"                "};
